<?xml version="1.0" encoding="UTF-8"?>
<svg width="1440px" height="2409px" viewBox="0 0 1440 2409" version="1.1" xmlns="http://www.w3.org/2000/svg" xmlns:xlink="http://www.w3.org/1999/xlink">
    <!-- Generator: Sketch 48.2 (47327) - http://www.bohemiancoding.com/sketch -->
    <title>bg-fourth</title>
    <desc>Created with Sketch.</desc>
    <defs>
        <polygon id="path-1" points="0 0 1440 0 1440 439.023819 1440 900 0 900"></polygon>
        <linearGradient x1="97.6625895%" y1="100%" x2="2.29787932%" y2="100%" id="linearGradient-3">
            <stop stop-color="#FF42D2" offset="0%"></stop>
            <stop stop-color="#FFD451" offset="100%"></stop>
        </linearGradient>
        <polygon id="path-4" points="0 0 1440 0 1440 439.023819 1440 900 0 900"></polygon>
        <linearGradient x1="97.6625895%" y1="100%" x2="2.29787932%" y2="100%" id="linearGradient-6">
            <stop stop-color="#FF0089" offset="0%"></stop>
            <stop stop-color="#FFD451" offset="100%"></stop>
        </linearGradient>
        <linearGradient x1="100%" y1="100%" x2="0%" y2="100%" id="linearGradient-7">
            <stop stop-color="#FF0089" offset="0%"></stop>
            <stop stop-color="#FFD451" offset="100%"></stop>
        </linearGradient>
        <linearGradient x1="2.29787938%" y1="0%" x2="152.685547%" y2="154.557292%" id="linearGradient-8">
            <stop stop-color="#FF42D2" offset="0%"></stop>
            <stop stop-color="#FFD451" offset="100%"></stop>
        </linearGradient>
    </defs>
    <g id="Desktop-HD" stroke="none" stroke-width="1" fill="none" fill-rule="evenodd" transform="translate(0.000000, -170.000000)">
        <g id="bg-fourth" transform="translate(0.000000, 170.000000)">
            <g id="Path-2">
                <g id="Path-3">
                    <g id="Path-2">
                        <g id="Group">
                            <g id="Mask" fill="#FFFFFF" fill-rule="nonzero">
                                <polygon id="path-1" points="0 0 1440 0 1440 439.023819 1440 900 0 900"></polygon>
                            </g>
                            <g id="Clipped">
                                <mask id="mask-2" fill="white">
                                    <use xlink:href="#path-1"></use>
                                </mask>
                                <g id="path-1"></g>
                                <path d="M-16.2568056,875.31612 C-92.6442361,877.338072 -101.009155,877.338072 -41.3515625,875.31612 C48.1348264,872.283191 189.203125,884.328125 299.265625,852.757812 C323.195602,845.893741 439.778543,784.624402 490.728663,759.395978 C559.532558,725.327092 609.736451,745.563955 656.750239,742.861241 C738.578308,738.157134 801.489938,603.164062 913.554687,603.164062 C1025.61944,603.164062 1036.88281,661.925781 1165.72656,642.203125 C1294.57031,622.480469 1381.19902,267.628432 1440,263.304687 C1498.80098,258.980943 1465.28377,520.147368 1491.57306,507.902786 C1509.09926,499.739732 1499.62114,634.172262 1463.13871,911.200377 L-16.2568056,938.497021 L-16.2568056,875.31612 Z" id="Shape" fill-opacity="0.15" fill="url(#linearGradient-3)" fill-rule="nonzero" mask="url(#mask-2)"></path>
                            </g>
                            <g id="Clipped">
                                <mask id="mask-5" fill="white">
                                    <use xlink:href="#path-4"></use>
                                </mask>
                                <g id="path-1"></g>
                                <path d="M-55.3125,891.3125 C141.584667,901.332631 273.090859,891.888233 339.206078,862.979307 C438.378906,819.615918 447.796875,807.34375 495.949219,807.34375 C544.101562,807.34375 556.891046,837.108476 638.719115,832.404369 C720.547184,827.700262 770.357023,745.656255 882.421773,745.656255 C994.486523,745.656255 1071.53906,822.007812 1196.22656,793.203125 C1320.91406,764.398438 1413.71071,523.783644 1440,511.539062 C1457.5262,503.376008 1457.99137,636.745677 1441.39551,911.648069 L-38,938.944713 L-55.3125,891.3125 Z" id="Shape" fill="url(#linearGradient-6)" fill-rule="nonzero" mask="url(#mask-5)"></path>
                            </g>
                        </g>
                    </g>
                </g>
            </g>
            <rect id="Rectangle-Copy-2" fill="url(#linearGradient-7)" fill-rule="nonzero" x="0" y="899" width="1440" height="1514"></rect>
            <path d="M1368,622 L1368,562" id="Line-Copy" stroke="#FF0189" stroke-linecap="round" stroke-linejoin="round"></path>
            <circle id="Oval-2-Copy-2" stroke="url(#linearGradient-8)" stroke-width="4" fill="#FFFFFF" fill-rule="nonzero" cx="1187" cy="797" r="6"></circle>
            <circle id="Oval-2-Copy" stroke="url(#linearGradient-8)" stroke-width="4" fill="#FFFFFF" fill-rule="nonzero" cx="1368" cy="627" r="6"></circle>
            <g id="2021" transform="translate(1349.000000, 533.000000)" fill="#000000" font-family="RobotoSlab-Regular, Roboto Slab" font-size="18" font-weight="normal">
                <text>
                    <tspan x="0" y="19">2021</tspan>
                </text>
            </g>
            <path d="M1187,789 L1187,729" id="Line-Copy-3" stroke="#FF0189" stroke-linecap="round" stroke-linejoin="round"></path>
            <g id="2018" transform="translate(1168.000000, 700.000000)" fill="#000000" font-family="RobotoSlab-Regular, Roboto Slab" font-size="18" font-weight="normal">
                <text>
                    <tspan x="0" y="19">2018</tspan>
                </text>
            </g>
            <g id="CDN-Traffic" transform="translate(1330.000000, 861.000000)" fill="#FFFFFF">
                <path d="M5.22265625,11.2324219 C3.8828058,11.2324219 2.82210677,10.7698614 2.04052734,9.84472656 C1.25894792,8.91959173 0.868164062,7.66179181 0.868164062,6.07128906 C0.868164062,4.476229 1.2578086,3.21615046 2.03710938,2.29101563 C2.81641015,1.36588079 3.87596986,0.903320313 5.21582031,0.903320313 C6.25488801,0.903320313 7.143551,1.19954131 7.88183594,1.79199219 C8.62012088,2.38444307 9.06217375,3.15689628 9.20800781,4.109375 L7.95703125,4.109375 C7.79296793,3.47135098 7.46484621,2.96663597 6.97265625,2.59521484 C6.48046629,2.22379372 5.89486017,2.03808594 5.21582031,2.03808594 C4.26789891,2.03808594 3.51709261,2.400387 2.96337891,3.125 C2.4096652,3.849613 2.1328125,4.83169953 2.1328125,6.07128906 C2.1328125,7.30632128 2.41080451,8.28612919 2.96679688,9.01074219 C3.52278924,9.73535519 4.27473484,10.0976563 5.22265625,10.0976563 C5.91081073,10.0976563 6.49983479,9.93245608 6.98974609,9.60205078 C7.4796574,9.27164548 7.80208256,8.82161743 7.95703125,8.25195313 L9.20800781,8.25195313 C9.04394449,9.1588587 8.60075231,9.88232152 7.87841797,10.4223633 C7.15608363,10.962405 6.27083857,11.2324219 5.22265625,11.2324219 Z M11.1220703,1.13574219 L14.5058594,1.13574219 C15.9687573,1.13574219 17.1103475,1.56868057 17.9306641,2.43457031 C18.7509807,3.30046006 19.1611328,4.5104089 19.1611328,6.06445313 C19.1611328,7.61849735 18.75212,8.8295855 17.934082,9.69775391 C17.1160441,10.5659223 15.9733146,11 14.5058594,11 L11.1220703,11 L11.1220703,1.13574219 Z M12.3525391,2.24316406 L12.3525391,9.89257813 L14.4238281,9.89257813 C15.5266982,9.89257813 16.3823212,9.55762054 16.9907227,8.88769531 C17.5991241,8.21777009 17.9033203,7.28125602 17.9033203,6.078125 C17.9033203,4.87043667 17.5968455,3.92936535 16.9838867,3.25488281 C16.3709279,2.58040027 15.5175836,2.24316406 14.4238281,2.24316406 L12.3525391,2.24316406 Z M22.3535156,11 L21.1367187,11 L21.1367187,1.13574219 L22.3330078,1.13574219 L27.6855469,8.8125 L27.7949219,8.8125 L27.7949219,1.13574219 L29.0117187,1.13574219 L29.0117187,11 L27.8154297,11 L22.4628906,3.35058594 L22.3535156,3.35058594 L22.3535156,11 Z M38.9716797,11 L37.7412109,11 L37.7412109,2.24316406 L34.5625,2.24316406 L34.5625,1.13574219 L42.1503906,1.13574219 L42.1503906,2.24316406 L38.9716797,2.24316406 L38.9716797,11 Z M42.7246094,11 L42.7246094,3.63085938 L43.8457031,3.63085938 L43.8457031,4.72460938 L43.9550781,4.72460938 C44.0644537,4.36458153 44.310545,4.07063916 44.6933594,3.84277344 C45.0761738,3.61490771 45.5113908,3.50097656 45.9990234,3.50097656 C46.094727,3.50097656 46.1984044,3.5043945 46.3100586,3.51123047 C46.4217128,3.51806644 46.513997,3.52604162 46.5869141,3.53515625 L46.5869141,4.7109375 C46.5413409,4.69726556 46.4342456,4.68245451 46.265625,4.66650391 C46.0970044,4.65055331 45.9534511,4.64257813 45.8349609,4.64257813 C45.2744113,4.64257813 44.8118508,4.81119623 44.4472656,5.1484375 C44.0826805,5.48567877 43.9003906,5.9140599 43.9003906,6.43359375 L43.9003906,11 L42.7246094,11 Z M50.1757812,10.0976563 C50.7819041,10.0976563 51.2843405,9.92106296 51.6831055,9.56787109 C52.0818705,9.21467922 52.28125,8.77604429 52.28125,8.25195313 L52.28125,7.57519531 L50.2988281,7.70507813 C49.2233019,7.77799516 48.6855469,8.17903281 48.6855469,8.90820313 C48.6855469,9.28190291 48.8268215,9.57356666 49.109375,9.78320313 C49.3919285,9.99283959 49.7473937,10.0976563 50.1757812,10.0976563 Z M49.9570312,11.1298828 C49.2415329,11.1298828 48.6479516,10.9327819 48.1762695,10.5385742 C47.7045875,10.1443665 47.46875,9.61002941 47.46875,8.93554688 C47.46875,7.5865818 48.3642489,6.85970104 50.1552734,6.75488281 L52.28125,6.625 L52.28125,5.95507813 C52.28125,5.01627135 51.725266,4.546875 50.6132812,4.546875 C50.1712217,4.546875 49.8043634,4.62662681 49.5126953,4.78613281 C49.2210272,4.94563882 49.0341801,5.1712225 48.9521484,5.46289063 L47.7626953,5.46289063 C47.8401697,4.87043975 48.1455051,4.39534684 48.6787109,4.03759766 C49.2119167,3.67984847 49.8704388,3.50097656 50.6542969,3.50097656 C51.5520878,3.50097656 52.2436499,3.71858506 52.7290039,4.15380859 C53.2143579,4.58903212 53.4570312,5.1894493 53.4570312,5.95507813 L53.4570312,11 L52.3359375,11 L52.3359375,9.91308594 L52.2265625,9.91308594 C51.9895821,10.305015 51.6751322,10.6057932 51.2832031,10.8154297 C50.8912741,11.0250662 50.4492212,11.1298828 49.9570312,11.1298828 Z M55.9726562,11 L55.9726562,4.61523438 L54.7490234,4.61523438 L54.7490234,3.63085938 L55.9726562,3.63085938 L55.9726562,2.81054688 C55.9726562,2.07681925 56.1538068,1.53108903 56.5161133,1.17333984 C56.8784198,0.815590659 57.4104783,0.63671875 58.1123047,0.63671875 C58.2581388,0.63671875 58.3959954,0.642415308 58.5258789,0.653808594 C58.6557624,0.66520188 58.7822259,0.682291553 58.9052734,0.705078125 L58.9052734,1.66210938 C58.8323564,1.64843743 58.7480474,1.63932294 58.6523438,1.63476563 C58.5566401,1.63020831 58.4563807,1.62792969 58.3515625,1.62792969 C57.9277323,1.62792969 57.6212575,1.72932841 57.4321289,1.93212891 C57.2430004,2.1349294 57.1484375,2.43912558 57.1484375,2.84472656 L57.1484375,3.63085938 L58.8369141,3.63085938 L58.8369141,4.61523438 L57.1484375,4.61523438 L57.1484375,11 L55.9726562,11 Z M60.8876953,11 L60.8876953,4.61523438 L59.6640625,4.61523438 L59.6640625,3.63085938 L60.8876953,3.63085938 L60.8876953,2.81054688 C60.8876953,2.07681925 61.0688458,1.53108903 61.4311523,1.17333984 C61.7934588,0.815590659 62.3255173,0.63671875 63.0273438,0.63671875 C63.1731778,0.63671875 63.3110345,0.642415308 63.440918,0.653808594 C63.5708014,0.66520188 63.697265,0.682291553 63.8203125,0.705078125 L63.8203125,1.66210938 C63.7473955,1.64843743 63.6630864,1.63932294 63.5673828,1.63476563 C63.4716792,1.63020831 63.3714198,1.62792969 63.2666016,1.62792969 C62.8427713,1.62792969 62.5362965,1.72932841 62.347168,1.93212891 C62.1580394,2.1349294 62.0634766,2.43912558 62.0634766,2.84472656 L62.0634766,3.63085938 L63.7519531,3.63085938 L63.7519531,4.61523438 L62.0634766,4.61523438 L62.0634766,11 L60.8876953,11 Z M65.3378906,11 L65.3378906,3.63085938 L66.5136719,3.63085938 L66.5136719,11 L65.3378906,11 Z M65.9257812,2.13378906 C65.7024728,2.13378906 65.5099292,2.05289794 65.3481445,1.89111328 C65.1863599,1.72932862 65.1054688,1.53678497 65.1054688,1.31347656 C65.1054688,1.08561084 65.1863599,0.891927881 65.3481445,0.732421875 C65.5099292,0.572915869 65.7024728,0.493164063 65.9257812,0.493164063 C66.153647,0.493164063 66.3473299,0.572915869 66.5068359,0.732421875 C66.6663419,0.891927881 66.7460938,1.08561084 66.7460938,1.31347656 C66.7460938,1.53678497 66.6663419,1.72932862 66.5068359,1.89111328 C66.3473299,2.05289794 66.153647,2.13378906 65.9257812,2.13378906 Z M74.703125,5.88671875 L73.5136719,5.88671875 C73.4179683,5.52213359 73.2094743,5.20996224 72.8881836,4.95019531 C72.5668929,4.69042839 72.1419297,4.56054688 71.6132812,4.56054688 C70.9524707,4.56054688 70.427248,4.80663816 70.0375977,5.29882813 C69.6479473,5.79101809 69.453125,6.45409739 69.453125,7.28808594 C69.453125,8.14030374 69.6490866,8.81705479 70.0410156,9.31835938 C70.4329447,9.81966396 70.957028,10.0703125 71.6132812,10.0703125 C72.1100285,10.0703125 72.5235986,9.95865997 72.8540039,9.73535156 C73.1844092,9.51204315 73.4042963,9.19303593 73.5136719,8.77832031 L74.703125,8.77832031 C74.5983068,9.45280285 74.2792995,10.0133441 73.7460938,10.4599609 C73.212888,10.9065778 72.5042362,11.1298828 71.6201172,11.1298828 C70.5901641,11.1298828 69.7687205,10.7823928 69.1557617,10.0874023 C68.5428029,9.39241189 68.2363281,8.45931575 68.2363281,7.28808594 C68.2363281,6.1396427 68.5416636,5.22135761 69.1523438,4.53320313 C69.7630239,3.84504864 70.5833282,3.50097656 71.6132812,3.50097656 C72.5110722,3.50097656 73.2254205,3.73453542 73.7563477,4.20166016 C74.2872748,4.66878489 74.6028641,5.23046547 74.703125,5.88671875 Z"></path>
            </g>
            <g id="NON-CDN-Traffic" transform="translate(56.000000, 842.000000)" fill="#D5C6D0">
                <path d="M1.46777344,11 L0.250976562,11 L0.250976562,1.13574219 L1.44726562,1.13574219 L6.79980469,8.8125 L6.90917969,8.8125 L6.90917969,1.13574219 L8.12597656,1.13574219 L8.12597656,11 L6.9296875,11 L1.57714844,3.35058594 L1.46777344,3.35058594 L1.46777344,11 Z M14.640625,0.903320312 C16.0442779,0.903320312 17.1471314,1.36815941 17.9492188,2.29785156 C18.7513061,3.22754371 19.1523438,4.48306501 19.1523438,6.06445312 C19.1523438,7.64128393 18.7524454,8.89680522 17.9526367,9.83105469 C17.152828,10.7653042 16.0488352,11.2324219 14.640625,11.2324219 C13.2278575,11.2324219 12.1193074,10.7653042 11.3149414,9.83105469 C10.5105754,8.89680522 10.1083984,7.64128393 10.1083984,6.06445312 C10.1083984,4.4785077 10.5151327,3.22184708 11.3286133,2.29443359 C12.1420939,1.3670201 13.2460868,0.903320312 14.640625,0.903320312 Z M14.640625,2.03808594 C13.6380158,2.03808594 12.8427764,2.400387 12.2548828,3.125 C11.6669892,3.849613 11.3730469,4.82942091 11.3730469,6.06445312 C11.3730469,7.2858134 11.6612927,8.26334269 12.237793,8.99707031 C12.8142932,9.73079794 13.6152292,10.0976562 14.640625,10.0976562 C15.6523488,10.0976562 16.4464489,9.73079794 17.0229492,8.99707031 C17.5994495,8.26334269 17.8876953,7.2858134 17.8876953,6.06445312 C17.8876953,4.82942091 17.5983102,3.849613 17.0195312,3.125 C16.4407523,2.400387 15.6477915,2.03808594 14.640625,2.03808594 Z M22.3515625,11 L21.1347656,11 L21.1347656,1.13574219 L22.3310547,1.13574219 L27.6835938,8.8125 L27.7929688,8.8125 L27.7929688,1.13574219 L29.0097656,1.13574219 L29.0097656,11 L27.8134766,11 L22.4609375,3.35058594 L22.3515625,3.35058594 L22.3515625,11 Z M35.6611328,7.58886719 L31.1767578,7.58886719 L31.1767578,6.47460938 L35.6611328,6.47460938 L35.6611328,7.58886719 Z M41.7998047,11.2324219 C40.4599542,11.2324219 39.3992552,10.7698614 38.6176758,9.84472656 C37.8360964,8.91959173 37.4453125,7.66179181 37.4453125,6.07128906 C37.4453125,4.476229 37.834957,3.21615046 38.6142578,2.29101562 C39.3935586,1.36588079 40.4531183,0.903320312 41.7929688,0.903320312 C42.8320364,0.903320312 43.7206994,1.19954131 44.4589844,1.79199219 C45.1972693,2.38444307 45.6393222,3.15689628 45.7851562,4.109375 L44.5341797,4.109375 C44.3701164,3.47135098 44.0419946,2.96663597 43.5498047,2.59521484 C43.0576147,2.22379372 42.4720086,2.03808594 41.7929688,2.03808594 C40.8450473,2.03808594 40.094241,2.400387 39.5405273,3.125 C38.9868136,3.849613 38.7099609,4.83169953 38.7099609,6.07128906 C38.7099609,7.30632128 38.9879529,8.28612919 39.5439453,9.01074219 C40.0999377,9.73535519 40.8518833,10.0976562 41.7998047,10.0976562 C42.4879592,10.0976562 43.0769832,9.93245608 43.5668945,9.60205078 C44.0568058,9.27164548 44.379231,8.82161743 44.5341797,8.25195312 L45.7851562,8.25195312 C45.6210929,9.1588587 45.1779007,9.88232152 44.4555664,10.4223633 C43.7332321,10.962405 42.847987,11.2324219 41.7998047,11.2324219 Z M47.6992188,1.13574219 L51.0830078,1.13574219 C52.5459058,1.13574219 53.6874959,1.56868057 54.5078125,2.43457031 C55.3281291,3.30046006 55.7382812,4.5104089 55.7382812,6.06445312 C55.7382812,7.61849735 55.3292684,8.8295855 54.5112305,9.69775391 C53.6931925,10.5659223 52.5504631,11 51.0830078,11 L47.6992188,11 L47.6992188,1.13574219 Z M48.9296875,2.24316406 L48.9296875,9.89257812 L51.0009766,9.89257812 C52.1038467,9.89257812 52.9594696,9.55762054 53.5678711,8.88769531 C54.1762726,8.21777009 54.4804688,7.28125602 54.4804688,6.078125 C54.4804688,4.87043667 54.173994,3.92936535 53.5610352,3.25488281 C52.9480764,2.58040027 52.094732,2.24316406 51.0009766,2.24316406 L48.9296875,2.24316406 Z M58.9306641,11 L57.7138672,11 L57.7138672,1.13574219 L58.9101562,1.13574219 L64.2626953,8.8125 L64.3720703,8.8125 L64.3720703,1.13574219 L65.5888672,1.13574219 L65.5888672,11 L64.3925781,11 L59.0400391,3.35058594 L58.9306641,3.35058594 L58.9306641,11 Z M75.5488281,11 L74.3183594,11 L74.3183594,2.24316406 L71.1396484,2.24316406 L71.1396484,1.13574219 L78.7275391,1.13574219 L78.7275391,2.24316406 L75.5488281,2.24316406 L75.5488281,11 Z M79.3017578,11 L79.3017578,3.63085938 L80.4228516,3.63085938 L80.4228516,4.72460938 L80.5322266,4.72460938 C80.6416021,4.36458153 80.8876934,4.07063916 81.2705078,3.84277344 C81.6533222,3.61490771 82.0885392,3.50097656 82.5761719,3.50097656 C82.6718755,3.50097656 82.7755528,3.5043945 82.887207,3.51123047 C82.9988612,3.51806644 83.0911455,3.52604162 83.1640625,3.53515625 L83.1640625,4.7109375 C83.1184894,4.69726556 83.0113941,4.68245451 82.8427734,4.66650391 C82.6741528,4.65055331 82.5305996,4.64257812 82.4121094,4.64257812 C81.8515597,4.64257812 81.3889992,4.81119623 81.0244141,5.1484375 C80.6598289,5.48567877 80.4775391,5.9140599 80.4775391,6.43359375 L80.4775391,11 L79.3017578,11 Z M86.7529297,10.0976562 C87.3590525,10.0976562 87.8614889,9.92106296 88.2602539,9.56787109 C88.6590189,9.21467922 88.8583984,8.77604429 88.8583984,8.25195312 L88.8583984,7.57519531 L86.8759766,7.70507812 C85.8004504,7.77799516 85.2626953,8.17903281 85.2626953,8.90820312 C85.2626953,9.28190291 85.4039699,9.57356666 85.6865234,9.78320312 C85.9690769,9.99283959 86.3245421,10.0976562 86.7529297,10.0976562 Z M86.5341797,11.1298828 C85.8186813,11.1298828 85.2251,10.9327819 84.753418,10.5385742 C84.2817359,10.1443665 84.0458984,9.61002941 84.0458984,8.93554688 C84.0458984,7.5865818 84.9413973,6.85970104 86.7324219,6.75488281 L88.8583984,6.625 L88.8583984,5.95507812 C88.8583984,5.01627135 88.3024144,4.546875 87.1904297,4.546875 C86.7483702,4.546875 86.3815119,4.62662681 86.0898438,4.78613281 C85.7981756,4.94563882 85.6113285,5.1712225 85.5292969,5.46289062 L84.3398438,5.46289062 C84.4173181,4.87043975 84.7226536,4.39534684 85.2558594,4.03759766 C85.7890652,3.67984847 86.4475872,3.50097656 87.2314453,3.50097656 C88.1292363,3.50097656 88.8207984,3.71858506 89.3061523,4.15380859 C89.7915063,4.58903212 90.0341797,5.1894493 90.0341797,5.95507812 L90.0341797,11 L88.9130859,11 L88.9130859,9.91308594 L88.8037109,9.91308594 C88.5667306,10.305015 88.2522806,10.6057932 87.8603516,10.8154297 C87.4684225,11.0250662 87.0263696,11.1298828 86.5341797,11.1298828 Z M92.5498047,11 L92.5498047,4.61523438 L91.3261719,4.61523438 L91.3261719,3.63085938 L92.5498047,3.63085938 L92.5498047,2.81054688 C92.5498047,2.07681925 92.7309552,1.53108903 93.0932617,1.17333984 C93.4555682,0.815590659 93.9876267,0.63671875 94.6894531,0.63671875 C94.8352872,0.63671875 94.9731439,0.642415308 95.1030273,0.653808594 C95.2329108,0.66520188 95.3593744,0.682291553 95.4824219,0.705078125 L95.4824219,1.66210938 C95.4095048,1.64843743 95.3251958,1.63932294 95.2294922,1.63476562 C95.1337886,1.63020831 95.0335292,1.62792969 94.9287109,1.62792969 C94.5048807,1.62792969 94.1984059,1.72932841 94.0092773,1.93212891 C93.8201488,2.1349294 93.7255859,2.43912558 93.7255859,2.84472656 L93.7255859,3.63085938 L95.4140625,3.63085938 L95.4140625,4.61523438 L93.7255859,4.61523438 L93.7255859,11 L92.5498047,11 Z M97.4648437,11 L97.4648437,4.61523438 L96.2412109,4.61523438 L96.2412109,3.63085938 L97.4648437,3.63085938 L97.4648437,2.81054688 C97.4648437,2.07681925 97.6459943,1.53108903 98.0083008,1.17333984 C98.3706073,0.815590659 98.9026658,0.63671875 99.6044922,0.63671875 C99.7503262,0.63671875 99.8881829,0.642415308 100.018066,0.653808594 C100.14795,0.66520188 100.274413,0.682291553 100.397461,0.705078125 L100.397461,1.66210938 C100.324544,1.64843743 100.240235,1.63932294 100.144531,1.63476562 C100.048828,1.63020831 99.9485682,1.62792969 99.84375,1.62792969 C99.4199198,1.62792969 99.113445,1.72932841 98.9243164,1.93212891 C98.7351879,2.1349294 98.640625,2.43912558 98.640625,2.84472656 L98.640625,3.63085938 L100.329102,3.63085938 L100.329102,4.61523438 L98.640625,4.61523438 L98.640625,11 L97.4648437,11 Z M101.915039,11 L101.915039,3.63085938 L103.09082,3.63085938 L103.09082,11 L101.915039,11 Z M102.50293,2.13378906 C102.279621,2.13378906 102.087078,2.05289794 101.925293,1.89111328 C101.763508,1.72932862 101.682617,1.53678497 101.682617,1.31347656 C101.682617,1.08561084 101.763508,0.891927881 101.925293,0.732421875 C102.087078,0.572915869 102.279621,0.493164062 102.50293,0.493164062 C102.730795,0.493164062 102.924478,0.572915869 103.083984,0.732421875 C103.24349,0.891927881 103.323242,1.08561084 103.323242,1.31347656 C103.323242,1.53678497 103.24349,1.72932862 103.083984,1.89111328 C102.924478,2.05289794 102.730795,2.13378906 102.50293,2.13378906 Z M111.280273,5.88671875 L110.09082,5.88671875 C109.995117,5.52213359 109.786623,5.20996224 109.465332,4.95019531 C109.144041,4.69042839 108.719078,4.56054688 108.19043,4.56054688 C107.529619,4.56054688 107.004396,4.80663816 106.614746,5.29882812 C106.225096,5.79101809 106.030273,6.45409739 106.030273,7.28808594 C106.030273,8.14030374 106.226235,8.81705479 106.618164,9.31835938 C107.010093,9.81966396 107.534176,10.0703125 108.19043,10.0703125 C108.687177,10.0703125 109.100747,9.95865997 109.431152,9.73535156 C109.761558,9.51204315 109.981445,9.19303593 110.09082,8.77832031 L111.280273,8.77832031 C111.175455,9.45280285 110.856448,10.0133441 110.323242,10.4599609 C109.790036,10.9065778 109.081385,11.1298828 108.197266,11.1298828 C107.167313,11.1298828 106.345869,10.7823928 105.73291,10.0874023 C105.119951,9.39241189 104.813477,8.45931575 104.813477,7.28808594 C104.813477,6.1396427 105.118812,5.22135761 105.729492,4.53320312 C106.340172,3.84504864 107.160477,3.50097656 108.19043,3.50097656 C109.088221,3.50097656 109.802569,3.73453542 110.333496,4.20166016 C110.864423,4.66878489 111.180013,5.23046547 111.280273,5.88671875 Z"></path>
            </g>
        </g>
    </g>
</svg>