<svg width="100" height="100" xmlns="http://www.w3.org/2000/svg"><g fill-rule="nonzero" fill="none"><path d="M4 29v66.399a4.175 4.175 0 0 0 4.163 4.163h83.259a4.175 4.175 0 0 0 4.163-4.163V29H4z" fill-opacity=".15" fill="#FFF"/><g transform="translate(41.095 82.105)" fill="#1D1D63"><ellipse cx="2.521" cy="2.471" rx="2.386" ry="2.343"/><ellipse cx="19.222" cy="2.471" rx="2.386" ry="2.343"/></g><path d="M62.57 83.737H41.861c-.832 0-1.589-.445-2.026-1.19a2.609 2.609 0 0 1-.105-2.442l1.818-3.832c.295-.62 1.01-.871 1.6-.561.588.31.826 1.064.532 1.684l-1.819 3.83h20.71c.658 0 1.19.563 1.19 1.256 0 .693-.532 1.255-1.19 1.255zM64.571 67.389H60.03l.44-4.907-2.42-.222-.459 5.129h-3.947v-4.915h-2.429v4.915h-3.796l-.926-5.678-2.395.4.86 5.278h-4.671v2.457h5.072l1.067 6.549 2.395-.4-1.002-6.149h3.396v6.144h2.429v-6.144h3.727l-.434 4.856 2.419.222.454-5.078h4.762z" fill="#EDEBED"/><path d="M44.473 78.026c-1.611 0-3.04-1.076-3.494-2.69l-4.167-14.85-3.27-2.22a1.25 1.25 0 0 1-.338-1.715 1.2 1.2 0 0 1 1.684-.343l3.272 2.22c.453.309.79.76.958 1.282l.008.001 26.714 1.236c.355.017.683.19.901.473.219.284.305.651.235 1.005l-1.909 9.721c-.414 2.107-2.1 3.69-4.195 3.942L44.908 78a3.653 3.653 0 0 1-.435.026zm-4.65-15.807l3.492 12.437c.163.586.705.96 1.309.889l15.963-1.913a2.442 2.442 0 0 0 2.099-1.97l1.632-8.31-24.494-1.133z" fill="#FFF"/><path d="M37.423 60.895c-.236 0-.475-.072-.687-.222l-3.183-2.255c-.57-.403-.725-1.223-.344-1.83.38-.606 1.148-.772 1.722-.365l3.182 2.254c.571.404.726 1.224.345 1.83a1.221 1.221 0 0 1-1.035.588z" fill="#FFC400"/><path d="M91.585 0H8.325a4.175 4.175 0 0 0-4.162 4.163v14.57h91.585V4.163A4.175 4.175 0 0 0 91.585 0z" fill="#F2F2F2"/><circle fill="#00DA00" cx="38.507" cy="9.367" r="3.122"/><circle fill="#FFC400" cx="26.435" cy="9.367" r="3.122"/><circle fill="#FF4C56" cx="14.362" cy="9.367" r="3.122"/><path d="M95.748 31.43v12.281C94.082 44.96 92 45.584 89.92 45.584c-5.62 0-9.992-4.37-9.992-9.99 0 5.411-4.579 9.99-9.99 9.99-5.412 0-9.992-4.37-9.992-9.99 0 5.411-4.579 9.99-9.99 9.99-5.412 0-9.992-4.37-9.992-9.99 0 5.411-4.37 9.99-9.99 9.99s-9.992-4.37-9.992-9.99c0 5.411-4.579 9.99-9.99 9.99-2.29 0-4.164-.624-5.829-1.873v-12.28h91.585z" fill-opacity=".1" fill="#E4EAEF"/><path fill="#FF4C56" d="M19.982 29.349H0l4.163-10.616H22.48z"/><path fill="#CDD6E0" d="M39.964 29.349H19.982l2.498-10.616h18.317z"/><path fill="#FF4C56" d="M59.946 29.349H39.964l.833-10.616h18.317z"/><path fill="#CDD6E0" d="M79.928 29.349H59.946l-.832-10.616H77.43z"/><path fill="#FF4C56" d="M99.91 29.349H79.929l-2.497-10.616h18.317z"/><g fill="#ACB3BA"><path d="M19.982 33.72c0 5.62 4.371 9.99 9.991 9.99 5.62 0 9.991-4.37 9.991-9.99v-4.371H19.982v4.37zM59.946 29.349v4.37c0 5.62 4.372 9.992 9.991 9.992 5.62 0 9.991-4.371 9.991-9.991v-4.371H59.946z"/></g><g fill="#F72C37"><path d="M0 33.72c0 5.62 4.371 9.99 9.991 9.99 5.62 0 9.991-4.37 9.991-9.99v-4.371H0v4.37zM39.964 33.72c0 5.62 4.371 9.99 9.991 9.99 5.62 0 9.991-4.37 9.991-9.99v-4.371H39.964v4.37zM79.928 29.349v4.37c0 5.62 4.372 9.992 9.992 9.992 5.62 0 9.99-4.371 9.99-9.991v-4.371H79.929z"/></g></g></svg>