<svg width="92" height="100" xmlns="http://www.w3.org/2000/svg"><g fill-rule="nonzero" fill="none"><g><path d="M0 18v76.388c0 2.634 1.873 4.79 4.163 4.79h83.259c2.29 0 4.163-2.156 4.163-4.79V18H0z" fill-opacity=".15" fill="#FFF"/><path d="M87.422 0H4.162A4.175 4.175 0 0 0 0 4.163v14.57h91.585V4.163A4.175 4.175 0 0 0 87.422 0z" fill="#F2F2F2"/><circle fill="#00DA00" cx="34.507" cy="9.367" r="3.122"/><circle fill="#FFC400" cx="22.435" cy="9.367" r="3.122"/><circle fill="#FF4C56" cx="10.362" cy="9.367" r="3.122"/></g><g transform="translate(22 39)"><path d="M43.2 35H4.8C2.16 35 0 32.85 0 30.222V4.778C0 2.15 2.16 0 4.8 0h38.4C45.84 0 48 2.15 48 4.778v25.444C47.999 32.85 45.839 35 43.2 35z" fill="#FF4C56"/><path fill="#FFF" d="M18 9l15 8.5L18 26zM2 41h44v1H2z"/><circle fill="#FF4C56" cx="37" cy="42" r="3"/></g></g></svg>