<svg width="92" height="100" xmlns="http://www.w3.org/2000/svg"><g fill-rule="nonzero" fill="none"><g><path d="M0 18v76.388c0 2.634 1.873 4.79 4.163 4.79h83.259c2.29 0 4.163-2.156 4.163-4.79V18H0z" fill-opacity=".15" fill="#FFF"/><path d="M87.422 0H4.162A4.175 4.175 0 0 0 0 4.163v14.57h91.585V4.163A4.175 4.175 0 0 0 87.422 0z" fill="#F2F2F2"/><circle fill="#00DA00" cx="34.507" cy="9.367" r="3.122"/><circle fill="#FFC400" cx="22.435" cy="9.367" r="3.122"/><circle fill="#FF4C56" cx="10.362" cy="9.367" r="3.122"/></g><g transform="translate(13 45)"><ellipse fill="#FFF" cx="51.078" cy="7.764" rx="7.725" ry="7.764"/><g fill="#002833"><path d="M50.75 33.776l-7.463-16.241s-7.83.105-7.83 7.341v8.9H50.75zM51.458 33.776l7.463-16.241s7.83.105 7.83 7.341v8.9H51.457z"/></g><path fill="#00A5B9" d="M51.038 17.495h-5.386l5.386 11.963 5.36-11.963z"/><ellipse fill="#FFF" cx="15.935" cy="7.764" rx="7.725" ry="7.764"/><g fill="#002833"><path d="M15.542 33.776L8.079 17.535S.25 17.64.25 24.876v8.9h15.293zM16.25 33.776l7.463-16.241s7.83.105 7.83 7.341v8.9H16.25z"/></g><path fill="#FFCB53" d="M15.87 17.495h-5.36l5.36 11.963 5.386-11.963z"/></g></g></svg>