<svg width="792" height="800" xmlns="http://www.w3.org/2000/svg" xmlns:xlink="http://www.w3.org/1999/xlink"><defs><path id="a" d="M0 0h883v800H0z"/><rect id="c" x=".232" y=".466" width="144.767" height="89.391" rx="2.71"/><path id="e" d="M.493.716h145.503v91.075H.493z"/></defs><g transform="translate(-20)" fill="none" fill-rule="evenodd"><mask id="b" fill="#fff"><use xlink:href="#a"/></mask><g mask="url(#b)"><g transform="translate(37.506 -8.452)"><path fill="#F49088" fill-rule="nonzero" d="M47.9 493.333V60.423L825.802.181l28.762 505.12z"/><path d="M.483 484.911h49.87a5.442 5.442 0 0 1-5.437 5.445H5.922a5.442 5.442 0 0 1-5.439-5.445z" fill="#BC7789" fill-rule="nonzero"/><g transform="translate(213.5 23.013)"><g transform="translate(149.42 205.56)"><mask id="d" fill="#fff"><use xlink:href="#c"/></mask><use fill="#3E9C7B" fill-rule="nonzero" xlink:href="#c"/><g mask="url(#d)"><path d="M57.152 78.776c-.544-.726-1.138-1.412-1.611-2.178a2.422 2.422 0 0 1 .906-2.935c.363-.191.524 0 .554.333.03.333 0 .746.11 1.1a3.024 3.024 0 0 0 2.015 2.218c1.007.413 10.151 4.8 11.37 5.546 2.014 1.23 4.028 2.4 6.042 3.69 2.014 1.291 6.566 4.034 8.39 5.304.452.323-2.458-.847-2.911-.524-1.42 1.008-2.85 1.926-4.26 2.914-.564.393-.353.282-.886.696-.534.413-.383 1.623-.877 1.18-1.62-1.493-4.33-3.711-6.042-5.143a30.407 30.407 0 0 0-3.021-2.259c-1.007-.675-1.39-.595-2.327.182-.24.204-.504.38-.785.524-1.28.635-2.548 1.28-3.847 1.876a8.351 8.351 0 0 1-1.742.564 1.137 1.137 0 0 1-1.47-1.008.766.766 0 0 0-.534-.423c-.585-.101-1.008-.222-1.008-1.009 0-.161-.302-.353-.513-.464-.212-.11-.363 0-.544-.08a1.007 1.007 0 0 1-.574-1.674c.093-.092.18-.19.262-.293.11-.181 0-.171-.212-.09-1.46.645-2.96-1.19-1.853-1.795.343-.182.655-.414 1.007-.615 1.531-.928 3.092-1.826 4.593-2.804 1.007-.655 1.067-1.33.342-2.289-.211-.12-.393-.342-.574-.544z" fill="#9B5460" fill-rule="nonzero"/><path d="M98.764 82.356L90.9 93.87a1.66 1.66 0 0 1-2.074.313l-9.92-5.9-5.992 5.194 16.828 14.58a2.104 2.104 0 0 0 3.021.091l19.8-16.769-13.798-9.024zM103.7 8.16a15.962 15.962 0 0 0-9.578 9.54c-.05.342-.212.675-.282 1.008-.09.504-.151 1.008-.212 1.522-.07.453-.325.855-.705 1.11-.681.512-1.402.97-2.155 1.37l-2.014 1.14c-.346.21-.532.608-.473 1.009.058.566.295 1.099.675 1.522.21.253.399.523.563.807a.727.727 0 0 1-.13 1.008 4.846 4.846 0 0 1-.776.656.655.655 0 0 0-.262 1.008c.189.397.448.756.766 1.059l.12.131v.07a8.14 8.14 0 0 0-.775.293 1.301 1.301 0 0 0-.695 1.341c.1.25.259.472.463.646.181.189.373.367.574.534-.09.393-.17.787-.282 1.18a6.704 6.704 0 0 0-.2 1.633c-.01.39.045.778.16 1.15.153.509.521.926 1.007 1.14 1.007.524 2.155.877 3.243 1.3.494.192 1.007.383 1.48.565a10.62 10.62 0 0 1 1.702.857c.282.161 16.114 14.873 16.114 13.683v-4.527c.07-1.059.15-2.118.241-3.177.06-.705.121-1.411.202-2.107.08-.696.171-1.16.272-1.755.312 0 .604-.07.896-.08a9.597 9.597 0 0 0 2.96-.615 7.954 7.954 0 0 0 2.921-1.836c.454-.484-15.317-33.316-15.82-33.185z" fill="#9B5460" fill-rule="nonzero"/><path d="M95.3 69.166s-4.924 7.906-7.05 11.223c-2.124 3.318-.463 8.622 2.015 10.86 2.477 2.239 6.334 1.362 6.536 3.923.201 2.561-.353 27.498-.172 29.777.182 2.279 30.898-2.44 30.898-2.44s-.756-32.117-.756-37.683a350.11 350.11 0 0 0-2.689-41.141S110.406 62.955 95.3 69.166z" fill="#EEB51E" fill-rule="nonzero"/><path d="M95.854 41.8c.23.13.447.286.645.463 1.158 1.008 3.444 3.771 3.152 10.084-.393 8.38-5.338 16.85-5.338 16.85l28.31-11.647a25.187 25.187 0 0 0-7.272-6.383c-4.572-2.622-8.731-7.724-8.731-7.724" fill="#9B5460" fill-rule="nonzero"/><path d="M128.836 44.794c6.697-41.242-17.12-39.649-27.594-36.795 0 0-4.572 1.815-5.036 5.042-.463 3.226 2.528 7.129 4.855 9.66.42.46.863.898 1.329 1.31.392.346.765.713 1.118 1.1a4.599 4.599 0 0 1 5.65-1.573 4.61 4.61 0 0 1-2.065 8.813c.55 2.011.713 4.109.483 6.181-.282 2.017-1.691 2.219-3.454 4.034-2.86 3.025-1.672 7.744 2.266 10.275 4.18 2.692 4.028-.565 8.731-.162 8.994.777 10.998 13.442 10.998 13.442a18.211 18.211 0 0 0 6.959-10.003c2.064-6.917-4.774-8.047-4.24-11.324zM66.91 25.474l-.735 4.78a.444.444 0 0 1-.18.292.443.443 0 0 1-.343.07l-15.278-2.914a.444.444 0 0 1-.352-.504l.564-3.68a.443.443 0 0 1 .493-.373l8.319 1.008 6.042.716 1.007.12a.443.443 0 0 1 .393.515l.07-.03zM72.309 25.534l-.957 6.232a5.9 5.9 0 0 0 11.245-1.459 5.91 5.91 0 0 0-3.352-6.259 5.896 5.896 0 0 0-6.936 1.486z" fill="#231D42" fill-rule="nonzero"/><path fill="#231D42" fill-rule="nonzero" d="M71.352 31.796l-6.083-1.24.866-5.647 6.174.645z"/><path d="M65.843 22.358c.183.255.275.564.262.877v3.852a3.028 3.028 0 0 1-.322 1.462 1.912 1.912 0 0 1-2.014.827 1.411 1.411 0 0 1-1.098-1.422v-4.78a1.721 1.721 0 1 1 3.192-.837l-.02.021zM56.497 25.867c-.024-.41-.024-.82 0-1.23a1.555 1.555 0 1 1 3.102.212v.907a1.574 1.574 0 0 1-1.56 1.614 1.552 1.552 0 0 1-1.542-1.503z" fill="#9B5460" fill-rule="nonzero"/><path d="M68.633 27.551a1.49 1.49 0 0 1-2.014.524 1.876 1.876 0 0 1-.937-1.734c0-.686 0-1.381.08-2.067.001-.72.385-1.385 1.008-1.745.192-.115.41-.18.634-.191.206 0 .41.035.604.1a1.815 1.815 0 0 1 1.108 1.785c0 .706 0 1.412-.07 2.118a2.2 2.2 0 0 1-.413 1.21zM62.359 28.56a1.49 1.49 0 0 1-2.015.524 1.876 1.876 0 0 1-.936-1.735c0-.685 0-2.35.08-3.025.001-.72.385-1.384 1.008-1.744.192-.115.41-.181.634-.192.206.001.41.035.604.101a1.815 1.815 0 0 1 1.118 1.785c0 .706 0 2.38-.07 3.085a2.2 2.2 0 0 1-.423 1.2z" fill="#9B5460" fill-rule="nonzero"/><path d="M69.036 26.341c.46 2.353.647 4.753.553 7.15-.312 2.651-12.669 1.542-12.669 1.542s-1.691-3.64-.372-10.396l12.488 1.704z" fill="#9B5460" fill-rule="nonzero"/><path d="M99.328 59.234L80.395 65.97c-.443-2.239-5.317-8.279-7.462-11.677-2.145-3.398-3.122-8.763-3.817-10.73-.695-1.965-.554-3.488 0-6.433a45.24 45.24 0 0 0 .635-6.231l-13.737.151s1.007 6.423 3.021 8.48c2.014 2.057 1.43 6.05 3.142 12.716 4.029 15.76 6.335 20.722 13.676 27.982a4.025 4.025 0 0 0 3.737 1.069c4.844-1.14 20.766-5.395 30.05-10.497 4.915-2.703 8.259-5.89 5.792-10.286-2.931-5.132-10.665-3.509-16.104-1.28z" fill="#9B5460" fill-rule="nonzero"/><path d="M91.725 61.835l7.674 13.936s22.156-6.242 16.838-15.428c-5.317-9.186-24.512 1.492-24.512 1.492zM126.852 92.64v8.38c0 4.034 8.66 11.425 8.66 20.601 0 9.771-39.013 0-39.013 0l30.353-28.98z" fill="#EEB51E" fill-rule="nonzero"/><path d="M96.74 100.607v9.388c0 4.9-1.319 11.626-3.152 11.626h10.02l3.737-6.937-10.605-14.077z" fill="#EEB51E" fill-rule="nonzero"/><path d="M50.284 25.534s-12.941-3.156-24.27 4.457C9.698 40.952 16.546 70.477 52.76 84.544c38.52 14.964 27.191 37.117 27.191 37.117" stroke="#231D42" stroke-width="1.18" stroke-linecap="round" stroke-linejoin="round"/><path d="M51.754 85.118s-4.612 2.773-5.468 3.278c-.856.504-.725 2.016 1.671 1.008 2.397-1.008 5.65-2.52 5.65-2.52l-1.853-1.766zM55.289 89.061s3.021-3.58 3.444-4.185c.423-.605.05-2.016-1.269-.796l-3.726 3.469 1.55 1.512z" fill="#9B5460" fill-rule="nonzero"/><path d="M57.031 90.332s1.773-2.622 2.216-3.227c.443-.605.05-2.017-1.27-.797-1.318 1.22-2.487 2.511-2.487 2.511l1.541 1.513z" fill="#9B5460" fill-rule="nonzero"/><path d="M58.119 91.975s1.752-2.662 2.195-3.257c.443-.595.05-2.016-1.269-.796s-2.467 2.55-2.467 2.55l1.54 1.503z" fill="#9B5460" fill-rule="nonzero"/></g></g><path d="M275.708 228.725h-21.925a5.039 5.039 0 0 1-5.035-5.042 5.039 5.039 0 0 1 5.035-5.042h21.884a5.039 5.039 0 0 1 5.036 5.042 5.039 5.039 0 0 1-5.036 5.042h.04z" fill="#D89684" fill-rule="nonzero"/><path fill="#BBBDBF" fill-rule="nonzero" style="mix-blend-mode:multiply" d="M120.396 325.245L342.92 476.711l14.38-90.57-1.892-60.603z"/><path fill="#523141" fill-rule="nonzero" d="M352.024 321.676h12.991v53.373h-12.991z"/><rect fill="#523141" fill-rule="nonzero" x="76.8" y="311.562" width="319.002" height="13.683" rx="6.79"/><g style="mix-blend-mode:multiply" transform="translate(322.265 250.162)" fill-rule="nonzero"><rect fill="#DDE3F0" x="13.233" y=".071" width="19.698" height="29.061" rx="3.7"/><path d="M28.46 8.874a5.348 5.348 0 0 0-1.279-3.449 1.61 1.61 0 0 0-1.239-.564h-5.74c-.482 0-.94.214-1.249.584a5.348 5.348 0 0 0-1.239 3.45 5.348 5.348 0 0 0 1.25 3.417c.326.384.805.602 1.308.595h5.68a1.67 1.67 0 0 0 1.28-.605 5.348 5.348 0 0 0 1.228-3.428zM28.46 20.752a5.348 5.348 0 0 0-1.279-3.448 1.61 1.61 0 0 0-1.239-.565h-5.74c-.482 0-.94.215-1.249.585a5.348 5.348 0 0 0-1.239 3.449 5.348 5.348 0 0 0 1.25 3.418c.326.383.805.601 1.308.595h5.68a1.67 1.67 0 0 0 1.28-.605 5.348 5.348 0 0 0 1.228-3.429z" fill="#C8DEE1"/><path fill="#E1FFFF" d="M20.625 6.091h1.601v2.803h-1.601zM23.938 6.091h1.601v2.803h-1.601zM22.226 10.397h1.601V12h-1.601zM26.567 20.773a3.485 3.485 0 0 0-6.904-.678 3.49 3.49 0 0 0 2.422 4.015v6.887c0 8.067-5.549 8.793-10.745 8.793H1.33a1.008 1.008 0 0 0 0 2.017h10.01c3.806 0 12.709 0 12.709-10.76v-6.876a3.488 3.488 0 0 0 2.518-3.398z"/></g><g transform="translate(201.237 51.606)" fill-rule="nonzero"><path d="M68.992 109.427l.171-.645.192-.766.171-.676.191-.796.162-.716c.12-.511.238-1.032.352-1.563l.181-.817.171-.827.182-.847.171-.867.171-.877.171-.888.172-.928.16-.927.172-1.009.161-1.008.161-1.008.151-1.009.161-1.008.151-1.008.162-1.11.14-1.008.152-1.17.14-1.008.152-1.23.13-1.07.152-1.32c.05-.444.08-.696.12-1.008.04-.313.101-1.009.162-1.493 0-.322.07-.645.1-1.008.06-.645.131-1.311.192-2.017l.05-.575c.08-.853.158-1.724.232-2.611 0-.313.05-.636.08-.958 0-.585.1-1.17.141-1.775 0-.373.06-.766.08-1.15 0-.554.081-1.099.122-1.663.04-.565.05-.827.08-1.25.03-.424.07-1.1.111-1.664.04-.565.05-.868.08-1.301.03-.434.061-1.12.091-1.684.03-.565 0-.908.07-1.372.071-.463.061-1.139.081-1.714.02-.575 0-.938.06-1.411.061-.474.051-1.17.071-1.765.02-.595 0-1.008.06-1.462.061-.454 0-1.21.061-1.815.06-.605 0-1.009 0-1.493 0-.484 0-1.27.05-1.905.05-.636 0-1.009 0-1.493v-2.017-1.482-2.158-1.462-2.45-1.25-3.802a20.456 20.456 0 0 0-16.082-8.359A20.454 20.454 0 0 0 43.2 33.457v9.973l-.05 1.432v17.142c0 .551.016 1.106.05 1.664v.363c0 .45.017.9.05 1.351v.565c0 .423.02.847.06 1.27v.495c0 .584.031 1.17.091 1.754v.272c0 .505.03 1.009.091 1.513v.554c0 .437.027.878.08 1.321v.515c.041.605.085 1.21.132 1.815v.171c.04.545.084 1.093.13 1.644v.554l.121 1.352v.534a166.3 166.3 0 0 0 .363 3.66l.06.535c.047.457.098.91.151 1.361l.06.555c.068.585.138 1.17.212 1.754v.152l.242 1.835.07.514c.06.457.125.91.192 1.361l.08.545c.081.538.165 1.075.252 1.613v.212c.094.605.195 1.207.302 1.805l.08.484.243 1.341.1.545c.094.497.192.994.292 1.492l.06.292.363 1.755.101.444c.094.437.191.873.292 1.31l.12.535c.108.457.22.91.333 1.361l.09.353c.142.558.286 1.116.434 1.674l.11.383c.115.43.232.854.353 1.27l.141.505c.121.423.249.84.383 1.25l.11.373c.168.531.34 1.052.514 1.563l.111.323c.141.41.282.817.423 1.22l.171.464c.141.383.286.763.433 1.14l.141.372c.195.485.393.965.594 1.442l.111.253c.168.39.34.773.514 1.15l.201.423.484 1.008.18.363c.222.437.447.867.676 1.29l.1.172c.202.363.403.72.605 1.069l.221.373.544.867.211.333c.252.383.504.756.766 1.12l.07.09c.242.333.484.655.735 1.008l.252.313.615.726.251.292c.282.313.574.626.866.918h.06l.071-.06.091-.081.1-.09.061-.051.121-.111.06-.06.131-.142.07-.07.152-.162.07-.07.172-.202.06-.07.201-.243v-.06l.252-.333c.282-.373.574-.797.896-1.29l.303-.475.06-.09.272-.464.08-.131.262-.464.746-.524.261-.484.101-.202.262-.504.11-.222.263-.535.11-.232.262-.584.111-.242.272-.626.11-.252.283-.685.1-.252.302-.767.091-.232.332-.897.06-.161c.404-1.11.807-2.31 1.21-3.61v-.111l.362-1.2.09-.323.303-1.059v-.201l.12-.434.252-.787zM33.876 23.606c.1-9.297-3.364-22.618-16.557-22.77C4.126.687.36 13.947.26 23.234V37.914c0 1.526.03 3.022.09 4.488v.322c0 5.042.696 15.63.696 15.63.483 6.985 1.155 13.119 2.014 18.403.228 1.485.473 2.907.735 4.265v.09c.249 1.345.51 2.609.786 3.792v.141c.268 1.183.547 2.31.836 3.378v.152c.288 1.055.587 2.063.896 3.025v.13c.16.475.312.928.473 1.382l.07.202.071.202.06.16.071.203v.11l.1.253.091.201c.31.767.625 1.482.947 2.148v.06c.322.673.658 1.288 1.007 1.846.161.269.322.528.484.776.31.479.646.94 1.007 1.382l.07.08c.161.202.332.384.504.565.174.182.352.353.533.514l.07.06.454.384.1.07c.317.247.654.467 1.008.656l.13.06.444.192h.1l.534.161h.121l.423.081h.151c.181.01.363.01.544 0h1.923l.494-.08h.11l.384-.081h.16l.343-.101h.151l.453-.161.474-.212.13-.07.343-.182.151-.091.352-.222.121-.08.454-.333.08-.07.373-.313.14-.132.323-.302.14-.141.394-.424v-.05c.14-.172.292-.343.433-.535l.12-.16.313-.424.07-.091.192-.272v-.06l.17-.253.071-.1.151-.243.081-.13.14-.243.243-.11.14-.253.101-.171.141-.283.091-.181.161-.323.08-.161.232-.515.161-.413v-.131l.141-.373v-.05c.151-.364.292-.747.433-1.14l.081-.222c.151-.413.292-.837.443-1.28l.05-.172c.135-.423.27-.86.403-1.31l.05-.182c.142-.491.28-.999.414-1.523v-.1l.06-.233.211-.867.101-.403.212-.908.09-.413.212-1.008.08-.394c.08-.383.151-.766.232-1.17l.05-.272c.188-1.008.373-2.06.554-3.156v-.202c.074-.47.148-.954.222-1.452l.07-.453.182-1.281.07-.544c.054-.417.11-.84.171-1.271l.07-.595c.054-.43.108-.87.162-1.32l.07-.596c.05-.474.111-.948.162-1.432l.06-.554c.06-.545.11-1.1.171-1.664v-.393c.141-1.426.275-2.911.403-4.457v-.363l.151-1.936v-.676c0-.575.08-1.15.12-1.734v-.474c.182-2.693.504-8.622.504-8.622.111-2.289.212-4.648.292-7.129v-.423-1.13-1.472-1.09c0-.806 0-1.623.071-2.45v-.917V33.8v-1.2-1.623-1.21V27.7v-1.493-2.44l.645-.161z" fill="#FFF"/><path d="M68.66 110.597c3.766-13.633 7.281-36.946 7.281-76.474l-.372-.484a20.444 20.444 0 0 0-16.017-7.88 20.444 20.444 0 0 0-16.1 7.709s-.281 4.406-.402 11.384c-.383 21.77.755 68.498 16.556 84.31 0 0 4.673-2.824 9.014-18.474v-.1l.04.01z" fill="#FFF"/><path d="M75.961 34.123a20.516 20.516 0 0 0-16.083-8.32 20.514 20.514 0 0 0-16.405 7.665s-4.713 74.82 16.113 95.723c0 0 16.335-9.861 16.335-95.068h.04z" fill="#FFF"/><path d="M74.49 73.419l.897-13.754.323-14.793.241-10.749a20.456 20.456 0 0 0-16.082-8.359 20.454 20.454 0 0 0-16.406 7.704l-.423 11.394.161 14.793.614 13.683 12.82 7.906 2.73 1.502L74.49 73.42z" fill="#FFF" opacity=".69" style="mix-blend-mode:multiply"/><path d="M74.49 73.419a19.322 19.322 0 0 1-12.749 7.835 19.322 19.322 0 0 1 12.75-7.835zM43.825 73.348a18.993 18.993 0 0 0 5.54 5.234 20.558 20.558 0 0 0 7.29 2.672 20.585 20.585 0 0 0-5.68-5.294 19.522 19.522 0 0 0-7.15-2.612z" fill="#FFF"/><path d="M59.334 120.177c-5.267 0-9.547-9.55-9.547-9.55s4.27-9.559 9.547-9.559c5.278 0 9.326 9.55 9.326 9.55s-4.028 9.559-9.326 9.559z" fill="#FFF" opacity=".47"/><path d="M53.332 110.456l.504-.121c.322-.07.785-.161 1.34-.232a29.259 29.259 0 0 1 4.028-.252c1.347 0 2.692.087 4.028.262.554.07 1.007.161 1.34.222l.503.121a.171.171 0 0 1 0 .333l-.504.12c-.322.071-.785.152-1.34.223a30.798 30.798 0 0 1-4.027.262 29.27 29.27 0 0 1-4.029-.252 16.065 16.065 0 0 1-1.34-.232l-.503-.121a.171.171 0 0 1 0-.333zM61.772 90.853a4.588 4.588 0 0 1 3.212 4.397h-4.592s1.007-2.934 1.249-3.58c.084-.264.128-.54.13-.817zM56.515 90.853a4.588 4.588 0 0 0-3.213 4.397h4.592s-1.007-2.934-1.248-3.58a2.806 2.806 0 0 1-.131-.817z" fill="#FFF"/><path d="M62.094 90.753c0 1.633-2.95 8.218-2.95 8.218s-2.952-6.585-2.952-8.218l3.283-64.929 2.619 64.929zM64.89 88.273l1.161-1.16 4.984 4.983-1.161 1.161zM64.886 83.783l1.161-1.161 4.984 4.983-1.161 1.161zM47.213 92.17l4.978-4.978 1.162 1.163-4.977 4.977zM47.21 87.667l4.977-4.977 1.162 1.163-4.977 4.977zM28.598 88.927c1.733-6.705 3.122-16.325 4.029-30.029v-.322c.174-2.622.332-5.395.473-8.32v-.322c0-.464.02-.931.06-1.402V45.67c0-.908.071-1.825.101-2.753a785.65 785.65 0 0 0 .423-18.514V23.566c.1-9.298-3.363-22.618-16.556-22.77C3.935.647.168 13.907.068 23.193c-.074 6.87-.037 13.257.11 19.16V42.925c0 .598.018 1.19.051 1.775v4.779l.504 8.975c1.097 15.8 3.152 27.226 5.83 34.587.172.494.313.907.424 1.16l.09.2c2.498 6.233 5.479 9.207 8.711 9.248 3.022 0 5.781-.878 8.248-4.467a17.38 17.38 0 0 0 1.884-3.358c.11-.263.231-.595.372-1.009a47.709 47.709 0 0 0 1.924-5.98l.382.091z" fill="#FFF"/><path d="M33.876 23.606c-.796 71.15-8.43 80.225-17.705 80.124C6.896 103.63-.375 79.257.26 23.192.36 13.895 4.126.655 17.32.797c13.193.14 16.657 13.512 16.557 22.809z" fill="#FFF"/><path d="M33.473 42.956l-14.563-.14.504 7.058.624 8.672h.09l12.55.14c.18-2.692.503-8.62.503-8.62.1-2.26.231-4.63.292-7.11z" fill="#FFF" opacity=".69" style="mix-blend-mode:multiply"/><path fill="#FFF" style="mix-blend-mode:multiply" d="M.33 42.593h.04z"/><path d="M14.58 42.734l-14.2-.14c0 4.97.695 15.79.695 15.79l12.196.101.695-8.621.614-7.13z" fill="#FFF" opacity=".69" style="mix-blend-mode:multiply"/><path d="M10.34 99.919s6.546-10.397 13.334.272a16.047 16.047 0 0 0 2.618-4.296c.745-1.754 2.306-6.978 2.306-6.978C16.634 72.41 5.375 87.99 5.375 87.99s1.46 5.041 2.014 6.282a47.414 47.414 0 0 0 2.951 5.647z" fill="#FFF" opacity=".27"/><ellipse fill="#FFF" transform="rotate(-89.36 8.213 34.122)" cx="8.213" cy="34.122" rx="4.965" ry="7.028"/><path d="M13.22 34.284a1.3 1.3 0 0 1-1.309 1.28l-7.341-.08a1.3 1.3 0 0 1-1.28-1.31 1.3 1.3 0 0 1 1.31-1.281l7.341.08a1.3 1.3 0 0 1 1.28 1.311z" fill="#FFF"/><ellipse fill="#FFF" transform="rotate(-89.36 25.272 34.327)" cx="25.272" cy="34.327" rx="4.965" ry="7.028"/><path d="M30.27 34.496a1.3 1.3 0 0 1-1.309 1.28l-7.342-.08a1.3 1.3 0 0 1-1.279-1.31 1.3 1.3 0 0 1 1.31-1.281l7.341.08a1.3 1.3 0 0 1 1.28 1.311zM17.762 92.084a1.62 1.62 0 0 1-2.286 0l-2.729-2.138a1.625 1.625 0 0 1 0-2.29l2.79-3.367a1.62 1.62 0 0 1 2.286 0l2.709 3.428a1.625 1.625 0 0 1 0 2.29l-2.77 2.077z" fill="#FFF"/><path d="M14.167 89.119a2.491 2.491 0 0 1 1.222-2.271 2.485 2.485 0 0 1 2.576.031 2.492 2.492 0 0 1 1.167 2.3l-4.965-.06z" fill="#FFF"/><ellipse fill="#FFF" transform="rotate(-89.36 23.174 46.299)" cx="23.174" cy="46.299" rx="1.46" ry="1.462"/><ellipse fill="#FFF" transform="rotate(-89.36 29 46.36)" cx="28.999" cy="46.361" rx="1.46" ry="1.462"/><ellipse fill="#FFF" transform="rotate(-89.36 26.157 54.274)" cx="26.157" cy="54.274" rx="1.46" ry="1.462"/><ellipse fill="#FFF" transform="rotate(-89.36 10.718 46.166)" cx="10.718" cy="46.166" rx="1.46" ry="1.462"/><ellipse fill="#FFF" transform="rotate(-89.36 4.882 46.094)" cx="4.882" cy="46.094" rx="1.46" ry="1.462"/><ellipse fill="#FFF" transform="rotate(-89.36 7.54 54.068)" cx="7.54" cy="54.068" rx="1.46" ry="1.462"/><ellipse fill="#FFF" transform="rotate(-89.36 17.177 10.393)" cx="17.177" cy="10.393" rx="8.339" ry="8.349"/><ellipse fill="#FFF" transform="rotate(-89.36 17.167 10.393)" cx="17.167" cy="10.393" rx="6.163" ry="6.171"/><path d="M18.618 34.365c.333 3.52.615 7.059.917 10.558l.221 2.641.202 2.642.413 5.284c.272 3.52.554 7.059.805 10.568l.756 10.578a4.038 4.038 0 0 1-.484 2.016 3.547 3.547 0 0 1-1.52 1.412 5.946 5.946 0 0 1-1.854.544c-.61.08-1.227.107-1.842.081a8.972 8.972 0 0 1-1.853-.242 4.811 4.811 0 0 1-1.803-.837 3.388 3.388 0 0 1-1.178-1.724 4.17 4.17 0 0 1-.172-1.008v-.938l1.138-13.906 1.219-13.905c.201-2.32.433-4.628.644-6.947.212-2.32.433-4.629.675-6.948l3.716.131z" fill="#FFF"/><path d="M68.66 110.597c3.766-13.633 7.281-36.946 7.281-76.474l-.372-.484a20.444 20.444 0 0 0-16.017-7.88 20.444 20.444 0 0 0-16.1 7.709s-.281 4.406-.402 11.384c-.383 21.77.755 68.498 16.556 84.31 0 0 4.673-2.824 9.014-18.474v-.1l.04.01z" fill="#F29400"/><path d="M75.961 34.123a20.516 20.516 0 0 0-16.083-8.32 20.514 20.514 0 0 0-16.405 7.665s-4.713 74.82 16.113 95.723c0 0 16.335-9.861 16.335-95.068h.04z" fill="#EAA898"/><path d="M74.49 73.419l.897-13.754.323-14.793.241-10.749a20.456 20.456 0 0 0-16.082-8.359 20.454 20.454 0 0 0-16.406 7.704l-.423 11.394.161 14.793.614 13.683 12.82 7.906 2.73 1.502L74.49 73.42z" fill="#BCBEC0" opacity=".69" style="mix-blend-mode:multiply"/><path d="M74.49 73.419a19.322 19.322 0 0 1-12.749 7.835 19.322 19.322 0 0 1 12.75-7.835zM43.705 73.147a19.68 19.68 0 0 0 5.66 5.435 20.558 20.558 0 0 0 7.29 2.672 20.585 20.585 0 0 0-5.68-5.294 22.733 22.733 0 0 0-7.27-2.813z" fill="#F4CAC1"/><path d="M59.334 120.177c-5.267 0-9.547-9.55-9.547-9.55s4.27-9.559 9.547-9.559c5.278 0 9.326 9.55 9.326 9.55s-4.028 9.559-9.326 9.559z" fill="#AA6863" opacity=".47"/><path d="M53.332 110.456l.504-.121c.322-.07.785-.161 1.34-.232a29.259 29.259 0 0 1 4.028-.252c1.347 0 2.692.087 4.028.262.554.07 1.007.161 1.34.222l.503.121a.171.171 0 0 1 0 .333l-.504.12c-.322.071-.785.152-1.34.223a30.798 30.798 0 0 1-4.027.262 29.27 29.27 0 0 1-4.029-.252 16.065 16.065 0 0 1-1.34-.232l-.503-.121a.171.171 0 0 1 0-.333z" fill="#F4CAC1"/><path d="M61.772 90.853a4.588 4.588 0 0 1 3.212 4.397h-4.592s1.007-2.934 1.249-3.58c.084-.264.128-.54.13-.817zM56.515 90.853a4.588 4.588 0 0 0-3.213 4.397h4.592s-1.007-2.934-1.248-3.58a2.806 2.806 0 0 1-.131-.817z" fill="#AA6863"/><path d="M62.094 90.753c0 1.633-2.95 8.218-2.95 8.218s-2.952-6.585-2.952-8.218l3.283-64.929 2.619 64.929z" fill="#D89684"/><path fill="#F4CAC1" d="M64.89 88.273l1.161-1.16 4.984 4.983-1.161 1.161zM64.886 83.783l1.161-1.161 4.984 4.983-1.161 1.161zM47.213 92.17l4.978-4.978 1.162 1.163-4.977 4.977zM47.21 87.667l4.977-4.977 1.162 1.163-4.977 4.977z"/><path d="M28.598 88.927c1.733-6.705 3.122-16.325 4.029-30.029v-.322c.174-2.622.332-5.395.473-8.32v-.322c0-.464.02-.931.06-1.402V45.67c0-.908.071-1.825.101-2.753a785.65 785.65 0 0 0 .423-18.514V23.566c.1-9.298-3.363-22.618-16.556-22.77C3.935.647.168 13.907.068 23.193c-.074 6.87-.037 13.257.11 19.16V42.925c0 .598.018 1.19.051 1.775v4.779l.504 8.975c1.097 15.8 3.152 27.226 5.83 34.587.172.494.313.907.424 1.16l.09.2c2.498 6.233 5.479 9.207 8.711 9.248 3.022 0 5.781-.878 8.248-4.467a17.38 17.38 0 0 0 1.884-3.358c.11-.263.231-.595.372-1.009a47.709 47.709 0 0 0 1.924-5.98l.382.091z" fill="#F29400"/><path d="M33.876 23.606c-.796 71.15-8.43 80.225-17.705 80.124C6.896 103.63-.375 79.257.26 23.192.36 13.895 4.126.655 17.32.797c13.193.14 16.657 13.512 16.557 22.809z" fill="#EAA898"/><path d="M33.473 42.956l-14.563-.14.504 7.058.624 8.672h.09l12.55.14c.18-2.692.503-8.62.503-8.62.1-2.26.231-4.63.292-7.11z" fill="#BCBEC0" opacity=".69" style="mix-blend-mode:multiply"/><path fill="#BCBEC0" style="mix-blend-mode:multiply" d="M.33 42.593h.04z"/><path d="M14.58 42.734l-14.2-.14c0 4.97.695 15.79.695 15.79l12.196.101.695-8.621.614-7.13z" fill="#BCBEC0" opacity=".69" style="mix-blend-mode:multiply"/><path d="M10.34 99.919s6.546-10.397 13.334.272a16.047 16.047 0 0 0 2.618-4.296c.745-1.754 2.306-6.978 2.306-6.978C16.634 72.41 5.375 87.99 5.375 87.99s1.46 5.041 2.014 6.282a47.414 47.414 0 0 0 2.951 5.647z" fill="#AA6863" opacity=".27"/><ellipse fill="#D89684" transform="rotate(-89.36 8.213 34.122)" cx="8.213" cy="34.122" rx="4.965" ry="7.028"/><path d="M13.22 34.284a1.3 1.3 0 0 1-1.309 1.28l-7.341-.08a1.3 1.3 0 0 1-1.28-1.31 1.3 1.3 0 0 1 1.31-1.281l7.341.08a1.3 1.3 0 0 1 1.28 1.311z" fill="#F4CAC1"/><ellipse fill="#D89684" transform="rotate(-89.36 25.272 34.327)" cx="25.272" cy="34.327" rx="4.965" ry="7.028"/><path d="M30.27 34.496a1.3 1.3 0 0 1-1.309 1.28l-7.342-.08a1.3 1.3 0 0 1-1.279-1.31 1.3 1.3 0 0 1 1.31-1.281l7.341.08a1.3 1.3 0 0 1 1.28 1.311z" fill="#F4CAC1"/><path d="M17.762 92.084a1.62 1.62 0 0 1-2.286 0l-2.729-2.138a1.625 1.625 0 0 1 0-2.29l2.79-3.367a1.62 1.62 0 0 1 2.286 0l2.709 3.428a1.625 1.625 0 0 1 0 2.29l-2.77 2.077z" fill="#D89684"/><path d="M14.167 89.119a2.491 2.491 0 0 1 1.222-2.271 2.485 2.485 0 0 1 2.576.031 2.492 2.492 0 0 1 1.167 2.3l-4.965-.06z" fill="#F4CAC1"/><ellipse fill="#F4CAC1" transform="rotate(-89.36 23.174 46.299)" cx="23.174" cy="46.299" rx="1.46" ry="1.462"/><ellipse fill="#F4CAC1" transform="rotate(-89.36 29 46.36)" cx="28.999" cy="46.361" rx="1.46" ry="1.462"/><ellipse fill="#F4CAC1" transform="rotate(-89.36 26.157 54.274)" cx="26.157" cy="54.274" rx="1.46" ry="1.462"/><ellipse fill="#F4CAC1" transform="rotate(-89.36 10.718 46.166)" cx="10.718" cy="46.166" rx="1.46" ry="1.462"/><ellipse fill="#F4CAC1" transform="rotate(-89.36 4.882 46.094)" cx="4.882" cy="46.094" rx="1.46" ry="1.462"/><ellipse fill="#F4CAC1" transform="rotate(-89.36 7.54 54.068)" cx="7.54" cy="54.068" rx="1.46" ry="1.462"/><ellipse fill="#D89684" transform="rotate(-89.36 17.177 10.393)" cx="17.177" cy="10.393" rx="8.339" ry="8.349"/><ellipse fill="#AA6863" transform="rotate(-89.36 17.167 10.393)" cx="17.167" cy="10.393" rx="6.163" ry="6.171"/><path d="M18.618 34.365c.333 3.52.615 7.059.917 10.558l.221 2.641.202 2.642.413 5.284c.272 3.52.554 7.059.805 10.568l.756 10.578a4.038 4.038 0 0 1-.484 2.016 3.547 3.547 0 0 1-1.52 1.412 5.946 5.946 0 0 1-1.854.544c-.61.08-1.227.107-1.842.081a8.972 8.972 0 0 1-1.853-.242 4.811 4.811 0 0 1-1.803-.837 3.388 3.388 0 0 1-1.178-1.724 4.17 4.17 0 0 1-.172-1.008v-.938l1.138-13.906 1.219-13.905c.201-2.32.433-4.628.644-6.947.212-2.32.433-4.629.675-6.948l3.716.131z" fill="#D89684"/></g><path d="M149.3 194.924c-4.728 0-8.561 3.838-8.561 8.571v110.013h5.227a19.947 19.947 0 0 1 17.624-10.628h144.324c6.94 0 13.31 3.841 16.556 9.982l.343.646h6.586V201.7a6.782 6.782 0 0 0-6.778-6.787l-175.322.01z" fill="#523141" fill-rule="nonzero"/><path fill="#748EA4" fill-rule="nonzero" d="M302.415 244.808h6.022v1.825h-6.022z"/><path stroke="#523141" stroke-width="1.18" d="M302.415 244.808h6.022v1.825h-6.022z"/><path fill="#748EA4" fill-rule="nonzero" d="M309.878 244.808h6.022v1.825h-6.022z"/><path stroke="#523141" stroke-width="1.18" d="M309.878 244.808h6.022v1.825h-6.022z"/><path fill="#748EA4" fill-rule="nonzero" d="M317.33 244.808h6.022v1.825h-6.022z"/><path stroke="#523141" stroke-width="1.18" d="M317.33 244.808h6.022v1.825h-6.022z"/><path fill="#748EA4" fill-rule="nonzero" d="M302.415 247.763h6.022v1.825h-6.022z"/><path stroke="#523141" stroke-width="1.18" d="M302.415 247.763h6.022v1.825h-6.022z"/><path fill="#748EA4" fill-rule="nonzero" d="M309.878 247.763h6.022v1.825h-6.022z"/><path stroke="#523141" stroke-width="1.18" d="M309.878 247.763h6.022v1.825h-6.022z"/><path fill="#748EA4" fill-rule="nonzero" d="M317.33 247.763h6.022v1.825h-6.022z"/><path stroke="#523141" stroke-width="1.18" d="M317.33 247.763h6.022v1.825h-6.022z"/><path fill="#748EA4" fill-rule="nonzero" d="M302.415 250.717h6.022v1.825h-6.022z"/><path stroke="#523141" stroke-width="1.18" d="M302.415 250.717h6.022v1.825h-6.022z"/><path fill="#748EA4" fill-rule="nonzero" d="M309.878 250.717h6.022v1.825h-6.022z"/><path stroke="#523141" stroke-width="1.18" d="M309.878 250.717h6.022v1.825h-6.022z"/><path fill="#748EA4" fill-rule="nonzero" d="M317.33 250.717h6.022v1.825h-6.022z"/><path stroke="#523141" stroke-width="1.18" d="M317.33 250.717h6.022v1.825h-6.022z"/><path fill="#748EA4" fill-rule="nonzero" d="M302.415 253.672h6.022v1.825h-6.022z"/><path stroke="#523141" stroke-width="1.18" d="M302.415 253.672h6.022v1.825h-6.022z"/><path fill="#748EA4" fill-rule="nonzero" d="M309.878 253.672h6.022v1.825h-6.022z"/><path stroke="#523141" stroke-width="1.18" d="M309.878 253.672h6.022v1.825h-6.022z"/><path fill="#748EA4" fill-rule="nonzero" d="M317.33 253.672h6.022v1.825h-6.022z"/><path stroke="#523141" stroke-width="1.18" d="M317.33 253.672h6.022v1.825h-6.022z"/><path fill="#748EA4" fill-rule="nonzero" d="M302.415 256.626h6.022v1.825h-6.022z"/><path stroke="#523141" stroke-width="1.18" d="M302.415 256.626h6.022v1.825h-6.022z"/><path fill="#748EA4" fill-rule="nonzero" d="M309.878 256.626h6.022v1.825h-6.022z"/><path stroke="#523141" stroke-width="1.18" d="M309.878 256.626h6.022v1.825h-6.022z"/><path fill="#748EA4" fill-rule="nonzero" d="M317.33 256.626h6.022v1.825h-6.022z"/><path stroke="#523141" stroke-width="1.18" d="M317.33 256.626h6.022v1.825h-6.022z"/><path fill="#748EA4" fill-rule="nonzero" d="M302.415 259.581h6.022v1.825h-6.022z"/><path stroke="#523141" stroke-width="1.18" d="M302.415 259.581h6.022v1.825h-6.022z"/><path fill="#748EA4" fill-rule="nonzero" d="M309.878 259.581h6.022v1.825h-6.022z"/><path stroke="#523141" stroke-width="1.18" d="M309.878 259.581h6.022v1.825h-6.022z"/><path fill="#748EA4" fill-rule="nonzero" d="M317.33 259.581h6.022v1.825h-6.022z"/><path stroke="#523141" stroke-width="1.18" d="M317.33 259.581h6.022v1.825h-6.022z"/><path fill="#748EA4" fill-rule="nonzero" d="M302.415 262.535h6.022v1.825h-6.022z"/><path stroke="#523141" stroke-width="1.18" d="M302.415 262.535h6.022v1.825h-6.022z"/><path fill="#748EA4" fill-rule="nonzero" d="M309.878 262.535h6.022v1.825h-6.022z"/><path stroke="#523141" stroke-width="1.18" d="M309.878 262.535h6.022v1.825h-6.022z"/><path fill="#748EA4" fill-rule="nonzero" d="M317.33 262.535h6.022v1.825h-6.022z"/><path stroke="#523141" stroke-width="1.18" d="M317.33 262.535h6.022v1.825h-6.022z"/><path fill="#748EA4" fill-rule="nonzero" d="M302.415 265.49h6.022v1.825h-6.022z"/><path stroke="#523141" stroke-width="1.18" d="M302.415 265.49h6.022v1.825h-6.022z"/><path fill="#748EA4" fill-rule="nonzero" d="M309.878 265.49h6.022v1.825h-6.022z"/><path stroke="#523141" stroke-width="1.18" d="M309.878 265.49h6.022v1.825h-6.022z"/><path fill="#748EA4" fill-rule="nonzero" d="M317.33 265.49h6.022v1.825h-6.022z"/><path stroke="#523141" stroke-width="1.18" d="M317.33 265.49h6.022v1.825h-6.022z"/><path fill="#748EA4" fill-rule="nonzero" d="M302.415 268.444h6.022v1.825h-6.022z"/><path stroke="#523141" stroke-width="1.18" d="M302.415 268.444h6.022v1.825h-6.022z"/><path fill="#748EA4" fill-rule="nonzero" d="M309.878 268.444h6.022v1.825h-6.022z"/><path stroke="#523141" stroke-width="1.18" d="M309.878 268.444h6.022v1.825h-6.022z"/><path fill="#748EA4" fill-rule="nonzero" d="M317.33 268.444h6.022v1.825h-6.022z"/><path stroke="#523141" stroke-width="1.18" d="M317.33 268.444h6.022v1.825h-6.022z"/><path fill="#748EA4" fill-rule="nonzero" d="M302.415 271.399h6.022v1.825h-6.022z"/><path stroke="#523141" stroke-width="1.18" d="M302.415 271.399h6.022v1.825h-6.022z"/><path fill="#748EA4" fill-rule="nonzero" d="M309.878 271.399h6.022v1.825h-6.022z"/><path stroke="#523141" stroke-width="1.18" d="M309.878 271.399h6.022v1.825h-6.022z"/><path fill="#748EA4" fill-rule="nonzero" d="M317.33 271.399h6.022v1.825h-6.022z"/><path stroke="#523141" stroke-width="1.18" d="M317.33 271.399h6.022v1.825h-6.022z"/><path fill="#748EA4" fill-rule="nonzero" d="M302.415 274.353h6.022v1.825h-6.022z"/><path stroke="#523141" stroke-width="1.18" d="M302.415 274.353h6.022v1.825h-6.022z"/><path fill="#748EA4" fill-rule="nonzero" d="M309.878 274.353h6.022v1.825h-6.022z"/><path stroke="#523141" stroke-width="1.18" d="M309.878 274.353h6.022v1.825h-6.022z"/><path fill="#748EA4" fill-rule="nonzero" d="M317.33 274.353h6.022v1.825h-6.022z"/><path stroke="#523141" stroke-width="1.18" d="M317.33 274.353h6.022v1.825h-6.022z"/><path fill="#748EA4" fill-rule="nonzero" d="M302.415 277.298h6.022v1.825h-6.022z"/><path stroke="#523141" stroke-width="1.18" d="M302.415 277.298h6.022v1.825h-6.022z"/><path fill="#748EA4" fill-rule="nonzero" d="M309.878 277.298h6.022v1.825h-6.022z"/><path stroke="#523141" stroke-width="1.18" d="M309.878 277.298h6.022v1.825h-6.022z"/><path fill="#748EA4" fill-rule="nonzero" d="M317.33 277.298h6.022v1.825h-6.022z"/><path stroke="#523141" stroke-width="1.18" d="M317.33 277.298h6.022v1.825h-6.022z"/><path fill="#748EA4" fill-rule="nonzero" d="M302.415 280.252h6.022v1.825h-6.022z"/><path stroke="#523141" stroke-width="1.18" d="M302.415 280.252h6.022v1.825h-6.022z"/><path fill="#748EA4" fill-rule="nonzero" d="M309.878 280.252h6.022v1.825h-6.022z"/><path stroke="#523141" stroke-width="1.18" d="M309.878 280.252h6.022v1.825h-6.022z"/><path fill="#748EA4" fill-rule="nonzero" d="M317.33 280.252h6.022v1.825h-6.022z"/><path stroke="#523141" stroke-width="1.18" d="M317.33 280.252h6.022v1.825h-6.022z"/><path fill="#748EA4" fill-rule="nonzero" d="M302.415 283.207h6.022v1.825h-6.022z"/><path stroke="#523141" stroke-width="1.18" d="M302.415 283.207h6.022v1.825h-6.022z"/><path fill="#748EA4" fill-rule="nonzero" d="M309.878 283.207h6.022v1.825h-6.022z"/><path stroke="#523141" stroke-width="1.18" d="M309.878 283.207h6.022v1.825h-6.022z"/><path fill="#748EA4" fill-rule="nonzero" d="M317.33 283.207h6.022v1.825h-6.022z"/><path stroke="#523141" stroke-width="1.18" d="M317.33 283.207h6.022v1.825h-6.022z"/><path fill="#748EA4" fill-rule="nonzero" d="M302.415 286.161h6.022v1.825h-6.022z"/><path stroke="#523141" stroke-width="1.18" d="M302.415 286.161h6.022v1.825h-6.022z"/><path fill="#748EA4" fill-rule="nonzero" d="M309.878 286.161h6.022v1.825h-6.022z"/><path stroke="#523141" stroke-width="1.18" d="M309.878 286.161h6.022v1.825h-6.022z"/><path fill="#748EA4" fill-rule="nonzero" d="M317.33 286.161h6.022v1.825h-6.022z"/><path stroke="#523141" stroke-width="1.18" d="M317.33 286.161h6.022v1.825h-6.022z"/><path fill="#748EA4" fill-rule="nonzero" d="M302.415 289.116h6.022v1.825h-6.022z"/><path stroke="#523141" stroke-width="1.18" d="M302.415 289.116h6.022v1.825h-6.022z"/><path fill="#748EA4" fill-rule="nonzero" d="M309.878 289.116h6.022v1.825h-6.022z"/><path stroke="#523141" stroke-width="1.18" d="M309.878 289.116h6.022v1.825h-6.022z"/><path fill="#748EA4" fill-rule="nonzero" d="M317.33 289.116h6.022v1.825h-6.022z"/><path stroke="#523141" stroke-width="1.18" d="M317.33 289.116h6.022v1.825h-6.022z"/><path fill="#748EA4" fill-rule="nonzero" d="M302.415 292.07h6.022v1.825h-6.022z"/><path stroke="#523141" stroke-width="1.18" d="M302.415 292.07h6.022v1.825h-6.022z"/><path fill="#748EA4" fill-rule="nonzero" d="M309.878 292.07h6.022v1.825h-6.022z"/><path stroke="#523141" stroke-width="1.18" d="M309.878 292.07h6.022v1.825h-6.022z"/><path fill="#748EA4" fill-rule="nonzero" d="M317.33 292.07h6.022v1.825h-6.022z"/><path stroke="#523141" stroke-width="1.18" d="M317.33 292.07h6.022v1.825h-6.022z"/><rect fill="#523141" fill-rule="nonzero" x="147.486" y="203.657" width="149.883" height="94.131" rx="3.44"/><rect fill="#748EA4" fill-rule="nonzero" x="302.415" y="203.657" width="20.937" height="33.538" rx="1.85"/><ellipse fill="#523141" fill-rule="nonzero" cx="312.919" cy="225.064" rx="7.493" ry="7.502"/><ellipse fill="#6F4659" fill-rule="nonzero" cx="312.919" cy="225.064" rx="2.115" ry="2.118"/><path d="M292.798 295.176c-.348.158-.726.24-1.108.242H152.37a2.73 2.73 0 0 1-2.728-2.733l-.373-83.936c0-.353.433-.686.554-1.008l-2.347-1.624-.372 1.009.372 87.193a3.467 3.467 0 0 0 3.465 3.468h142.964c.665 0 1.316-.192 1.874-.554l-2.981-2.057z" fill="#523141" fill-rule="nonzero"/><path d="M307.702 230.429l2.337-2.34-.08-.07a4.199 4.199 0 0 1 .094-5.834 4.186 4.186 0 0 1 5.827-.095l.07.08 2.337-2.339-.07-.08a7.486 7.486 0 0 0-7.29-2.052 7.497 7.497 0 0 0-5.354 5.36 7.509 7.509 0 0 0 2.049 7.3l.08.07z" fill="#6F4659" fill-rule="nonzero"/><ellipse fill="#523141" fill-rule="nonzero" cx="306.292" cy="208.799" rx="1.722" ry="1.724"/><ellipse fill="#523141" fill-rule="nonzero" cx="312.889" cy="208.799" rx="1.722" ry="1.724"/><ellipse fill="#523141" fill-rule="nonzero" cx="319.475" cy="208.799" rx="1.722" ry="1.724"/><rect fill="#748EA4" fill-rule="nonzero" x="302.415" y="243.175" width="20.937" height="51.85" rx="2.23"/><rect fill="#584A87" fill-rule="nonzero" transform="rotate(-180 222.11 250.052)" x="149.672" y="204.736" width="144.878" height="90.632" rx="2.67"/><path d="M286.252 295.398l-133.519-90.803h-.574a2.61 2.61 0 0 0-2.608 2.611v85.923a2.267 2.267 0 0 0 2.266 2.269h134.435z" fill="#FFF" fill-rule="nonzero" opacity=".43" style="mix-blend-mode:soft-light"/><g transform="translate(149.047 203.869)"><mask id="f" fill="#fff"><use xlink:href="#e"/></mask><use fill="#5837B6" fill-rule="nonzero" transform="rotate(-180 73.245 46.254)" xlink:href="#e"/><path fill="#B479FF" fill-rule="nonzero" style="mix-blend-mode:screen" mask="url(#f)" d="M59.025.726L.504 83.321v8.47h145.502v-19.34L102.108.726z"/><g mask="url(#f)"><path d="M57.524 80.467c-.544-.726-1.138-1.411-1.611-2.178a2.422 2.422 0 0 1 .906-2.934c.363-.192.524 0 .554.333.03.332 0 .746.111 1.099a3.024 3.024 0 0 0 2.014 2.218c1.007.414 10.151 4.8 11.37 5.546 2.014 1.23 4.028 2.4 6.042 3.69 2.015 1.291 6.567 4.034 8.39 5.305.453.322-2.458-.847-2.911-.525-1.42 1.009-2.85 1.926-4.26 2.915-.564.393-.352.282-.886.695-.534.414-.383 1.624-.876 1.18-1.622-1.492-4.33-3.71-6.043-5.143a30.407 30.407 0 0 0-3.021-2.258c-1.007-.676-1.39-.595-2.326.181-.241.205-.505.38-.786.525-1.279.635-2.548 1.28-3.847 1.875a8.351 8.351 0 0 1-1.742.565 1.137 1.137 0 0 1-1.47-1.009.766.766 0 0 0-.534-.423c-.584-.1-1.007-.222-1.007-1.008 0-.162-.302-.353-.514-.464-.211-.111-.363 0-.544-.08a1.007 1.007 0 0 1-.574-1.675c.094-.092.181-.19.262-.292.11-.182 0-.172-.211-.091-1.46.645-2.961-1.19-1.853-1.795.342-.181.654-.413 1.007-.615 1.53-.928 3.091-1.825 4.592-2.803 1.007-.656 1.067-1.331.342-2.29-.211-.12-.392-.342-.574-.544z" fill="#9B5460" fill-rule="nonzero"/><path d="M99.137 84.047L91.27 95.562a1.66 1.66 0 0 1-2.074.313l-9.92-5.899-5.992 5.193 16.828 14.581a2.104 2.104 0 0 0 3.021.09l19.8-16.768-13.797-9.025zM104.071 9.852a15.962 15.962 0 0 0-9.577 9.539c-.05.343-.211.675-.282 1.008-.09.504-.151 1.009-.211 1.523-.07.452-.326.854-.705 1.109-.682.512-1.403.97-2.156 1.371l-2.014 1.14c-.345.21-.532.607-.473 1.008.059.566.295 1.1.675 1.523.21.252.4.522.564.806a.727.727 0 0 1-.131 1.009 4.846 4.846 0 0 1-.776.655.655.655 0 0 0-.262 1.009c.189.397.448.755.766 1.058l.12.132v.07a8.14 8.14 0 0 0-.775.293 1.301 1.301 0 0 0-.695 1.34c.1.25.259.472.464.646.18.19.372.368.574.534-.091.394-.172.787-.282 1.18a6.704 6.704 0 0 0-.202 1.634c-.009.39.046.777.161 1.15.153.508.521.925 1.007 1.139 1.008.524 2.156.877 3.243 1.3.494.192 1.007.384 1.48.565a10.62 10.62 0 0 1 1.703.857c.282.162 16.113 14.874 16.113 13.684v-4.528c.07-1.059.15-2.117.242-3.176.06-.706.12-1.412.201-2.108.08-.695.171-1.16.272-1.754.312 0 .604-.07.896-.08a9.597 9.597 0 0 0 2.961-.616 7.954 7.954 0 0 0 2.92-1.835c.454-.484-15.317-33.316-15.82-33.185z" fill="#9B5460" fill-rule="nonzero"/><path d="M95.672 70.858s-4.924 7.905-7.05 11.223c-2.124 3.317-.462 8.621 2.015 10.86 2.477 2.238 6.334 1.361 6.536 3.922.201 2.562-.353 27.498-.171 29.777.18 2.28 30.897-2.44 30.897-2.44s-.756-32.116-.756-37.683a350.11 350.11 0 0 0-2.688-41.14s-13.677 19.27-28.783 25.48z" fill="#EEB51E" fill-rule="nonzero"/><path d="M96.226 43.49c.23.132.447.287.645.465 1.158 1.008 3.444 3.77 3.152 10.083-.393 8.38-5.338 16.85-5.338 16.85l28.31-11.647a25.187 25.187 0 0 0-7.272-6.383c-4.572-2.621-8.731-7.724-8.731-7.724" fill="#9B5460" fill-rule="nonzero"/><path d="M129.208 46.485c6.697-41.242-17.12-39.648-27.594-36.795 0 0-4.572 1.815-5.035 5.042-.464 3.227 2.527 7.13 4.854 9.66.42.46.863.898 1.33 1.311.392.346.765.713 1.117 1.1a4.599 4.599 0 0 1 5.65-1.573 4.61 4.61 0 0 1-2.065 8.812c.55 2.012.714 4.11.484 6.182-.282 2.016-1.692 2.218-3.455 4.033-2.86 3.025-1.671 7.744 2.266 10.275 4.18 2.693 4.029-.564 8.732-.161 8.993.776 10.997 13.441 10.997 13.441a18.211 18.211 0 0 0 6.959-10.003c2.064-6.917-4.774-8.046-4.24-11.324zM67.283 27.165l-.735 4.78a.444.444 0 0 1-.182.292.443.443 0 0 1-.342.07l-15.277-2.913a.444.444 0 0 1-.353-.504l.564-3.68a.443.443 0 0 1 .494-.374l8.318 1.008 6.042.716 1.008.121a.443.443 0 0 1 .392.515l.07-.03zM72.68 27.226l-.956 6.231A5.9 5.9 0 0 0 82.969 32a5.91 5.91 0 0 0-3.352-6.26 5.896 5.896 0 0 0-6.936 1.487z" fill="#231D42" fill-rule="nonzero"/><path fill="#231D42" fill-rule="nonzero" d="M71.724 33.488l-6.083-1.24.866-5.647 6.174.645z"/><path d="M66.215 24.05c.183.254.275.563.262.877v3.852a3.028 3.028 0 0 1-.322 1.462 1.912 1.912 0 0 1-2.014.827 1.411 1.411 0 0 1-1.098-1.422v-4.78a1.721 1.721 0 1 1 3.192-.837l-.02.02zM56.87 27.559c-.025-.41-.025-.821 0-1.23a1.555 1.555 0 1 1 3.101.211v.908a1.574 1.574 0 0 1-1.56 1.613 1.552 1.552 0 0 1-1.541-1.502z" fill="#9B5460" fill-rule="nonzero"/><path d="M69.005 29.243a1.49 1.49 0 0 1-2.014.524 1.876 1.876 0 0 1-.937-1.735c0-.685 0-1.381.08-2.067.001-.72.385-1.384 1.008-1.744.192-.115.41-.181.634-.192.206.001.41.035.605.101a1.815 1.815 0 0 1 1.107 1.785c0 .706 0 1.412-.07 2.117a2.2 2.2 0 0 1-.413 1.21zM62.73 30.25a1.49 1.49 0 0 1-2.013.525 1.876 1.876 0 0 1-.937-1.734c0-.686 0-2.35.08-3.025.001-.72.385-1.385 1.008-1.745.192-.115.41-.18.634-.191.206 0 .41.035.604.1a1.815 1.815 0 0 1 1.118 1.785c0 .706 0 2.38-.07 3.086a2.2 2.2 0 0 1-.423 1.2z" fill="#9B5460" fill-rule="nonzero"/><path d="M69.408 28.032c.461 2.354.647 4.753.554 7.15-.313 2.652-12.67 1.543-12.67 1.543s-1.691-3.64-.372-10.397l12.488 1.704z" fill="#9B5460" fill-rule="nonzero"/><path d="M99.7 60.925l-18.932 6.736c-.444-2.238-5.318-8.279-7.463-11.677-2.145-3.398-3.122-8.762-3.817-10.729-.695-1.966-.554-3.489 0-6.433a45.24 45.24 0 0 0 .635-6.232l-13.737.152s1.007 6.423 3.021 8.48c2.015 2.057 1.43 6.05 3.143 12.715 4.028 15.761 6.334 20.722 13.676 27.982a4.025 4.025 0 0 0 3.736 1.07c4.844-1.14 20.766-5.396 30.051-10.498 4.915-2.702 8.258-5.889 5.79-10.285-2.93-5.133-10.664-3.51-16.102-1.28z" fill="#9B5460" fill-rule="nonzero"/><path d="M92.097 63.527l7.674 13.935s22.156-6.241 16.838-15.428c-5.317-9.186-24.512 1.493-24.512 1.493zM127.224 94.332v8.38c0 4.033 8.66 11.425 8.66 20.6 0 9.772-39.013 0-39.013 0l30.353-28.98z" fill="#EEB51E" fill-rule="nonzero"/><path d="M97.112 102.298v9.388c0 4.9-1.319 11.627-3.152 11.627h10.02l3.737-6.938-10.605-14.077z" fill="#EEB51E" fill-rule="nonzero"/><path d="M50.656 27.226s-12.941-3.156-24.27 4.457c-16.315 10.96-9.467 40.485 26.747 54.552 38.521 14.964 27.191 37.118 27.191 37.118" stroke="#231D42" stroke-width="1.18" stroke-linecap="round" stroke-linejoin="round"/><path d="M52.126 86.81s-4.612 2.773-5.468 3.277c-.856.504-.725 2.017 1.672 1.008 2.396-1.008 5.65-2.52 5.65-2.52l-1.854-1.765zM55.661 90.753s3.021-3.58 3.444-4.185c.423-.605.05-2.017-1.269-.797l-3.726 3.47 1.551 1.512z" fill="#9B5460" fill-rule="nonzero"/><path d="M57.403 92.023s1.773-2.622 2.216-3.227c.443-.605.05-2.016-1.269-.796-1.32 1.22-2.487 2.51-2.487 2.51l1.54 1.513z" fill="#9B5460" fill-rule="nonzero"/><path d="M58.491 93.667s1.752-2.662 2.195-3.257c.444-.595.05-2.017-1.268-.797-1.32 1.22-2.468 2.551-2.468 2.551l1.541 1.503z" fill="#9B5460" fill-rule="nonzero"/></g></g><path d="M.222.008l.282 103.317 12.457 6.242 448.36 305.019 192.403 14.43L582.745.008z" opacity=".33" fill="#2F3673" fill-rule="nonzero"/></g><path fill="#523141" fill-rule="nonzero" d="M320.905 347.502h12.991v148.189h-12.991z"/><g fill-rule="nonzero"><path d="M257.338 500.309s3.928-7.24-6.183-15.77c-8.42-7.06-12.085-16.498-9.225-29.616 2.86-13.12 30.051-8.884 30.927-18.262.877-9.378-30.564-15.76-27.412-30.009 3.152-14.248 30.927-12.876 36.617-27.77 5.69-14.894-8.49-21.024-8.117-28.123.373-7.1 7.05-10.396 17.271-10.528 10.222-.13 20.505 4.548 18.3 22.608-2.206 18.06 14.541 16.729 19.567 27.67 4.34 9.438-5.257 17.535-13.465 20.338-20.605 7.059-25.73 13.774-.11 27.498 14.29 7.654 11.188 23.142.624 28.91-9.396 5.132-31.028 12.917-36.718 28.89-2.579 7.23-2.78 7.159-2.78 7.159l-19.296-2.995z" fill="#609C7B"/><path d="M242.806 499.795s2.68-9.348-11.148-16.598c-11.51-6.05-24.865-14.43-24.865-30.25 0-15.822 32.358-17.93 30.988-28.95-1.37-11.022-39.276-10.347-39.276-27.58 0-17.232 32.357-22.748 35.117-41.342 2.76-18.595-15.086-22.114-16.506-30.382-1.42-8.269 5.508-13.785 17.21-16.548 11.703-2.763 24.785 0 26.85 21.368 2.064 21.367 26.183 13.108 29.607 26.883 3.425 13.774-3.444 19.3-10.332 26.882-6.889 7.583-9.638 22.063 6.888 31.713 16.526 9.65 8.55 22.79 2.357 33.82-6.194 11.032-26.718 22.185-29.205 42.01-1.128 8.994-1.38 8.964-1.38 8.964l-16.305.01z" fill="#89A87D"/><path fill="#918F7D" d="M217.55 499.795h85.782v11.687H217.55zM226.834 511.482l14.13 57.053h38.681l14.09-57.053z"/></g><path d="M64.01 305.725c-.745-4.245 4.512-10.587 8.802-10.194 3.957.363 27.483 112.715 28.49 117.292 1.007 4.578.181 13.533 4.028 14.037 3.847.504 101.211 0 107.304 0 6.093 0 0 28.466 0 28.466H88.552l-24.542-149.6zM87.283 228.898v-.12c.008-.772.103-1.54.282-2.29 0-.191.08-.373.111-.564.121-.858.131-1.735.262-2.592.13-.857.383-1.734.534-2.602.282-1.623.392-3.297.826-4.88.543-2.017 1.349-4.033 2.014-5.99a9.853 9.853 0 0 1 2.83-4.507c.165-.142.298-.317.392-.514 2.014-4.175 5.328-7.13 8.963-9.71a47.8 47.8 0 0 1 5.086-2.905 28.417 28.417 0 0 1 6.133-2.279 76.522 76.522 0 0 1 8.057-1.633c2.517-.384 5.136-.152 7.633-.777a8.258 8.258 0 0 1 3.978.121c1.823.444 3.716 0 5.388 1.009a.775.775 0 0 0 .544.06 4.325 4.325 0 0 1 3.021.343c.776.323 1.581.585 2.367.867 2.165.756 4.41 1.361 6.496 2.31a17.847 17.847 0 0 1 5.911 4.386 29.733 29.733 0 0 1 5.035 8.157 20.36 20.36 0 0 1 1.169 5.143c.262 1.845-.564 3.52-1.219 5.203-.755 2.017-1.138 4.124-2.84 5.627-.483.423-.383.948 0 1.512a30.344 30.344 0 0 1 3.877 9.741 5.563 5.563 0 0 1-.332 3.197c-.232.584-.483 1.16-.695 1.744-.11.25-.145.527-.1.797a12.97 12.97 0 0 0 3.836 6.423c.3.25.57.535.806.847 1.33 1.845.856 3.953-1.208 4.568-.579.22-1.133.5-1.652.837a.907.907 0 0 0-.423 1.411c.43.618.91 1.201 1.43 1.745.906 1.008.927 1.32 0 2.238-.262.263-.524.515-.795.757-.857.746-.857.786 0 1.593.856.807.936 1.3 0 2.208l-.383.333a2.533 2.533 0 0 0-1.007 2.914 3.745 3.745 0 0 1-2.75 4.69c-1.795.453-3.637.7-5.488.735a57.956 57.956 0 0 1-6.697-.675c-.675-.081-1.27-.121-1.702.514a33.279 33.279 0 0 0-2.93 4.386 34.887 34.887 0 0 0-2.74 13.22c-.07 1.563-.08 1.563-1.55 1.875a.534.534 0 0 0-.142.081h-2.87c-.07 0-.141-.11-.212-.12-4.531-.435-7.381-3.097-9.315-6.989-.735-1.482-1.52-2.954-2.296-4.416a12.178 12.178 0 0 0-8.913-6.797c-1.057-.191-2.145-.242-3.293-.363 2.336-3.025 5.035-5.758 6.314-9.58-2.415.86-5.038.94-7.502.233a110.805 110.805 0 0 1-6.687-2.017 17.323 17.323 0 0 1-8.248-5.99c-.121-.151-.282-.272-.403-.413-.453-.514-.927-1.009-1.35-1.563a9.733 9.733 0 0 1-.674-1.069 36.11 36.11 0 0 1-3.022-5.153c-1.007-2.712-1.691-5.586-2.557-8.38a23.219 23.219 0 0 1-1.3-6.937z" fill="#80514F" fill-rule="nonzero"/><path d="M160.568 221.487c-.433.494-.624.322-.624.322a3.855 3.855 0 0 0-4.411 1.886 5.352 5.352 0 0 1-1.31 1.482c-2.104 1.624-2.154 2.683-5.035 1.866-2.88-.817-5.79.08-6.606 1.694-.816 1.613-1.35 6.403-.302 9.983 1.047 3.58 1.118 7.653-.212 8.288-1.329.636-4.119 1.553-4.793-1.815-.675-3.368 0-4.184-2.095-5.858-2.095-1.674-8.057-2.178-8.349 2.228-.292 4.407 4.11 12 4.11 12a42.018 42.018 0 0 1-5.65 4.74 29.794 29.794 0 0 1-6.788 2.399 16.958 16.958 0 0 0-1.712-6.514c-1.652-3.297-8.44-13.109-6.043-22.769 2.397-9.66 8.057-17.697 22.156-21.095 14.099-3.398 30.847 7.482 27.664 11.163z" fill="#E2E0D6" fill-rule="nonzero"/><path d="M110.708 231.409c2.367-9.69 8.057-17.697 22.156-21.095 13.474-3.247 23.857 6.968 27.05 10.95 0-.17.211.646.382.495 1.692-1.513 4.25-5.667 3.968-11.798a14.92 14.92 0 0 0-1.168-5.142 29.733 29.733 0 0 0-5.035-8.158 17.848 17.848 0 0 0-5.872-4.457c-2.084-.948-4.32-1.553-6.495-2.31-.796-.282-1.591-.544-2.367-.866a4.325 4.325 0 0 0-3.021-.343.775.775 0 0 1-.544-.06c-1.672-1.01-3.565-.525-5.388-1.01a8.258 8.258 0 0 0-3.978-.12c-2.497.625-5.106.383-7.633.776-2.713.4-5.403.945-8.057 1.634a28.417 28.417 0 0 0-6.133 2.279 47.8 47.8 0 0 0-5.086 2.904c-3.635 2.581-6.979 5.546-8.963 9.71a1.573 1.573 0 0 1-.393.515 9.853 9.853 0 0 0-2.83 4.507c-.664 2.017-1.47 3.963-2.014 5.99-.433 1.583-.543 3.257-.825 4.88-.151.877-.403 1.724-.534 2.602-.131.877-.141 1.734-.262 2.591-.056.36-.133.718-.232 1.07a5.048 5.048 0 0 0-.16 1.27c-.001 2.567.386 5.12 1.147 7.572.866 2.794 1.5 5.667 2.558 8.37a36.1 36.1 0 0 0 3.022 5.153c.201.37.426.727.674 1.068.423.535.897 1.009 1.35 1.563.13.142.282.263.403.414a17.323 17.323 0 0 0 8.248 5.99c2.205.736 4.44 1.391 6.687 2.016 2.328.668 4.801.633 7.11-.1a17.16 17.16 0 0 0-1.692-6.162c-1.652-3.226-8.44-13.018-6.073-22.698z" fill="#E2E0D6" fill-rule="nonzero"/><path d="M271.69 460.025c3.131-4.477 2.265-15.75-3.354-25.824-3.757-6.736-6.295-9.358-12.085-14.47a5.972 5.972 0 0 1-2.105-4.235c-.765-9.076-1.631-18.211-2.336-27.327-.605-7.815-1.008-15.64-1.541-23.465-.343-5.041-.876-9.982-1.158-14.974-.736-12.826-1.43-25.652-2.015-38.479a25.083 25.083 0 0 0-2.709-10.305 4.39 4.39 0 0 1-.574-2.118c.272-4.033-1.6-7.34-3.343-10.678a4.442 4.442 0 0 0-2.498-1.815c-3.323-1.009-6.697-1.836-10.07-2.673a4.939 4.939 0 0 0-1.934 0c-3.323.555-6.647 1.07-9.95 1.755-5.962 1.24-11.873 2.601-16.818 6.574-1.007.807-2.619.858-4.441 1.402-1.007.908-2.397 2.269-3.888 3.51-1.49 1.24-3.464 2.016-4.562 3.559-2.668 3.66-7.633 4.638-9.819 8.762-.204.26-.5.433-.826.484-3.313.736-4.642 4.578-8.056 5.163a1.089 1.089 0 0 0-.625.706c-.553 2.017-2.165 2.46-4.21 2.955-.734-1.725-1.57-3.358-2.124-5.042-1.47-4.558-2.88-9.076-5.65-13.109a15.732 15.732 0 0 1-2.326-6.05 30.58 30.58 0 0 0-2.337-6.736 19.804 19.804 0 0 1-2.135-8.44c0-3.781-.19-3.852-3.847-4.638-.271-.061-26.607-13.865-25.902-13.865-7.381 2.268-9.063 4.225-10.07 5.041-1.702 1.27-3.092 2.975-4.834 4.165-5.73 3.922-9.97 8.752-12.005 15.65-2.195 7.431-4.32 14.823-4.24 22.637v3.399c3.022 18.624 6.798 44.58 8.198 63.274.242-.15.06 19.099-.362 25.29-1.27 16.99.936 24.2 10.977 31.027 11.33 7.714 78.642 6.222 86.236 14.228 1.57.242 1.621 1.19 1.54 2.209-.241 3.126-.453 6.251-.745 9.377a4.036 4.036 0 0 0 1.783 4.215c2.095 1.362 2.578 3.025 1.662 5.536-1.149 3.136-1.682 6.494-2.518 9.741-.292 1.13-.715 2.218-1.138 3.53l-4.784 25.218s-6.757 16.386-2.014 42.23l4.653-.645 1.249-8.5c.813.069 1.617.228 2.396.474 5.207 2.43 10.414 4.86 15.56 7.421a18.694 18.694 0 0 0 7.754 2.219c7.443.272 14.724-1.07 22.025-2.158.109-.012.217-.032.322-.06 1.853-.596 3.082-2.27 2.387-4.034a25.591 25.591 0 0 0-3.484-6.181c-.766-1.009-2.367-1.342-3.505-1.926a4.553 4.553 0 0 1 0-.857c.916-4.71-1.28-8.29-5.851-9.6-2.085-.605-4.16-1.26-6.224-1.926a13.297 13.297 0 0 1-8.057-6.635c-1.45-2.733-3.232-5.274-5.126-8.309 2.86-12.413 8.299-24.352 14.794-36.21l17.242 13.431c4.108-3.025 6.344-7.643 10.685-10.366.18 1.008.362 1.603.423 2.239.812 8.45 1.618 16.9 2.417 25.35 1.007 10.184 2.205 20.349 2.84 30.553.312 4.921 1.57 9.771.604 14.884-.756 3.983-.242 8.208-.212 12.332 0 2.279 1.179 3.277 4.089 3.751 2.91.474 5.7-.353 6.335-2.107.202-.621.25-1.282.14-1.926-.453-2.894-.876-5.798-1.49-8.652-.614-2.854-1.752-5.617-2.095-8.49-1.188-9.943-2.175-19.906-3.142-29.868-1.158-11.919-2.225-23.838-3.323-35.757-.242-2.601-.423-5.203-.645-7.804a4.036 4.036 0 0 1 1.148-3.227c2.7-3.197 9.225-1.351 11.642-4.81zm-32.57-166.168c-1.832 0-4.783-1.543-6.274-3.67 2.9.736 5.066 1.29 6.274 3.67zm-31.914 8.41a2.428 2.428 0 0 1 3.555-.857l-2.296 5.314c-1.198-1.876-2.387-2.915-1.269-4.447l.01-.01zm39.73 108.65c-4.482-4.124-10.071-6.322-15.369-8.964-8.056-4.033-16.606-6.373-25.177-8.732-3.978-1.09-8.056-1.886-12.085-2.823-.604-.142-1.208-.313-1.44-.374 0-2.198-.16-4.114 0-6.05 1.25-13.885-23.162-41.171-24.572-41.927.07-2.138 37.886-29.031 38.863-30.766.685.515-1.31 5.103 1.299 7.321 2.316 2.017 4.703.847 5.317-2.148.725-3.509 1.27-7.058 1.934-10.588.524-2.732.886-3.236 3.676-2.863 3.232.433 6.233-.464 9.245-1.08 2.014-.413 3.867-1.844 5.911-2.893 4.27 2.853 5.962 7.058 6.496 11.858.191 1.724 1.269 24.342 1.873 33.891.289 4.565.594 9.126.916 13.684l3.364 47.887c.1 1.391.201 2.783.312 4.164l-.564.404z" fill="#6C6283" fill-rule="nonzero"/><path d="M197.81 292.697l9.064 11.385c-.21-.62-.08-1.305.342-1.805a2.428 2.428 0 0 1 3.555-.857 37.552 37.552 0 0 0 7.493 1.532c.39.013.78.046 1.168.101l1.803.101a38.224 38.224 0 0 0 7.442-1.18c2.014-.413 3.867-1.845 5.912-2.894 0 0 7.05-.423 7.593-1.14.544-.715-3.021-4.033-3.021-4.033-1.833 0-4.784-1.542-6.274-3.67 2.9.736 5.035 1.28 6.274 3.67l5.297 7.059c2.588-1.08 1.168-4.447-3.918-12.796a4.784 4.784 0 0 0-2.497-1.815c-3.324-1.009-6.697-1.836-10.071-2.672a4.939 4.939 0 0 0-1.934 0c-3.323.554-6.646 1.068-9.95 1.754-5.961 1.24-11.873 2.602-16.818 6.575a4.026 4.026 0 0 1-1.46.685z" fill="#80514F" fill-rule="nonzero"/><path d="M198.958 290.58l10.01 15.176-1.007 4.265-.725 3.186a64.728 64.728 0 0 0-8.761 7.543c-4.28 4.548-13.092 11.889-17.815 16.366-4.724 4.477-16.325 13.602-22.408 13.602-9.507 0-62.066-26.711-50.354-53.947 5.036-11.677 17.966-10.79 24.754-3.771 10.071 10.446 24.533 21.498 24.533 21.498l41.773-23.918z" fill="#BC7789" fill-rule="nonzero"/><path d="M423.526 208.146v-11.848c0-.444.474-.807 1.068-.807.584 0 1.067.363 1.067.807v11.838M426.618 216.798c0 .646-.523 1.17-1.168 1.17h-1.722a1.169 1.169 0 0 1 0-2.34h1.722c.645 0 1.168.524 1.168 1.17zM380.675 216.798c0 .646.523 1.17 1.168 1.17h1.722a1.169 1.169 0 0 0-.03-2.34h-1.722a1.169 1.169 0 0 0-1.138 1.17z" fill="#523141" fill-rule="nonzero"/><rect fill="#231F20" fill-rule="nonzero" x="376.234" y="205.343" width="55.208" height="11.636" rx="1.2"/><rect fill="#231F20" fill-rule="nonzero" x="379.013" y="208.469" width="49.639" height="5.385" rx="1.51"/><ellipse fill="#DE4E25" fill-rule="nonzero" cx="409.639" cy="211.161" rx="1" ry="1"/><ellipse fill="#DE4E25" fill-rule="nonzero" cx="414.604" cy="211.161" rx="1" ry="1"/><ellipse fill="#DE4E25" fill-rule="nonzero" cx="419.558" cy="211.161" rx="1" ry="1"/><ellipse fill="#DE4E25" fill-rule="nonzero" cx="424.523" cy="211.161" rx="1" ry="1"/><ellipse fill="#E2E0D6" fill-rule="nonzero" cx="213.823" cy="133.87" rx="12.135" ry="12.151"/><path d="M226.461 132.58c0-6.892-5.58-12.479-12.462-12.479-6.883 0-12.463 5.587-12.463 12.478h24.925z" fill="#9D6682" fill-rule="nonzero"/><path fill="#9D6682" fill-rule="nonzero" d="M212.161 87.869h3.323v34.678h-3.323z"/><path d="M381.914 209.054H381.34a.322.322 0 0 0-.121-.07.513.513 0 0 0-.181 0 .624.624 0 0 0-.242 0 .131.131 0 0 0-.09.13.121.121 0 0 0 .06.111.584.584 0 0 0 .181.07l.413.091c.206.029.401.112.564.242.21.251.21.617 0 .868a.836.836 0 0 1-.373.262 1.519 1.519 0 0 1-.544.09 1.328 1.328 0 0 1-.523-.1 1.007 1.007 0 0 1-.373-.262.555.555 0 0 1-.14-.333.07.07 0 0 1 0-.05h.442a.191.191 0 0 1 .131 0l.05.06c.037.039.082.07.132.09.07.015.141.015.211 0 .282 0 .423-.06.423-.18a.11.11 0 0 0-.06-.102.554.554 0 0 0-.172-.07l-.342-.081h-.151a.946.946 0 0 1-.504-.252.656.656 0 0 1-.16-.464c0-.13.042-.258.12-.363a.816.816 0 0 1 .332-.272 1.288 1.288 0 0 1 1.007 0c.136.06.256.15.353.262.08.082.129.189.14.302a.07.07 0 0 1-.01.02zm2.014-.656a.09.09 0 0 1 0 .06v.364a.09.09 0 0 1-.09.09h-.595v1.735c0 .05-.04.09-.09.09h-.444a.09.09 0 0 1-.09-.09v-1.735h-.594a.09.09 0 0 1-.091-.09v-.363c0-.05.04-.091.09-.091h1.813a.09.09 0 0 1 .111.03h-.02zm1.873.172c.175.141.269.36.252.584a.676.676 0 0 1-.403.676l.423.807a.07.07 0 0 1 0 .05h-.514a.14.14 0 0 1-.09 0l-.05-.07-.373-.726h-.343v.726c0 .05-.04.09-.09.09h-.443a.09.09 0 0 1-.09-.09v-2.189c0-.05.04-.09.09-.09h.916c.265-.013.525.07.735.232h-.02zm-.705.826c.222 0 .333-.084.333-.252 0-.168-.111-.252-.333-.252h-.393v.504h.393zm1.803.807h1.067c.05 0 .091.04.091.09v.364c0 .05-.04.09-.09.09h-1.602a.09.09 0 0 1-.09-.09v-2.188c0-.05.04-.091.09-.091h1.571c.05 0 .09.04.09.09v.364c0 .05-.04.09-.09.09h-1.007v.364h1.007c.05 0 .09.04.09.09v.363c0 .05-.04.091-.09.091h-1.007l-.03.373zm3.515.414a.151.151 0 0 1 0 .05.07.07 0 0 1 0 .05h-.474a.14.14 0 0 1-.09 0 .121.121 0 0 1 0-.06l-.091-.282h-.896l-.091.282c.005.02.005.04 0 .06a.14.14 0 0 1-.09 0h-.474a.07.07 0 0 1 0-.05.151.151 0 0 1 0-.05l.735-2.128a.182.182 0 0 1 .05-.08.14.14 0 0 1 .101 0h.544a.14.14 0 0 1 .1 0c.024.022.041.05.051.08l.625 2.128zm-.887-.767l-.272-.817-.271.817h.543zm1.632-.322v1.119c0 .05-.04.09-.09.09h-.444a.09.09 0 0 1-.09-.09v-2.188c0-.05.04-.091.09-.091h.393c.06.001.114.036.14.09l.545.938.543-.937a.161.161 0 0 1 .141-.091h.393c.05 0 .09.04.09.09v2.189c0 .05-.04.09-.09.09h-.443a.09.09 0 0 1-.09-.09v-1.12l-.323.555-.05.06H391.522l-.051-.06-.312-.554zM393.828 210.072c.083.08.197.12.312.111a.453.453 0 0 0 .292-.08.424.424 0 0 0 .13-.192.222.222 0 0 1 0-.08H395.127a.07.07 0 0 1 0 .05.706.706 0 0 1-.14.413c-.101.13-.233.235-.383.302-.167.077-.35.115-.534.111a1.147 1.147 0 0 1-.544-.12.917.917 0 0 1-.362-.333 1.01 1.01 0 0 1-.141-.464v-.273-.332a.939.939 0 0 1 .14-.464.917.917 0 0 1 .363-.333c.17-.084.356-.125.544-.12.184-.004.367.034.534.11.15.068.282.172.383.303.09.119.139.264.14.413a.07.07 0 0 1 0 .05h-.563a.222.222 0 0 1 0-.08.424.424 0 0 0-.131-.192.453.453 0 0 0-.292-.08.403.403 0 0 0-.312.11.454.454 0 0 0-.111.283v.564a.454.454 0 0 0 .11.323zM397.463 210.556a.151.151 0 0 1 0 .05.07.07 0 0 1 0 .05h-.473a.14.14 0 0 1-.09 0 .121.121 0 0 1 0-.06l-.091-.282h-.897l-.09.282c.005.02.005.041 0 .06a.14.14 0 0 1-.091 0h-.473a.07.07 0 0 1 0-.05.151.151 0 0 1 0-.05l.735-2.128a.182.182 0 0 1 .05-.08.14.14 0 0 1 .1 0h.545a.14.14 0 0 1 .1 0c.024.022.041.05.05.08l.625 2.128zm-.886-.766l-.272-.817-.272.817h.544zM399.387 209.003H398.743a.322.322 0 0 0-.122-.07.513.513 0 0 0-.181 0 .624.624 0 0 0-.242 0 .131.131 0 0 0-.09.13.121.121 0 0 0 .06.112.584.584 0 0 0 .181.07l.413.091c.207.028.401.112.564.242.21.25.21.616 0 .867a.836.836 0 0 1-.372.262 1.519 1.519 0 0 1-.534.091 1.318 1.318 0 0 1-.524-.1 1.007 1.007 0 0 1-.372-.263.555.555 0 0 1-.141-.333.07.07 0 0 1 0-.05h.443a.191.191 0 0 1 .13 0l.05.06c.038.04.082.07.132.091.07.015.142.015.211 0 .282 0 .423-.06.423-.181a.11.11 0 0 0-.06-.101.554.554 0 0 0-.171-.07l-.343-.081h-.15a.946.946 0 0 1-.504-.253.656.656 0 0 1-.161-.463c0-.131.043-.258.12-.363a.816.816 0 0 1 .333-.273 1.288 1.288 0 0 1 1.007 0c.135.06.255.15.352.263.08.082.13.188.141.302a.07.07 0 0 1 .05.02zM401.42 208.348a.09.09 0 0 1 0 .06v.323c0 .05-.04.09-.09.09h-.594v1.735c0 .05-.04.09-.09.09h-.444a.09.09 0 0 1-.09-.09v-1.734h-.594a.09.09 0 0 1-.091-.091v-.363c0-.05.04-.09.09-.09h1.813a.09.09 0 0 1 .09.07z" fill="#F68F7A" fill-rule="nonzero"/><g fill-rule="nonzero"><path fill="#87617E" d="M542.563 429.38l-9.578 65.817 112.048.494h83.275v-92.205z"/><path d="M748.57 229.493c-11.249-1.008-31.38.837-42.528 25.885-11.149 25.048-31.613 201.592-31.613 201.592l116.52 13.4s-6.043-92.99-2.186-145.91c3.474-47.977 2.105-91.206-40.193-94.967z" fill="#87617E"/><path fill="#593644" d="M655.436 346.725l-86.518 41.343.836 19.633 85.33-16.235z"/><path d="M688.498 164.726c-5.106-.06-14.643.504-22.407 8.672-7.765 8.168-7.251 14.278-7.684 17.223-.433 2.944.413 6.05-.886 8.45-1.3 2.4-3.092 4.033-3.666 8.712-.262 2.108-1.38 2.743.282 2.763h2.75s-2.901 19.814 4.34 22.88c7.915 3.348 10.463 4.164 10.463 4.164a61.88 61.88 0 0 1 6.637 17.082c.806 3.852-3.122 10.981-3.122 10.981l35.449-28.043s-2.97-2.53-4.18-8.157a27.963 27.963 0 0 1 2.88-18.362c3.022-5.173 5.812-8.975 5.933-18.524.12-9.55-8.903-27.62-26.789-27.841z" fill="#80514F"/><path d="M666.302 170.242a1.602 1.602 0 0 0 1.581 1.492h3.294a7.821 7.821 0 0 1 5.911 2.828 7.842 7.842 0 0 1 1.692 6.338 1.595 1.595 0 0 0 1.34 1.876c3.242.453 9.637 2.158 9.557 8.56-.05 4.377-.333 8.34-.595 11.173a1.6 1.6 0 1 0 2.709 1.3l1.118-1.078c.23-.222.521-.37.836-.423 3.26-.36 6.543-.469 9.82-.323 6.898.08 0 6.847-.937 11.596-.695 3.54-2.88 5.96-1.128 8.32a4.691 4.691 0 0 0 3.877 2.016c4.904.06 21.098-20.651 24.31-24.826a1.605 1.605 0 0 0 .212-1.583l-11.249-27.72a1.585 1.585 0 0 1-.08-.262c-.272-1.25-2.407-10.961-4.24-11.445-1.833-.484-37.181-2.914-38.168-2.924-.746 0-6.637 1.058-9.386 1.563a1.603 1.603 0 0 0-1.31 1.694l.836 11.828z" fill="#2C2E47"/><path d="M695.266 199.656l-.927 13.492a8.017 8.017 0 0 0 0 .947c.333 2.32 1.863 2.693 1.843 4.306 0 1.785-1.228 2.38-4.028 3.66-2.8 1.281 1.007 4.034-2.306 7.382-2.548 2.51-4.895.201-6.043 1.593-1.007 1.18 1.38 3.186-1.782 5.042-2.175 1.3-3.817-.878-5.428-.141-1.612.736-1.36 2.863-3.938 4.124-1.45.706-4.25-1.009-6.395-.898-1.863.081-2.266 1.795-4.38 1.775a5.205 5.205 0 0 1-3.948-2.107 1.288 1.288 0 0 0-1.008-.495s-2.014.817-3.192 0c-1.913-1.36-1.51-2.591-1.54-3.811a1.261 1.261 0 0 0-.474-1.008c-.745-.595-1.773-.656-1.662-2.905a3.49 3.49 0 0 1 1.39-2.57c.302-.303.232-2.814 3.525-2.633-.403.797-5.428 10.941 15.881 6.837 11.693-2.249 15.71-14.51 17.201-22.507.756-4.033 1.007-7.058 1.007-7.058.02-2.198 2.065-2.632 6.204-3.025z" fill="#2C2E47"/><path d="M709.113 207.723l-7.18-7.361a.705.705 0 0 0-.333-.192.705.705 0 0 0-.674 1.17l7.18 7.37a.705.705 0 1 0 1.007-.987z" fill="#282222"/><path d="M656.614 191.488c0 1.19-.584 2.198 1.29 3.59 1.873 1.391-.796 4.326-2.508 6.05-1.712 1.724-5.146 4.356-5.036 6.564.111 2.209 2.86 2.42 3.445 2.844.584.423 0 1.956-1.008 2.37a7.962 7.962 0 0 0-.896.474 1.876 1.876 0 0 0-.906 1.784 3.54 3.54 0 0 0 1.269 2.531.404.404 0 0 1-.06.686 2.733 2.733 0 0 0-1.642 2.571c0 1.583.735 1.936 1.923 2.239l.302.1a2.774 2.774 0 0 1 1.531 3.46 6.653 6.653 0 0 0-.282 2.59c.212 2.3 3.495 3.954 7.15 4.085a50.293 50.293 0 0 0 9.618-1.18l6.345-25.986-.796-18.372-7.624-8.591-.594-7.896s-5.72 5.89-7.25 7.795c-3.415 4.326-4.27 11.102-4.27 12.292zM694.52 202.741a6.92 6.92 0 0 1 3.344-5.919 4.73 4.73 0 0 1 1.36-.554c2.266-.494 5.035-.646 7.15 1.492a7.529 7.529 0 0 1 2.014 7.744c-.916 2.551-3.786 3.892-4.784 5.546-.997 1.654-.825 2.945-1.42 3.822a5.576 5.576 0 0 1-4.149 1.724c-1.47-.12-3.615-1.522-3.595-2.894l.08-10.96z" fill="#80514F"/><path d="M467.082 497.657l39.095 2.561s17.976-49.077 23.757-61.026c5.78-11.949 11.692-42.351 37.947-24.301 16.99 11.707 55.107 36.3 73.305 33.538 30.212-4.608 51.492-23.546 51.492-23.546l-72.51-44.64s-71.311-32.872-80.707-33.437c-9.396-.565-18.339 1.603-23.475 14.863" fill="#B78E92"/><path d="M539.461 373.941c-9.356-.565-18.339 1.603-23.475 14.863-5.136 13.26-37.04 113.169-37.04 113.169l56.134 9.075s3.434-28.234 6.788-41.04c4.572-17.526 5.6-56.922 31.864-38.832 16.99 11.707 65.671 28.022 83.88 25.209 30.212-4.608 35.086-31.512 35.086-31.512l-74.816-30.684s-69.025-19.683-78.421-20.248z" fill="#8C7789"/><path d="M667.34 263.031c-.171.085-.32.21-.433.363-1.622 2.209-14.321 19.573-17.745 28.234-3.666 9.217-13.586 28.82-17.201 45.548-2.165 9.993-14.814 31.098-19.9 46.082-3.283 9.67.876 21.297 10.625 24.312l69.8 17.404a1.207 1.207 0 0 0 1.551-.948c1.602-9.256 10.977-63.133 13.153-71.422a224.124 224.124 0 0 1 11.571-34.183c5.72-12.938 8.288-28.638 5.237-47.232a79.813 79.813 0 0 0-11.29-29.817 1.208 1.208 0 0 0-1.56-.414l-43.808 22.073z" fill="#FFF"/><path fill="#FFD488" d="M673.08 253.361l-7.553 11.94 47.151-23.98-4.22-8.652z"/><path d="M608.456 354.238c17.674-3.025 35.459-5.375 35.459-5.375s23.697 24.705 17.493 25.885c-6.204 1.18-44.714 2.016-62.912 1.27a278.926 278.926 0 0 1-29.145-2.712c-9.557-6.615-3.213-14.581-3.213-14.581" fill="#80514F"/><path d="M665.819 294.623c-5.378 16.053-13.092 43.027-13.092 43.027-1.662 5.445-11.944 7.633-18.127 8.47a3.283 3.283 0 0 0-2.477 1.728 3.291 3.291 0 0 0-.021 3.022l12.72 25.25a7.965 7.965 0 0 0 7.18 4.385l15.328-.12a15.106 15.106 0 0 0 11.732-7.987s27.594-43.299 31.39-59.745c8.53-37.007-33.988-49.803-44.633-18.03z" fill="#D8D7CD"/><path d="M516.751 345.193s1.37 31.531 11.39 31.622l9.84.09c2.477 0 4.43-1.673 5.982-4.275 5.77-11.223 5.73-27.135 5.73-27.135l-32.942-.302z" fill="#FFF"/><path d="M583.964 356.96c-12.226.525-20.253-4.729-23.808-6.423-8.056-3.812-14.683.948-17.452 1.956-2.77 1.009-7.302 1.593-12.236 2.239-4.935.645-6.476 1.452-6.305 2.561.313 2.017 5.116 1.462 9.256 1.361l5.901-.14c-2.014.332-8.188 1.31-12.669 2.167-4.482.857-5.71 1.392-5.468 2.561.332 1.583 6.858.131 16.354.192 5.831 0-13.162 1.18-14.31 2.48-1.722 2.017 2.367 2.683 7.271 2.723 20.826.182-.141.787-3.233.726-3.091-.06-.856 1.805 1.531 2.753 2.387.948 8.852 1.795 18.127 1.13 7.715-.545 22.408 0 22.408 0s12.447-11.395 14.633-16.286z" fill="#80514F"/><path fill="#80514F" d="M566.612 353.794l-16.93-8.299-.25 5.092z"/></g><path d="M70.203 315.174v-.121c-.18 0-1.208.12-2.8.12h2.8zM70.264 315.174h2.78c-1.602 0-2.64-.101-2.81-.121v.12h.03z" fill="#9F7289" fill-rule="nonzero"/><path d="M674.349 404.636c1.178.15 2.76.302 4.33.584 1.571.283 3.304.666 4.925 1.1 4.592 1.23 9.668 2.53 14.25 3.791.473.131.252 0 .353-.514.433-2.108.896-4.215 1.268-6.343.086-.696.086-1.4 0-2.097a.767.767 0 0 1 .403-.787c.309-.314.48-.739.474-1.18 0-.191-.474-.524-.776-.564a474.262 474.262 0 0 0-9.245-1.331c-2.014-.262-4.028-.434-5.992-.676a5.035 5.035 0 0 1-3.464-2.148 23.23 23.23 0 0 0-7.684-6.483 44.094 44.094 0 0 1-4.633-3.48c-.322-.241-.896-.554-1.108-.423-.35.284-.565.7-.594 1.15a3.34 3.34 0 0 0 1.32 2.611c1.007.918 2.014 1.755 3.02 2.673.222.201.504.665.424.816a1.44 1.44 0 0 1-.866.494 2.273 2.273 0 0 1-.947 0 40.778 40.778 0 0 1-10.161-3.085 10.785 10.785 0 0 0-4.522-1.17c-.745 0-1.5-.212-2.236-.192-.735.02-.876.374-.534 1.009.328.668.745 1.289 1.239 1.845 1.249 1.24 2.588 2.39 3.867 3.61.484.445.913.946 1.28 1.492a6.389 6.389 0 0 0 2.366 2.36c.287.14.538.343.735.595a8.943 8.943 0 0 0 4.099 2.864c1.863.806 3.706 1.684 5.569 2.49.816.313 1.641.555 2.84.989z" fill="#80514F" fill-rule="nonzero"/><path d="M726.646 380.858l19.86-1.714s-5.388 17.536-7.936 22.708c-2.548 5.173-5.69 15.055-8.943 15.126-3.252.07-23.515-4.951-32.538-7.059-6.808-1.573-13.394-3.216-16.698-4.346 1.632-3.257 9.82-8.359 9.82-8.359s6.576.948 14.582 1.684c6.13.509 12.285.626 18.43.353l3.423-18.393z" fill="#80514F" fill-rule="nonzero"/><path d="M650.572 374.91s1.35 19.723 11.229 19.783l9.698.06a7.8 7.8 0 0 0 5.891-2.672c5.69-7.058 5.64-16.97 5.64-16.97l-32.458-.202z" fill="#9A8479" fill-rule="nonzero"/><path d="M749.578 358.886c-2.75-8.48-7.11-17.515-5.036-23.858 2.075-6.342 9.195-13.703 10.736-18.725 1.54-5.022 3.978-13.512-9.346-21.488-12.085-7.23-28.259-6.434-37.262 3.61a14.892 14.892 0 0 0-4.119 9.075c-.856 8.238 2.649 7.714.262 11.929s-5.368 3.71-5.922 5.183c-.554 1.472 1.42 3.56 4.432 3.61 0 0 1.6.665.312 2.128-1.632 1.855 0 2.51.08 2.621.349.14.715.23 1.088.273.514 0 1.007-.121.947.11-.06.232-1.551.212-1.783 1.09-.473 1.875 1.662 2.218 1.662 2.218s1.138 1.008 0 2.712c-1.138 1.705.685 5.476 6.928 4.538 6.244-.938 8.238-1.563 9.94-.09 1.702 1.471 6.536 5.868 3.626 13.36a6.233 6.233 0 0 1-1.702 2.904c-1.28 1.12-1.239 9.388-3.726 12.847-2.488 3.458-12.88 17.858-10.706 19.159a20.587 20.587 0 0 0 6.043 2.016c1.48.373 2.95.787 4.42 1.22l20.142 4.7c.675-2.552 3.193-16.407 3.596-18.797 1.964-12.17 8.097-13.875 5.388-22.345z" fill="#80514F" fill-rule="nonzero"/><path d="M714.179 293.746a4.351 4.351 0 0 1 4.119 3.096c.189.643.496 1.244.906 1.774 1.642 2.108 1.42 3.157 4.441 3.086 3.022-.07 5.61 1.533 6.043 3.317.433 1.785-.292 6.575-2.216 9.792-1.923 3.216-3.021 7.17-1.883 8.117 1.138.948 3.615 2.551 5.116-.555 1.5-3.105 1.098-4.033 3.515-5.173 2.417-1.139 8.348-.1 7.563 4.276-.786 4.376-7.05 10.638-7.05 10.638a42.29 42.29 0 0 0 4.3 6.05 29.978 29.978 0 0 0 6.043 4.034 17.037 17.037 0 0 1 3.313-5.91c2.437-2.782 11.511-10.607 11.642-20.63.13-10.023-3.394-19.26-16.234-26.117-12.84-6.857-26.134 1.432-29.618 4.205z" fill="#2C2E47" fill-rule="nonzero"/><ellipse fill="#2C2E47" fill-rule="nonzero" transform="rotate(-89.23 758.606 285.407)" cx="758.606" cy="285.407" rx="16.949" ry="16.971"/><path d="M628.265 398.394c5.942-7.748 16.765-9.758 25.086-4.659l22.65 13.926c3.615 2.228 22.598 15.82 24.552-.474.816-6.756 7.271-24.564 14.754-38.852a124.887 124.887 0 0 1 11.571-17.284c.1 0 .222 9.791 21.028-2.632 0 0 17.301 15.247 5.921 65.08-.302 1.331-1.077 4.84-2.406 9.388a64.568 64.568 0 0 1-8.883 17.929c-14.21 20.63-79.75 15.841-79.75 15.841-7.05-1.543-53.375 1.583-60.143 4.286l-17.684-3.298s27.13-38.166 43.304-59.251z" fill="#EA626A" fill-rule="nonzero"/><path d="M670.764 406.814c1.128.373 2.658.826 4.139 1.391a60.32 60.32 0 0 1 4.632 2.017c4.27 2.087 9.064 4.316 13.274 6.433.443.222.251 0 .443-.433.826-2.017 1.682-3.973 2.447-5.98.2-.672.32-1.366.352-2.067 0-.383.182-.524.554-.696.365-.249.616-.634.695-1.069 0-.181-.372-.605-.654-.706a359.447 359.447 0 0 0-8.822-3.025c-1.904-.635-3.837-1.19-5.75-1.795a5.038 5.038 0 0 1-3.022-2.773 23.247 23.247 0 0 0-6.324-7.875 44.126 44.126 0 0 1-3.888-4.295c-.272-.293-.775-.716-1.007-.626a1.613 1.613 0 0 0-.795 1.009 3.34 3.34 0 0 0 .795 2.813c.796 1.09 1.672 2.118 2.467 3.197.182.242.373.756.252.887a1.439 1.439 0 0 1-.946.323 2.274 2.274 0 0 1-.927-.212 40.8 40.8 0 0 1-9.386-4.961 10.79 10.79 0 0 0-4.22-2.017c-.735-.151-1.43-.494-2.165-.615-.735-.121-.936.202-.715.867.212.732.523 1.431.927 2.077 1.007 1.462 2.094 2.844 3.112 4.276.402.529.74 1.104 1.007 1.714a6.393 6.393 0 0 0 1.883 2.763c.254.193.46.441.604.726a8.949 8.949 0 0 0 3.485 3.59c1.681 1.15 3.313 2.36 5.035 3.509.665.504 1.46.897 2.518 1.553z" fill="#80514F" fill-rule="nonzero"/><path d="M726.626 393.423l19.83 2.097s-8.61 16.184-12.085 20.782c-3.475 4.598-8.44 13.694-11.642 13.109-3.203-.585-22.156-9.337-30.615-13.109-6.385-2.833-12.538-5.707-15.57-7.441 2.226-2.884 11.23-6.333 11.23-6.333s6.273 2.178 13.998 4.427a144.94 144.94 0 0 0 18.036 3.852l6.818-17.384z" fill="#80514F" fill-rule="nonzero"/></g><path d="M492.663 74.286l-30.15 27.255" fill="#774D63" fill-rule="nonzero" style="mix-blend-mode:multiply"/><path fill="#EEB530" fill-rule="nonzero" d="M497.032 806.277l-428.006-3.634-1.37-301.958 429.87-1.026z"/><g transform="translate(67.683 477.27)" fill-rule="nonzero"><ellipse fill="#BC6E39" cx="178.566" cy="257.524" rx="34.124" ry="34.071"/><path d="M203.737 247.272c5.03.936 7.927 5.67 8.812 7.322a33.996 33.996 0 0 0-.603-4.11 13.66 13.66 0 0 0-7.877-4.965c-3.28-.614-6.771.212-10.443 2.458a55.286 55.286 0 0 0-6.288-7.382c6.238-3.747 11.952-5.842 16.5-5.943a37.198 37.198 0 0 0-1.65-1.681c-4.639.513-10.202 2.729-16.178 6.355a45.28 45.28 0 0 0-3.018-2.559c-1.006-.775-1.81-1.4-2.706-2.014a13.084 13.084 0 0 0 5.322-5.036 7.743 7.743 0 0 0 .573-5.337 50.66 50.66 0 0 0-1.961-.393 6.2 6.2 0 0 1-.212 4.915c-.935 1.853-2.847 3.384-5.352 4.733a59.5 59.5 0 0 0-14.356-7.05 34.52 34.52 0 0 0-2.334 1.179h.111a55.212 55.212 0 0 1 14.708 6.747 107.655 107.655 0 0 1-13.078 4.522c-6.992 2.095-13.682 4.11-17.344 7.191a33.758 33.758 0 0 0-1.278 4.684.886.886 0 0 0 .382-.494c1.338-4.441 10.192-7.05 18.753-9.658a96.327 96.327 0 0 0 14.346-5.086 59.728 59.728 0 0 1 3.42 2.538c.805.644 1.63 1.35 2.455 2.094a102.44 102.44 0 0 0-13.893 10.878c-8.712 8.057-17.676 18.924-19.527 26.447.47.671.962 1.296 1.479 1.873.603-6.043 8.46-17.04 19.265-27.001 4.34-4.053 9.03-7.713 14.014-10.938a53.493 53.493 0 0 1 6.378 7.403 38.06 38.06 0 0 0-4.869 4.17c-2.505 2.507-4.386 10.605-6.368 19.135-1.811 7.815-3.843 16.598-6.117 19.065.684.08 1.378.13 2.083.171 2.243-3.545 3.973-11.008 5.784-18.833 1.811-7.826 3.743-16.175 5.886-18.32a36.46 36.46 0 0 1 4.617-3.968c5.03 7.594 8.974 17.816 9.366 31.342a36.388 36.388 0 0 0 1.71-1.813c-.683-13.042-4.617-23.023-9.577-30.516 3.21-1.914 6.248-2.649 9.065-2.125z" fill="#CC5600"/><path d="M178.566 223.453a34.4 34.4 0 0 0-5.403.433c16.534 2.617 28.71 16.886 28.71 33.644 0 16.757-12.176 31.026-28.71 33.643a34.4 34.4 0 0 0 5.403.433c18.796 0 34.034-15.254 34.034-34.071 0-18.818-15.238-34.072-34.034-34.072v-.01z" fill="#000" opacity=".1" style="mix-blend-mode:multiply"/><path d="M115.619 324.665c5.547 0 10.866.356 14.778-3.582 3.913-3.937 6.096-3.438 6.067-8.992l-1.58-290.86a20.879 20.879 0 0 0-6.509-15.037A20.833 20.833 0 0 0 114.04.474H11.585C.073.473 2.712 9.815 2.712 21.34v290.87c.005 11.522-2.635 12.454 8.873 12.454H115.62z" fill="#6E7D96" opacity=".41"/><path fill="#6E7D96" opacity=".22" style="mix-blend-mode:multiply" d="M68.356 332.415h-8.752V.473h8.752z"/><ellipse fill="#6E7D96" opacity=".22" style="mix-blend-mode:multiply" cx="28.98" cy="157.012" rx="9.416" ry="9.427"/><ellipse fill="#6E7D96" opacity=".22" style="mix-blend-mode:multiply" cx="98.999" cy="157.012" rx="9.416" ry="9.427"/><path d="M416.2 127.241s-41.932-6.908-51.952 16.91c-11.992 28.472-1.217 39.822-5.13 71.698-3.914 31.876-5.483 57.467-23.914 66.33-18.43 8.863-240.692 3.455-250.44 3.455-48.139 0-41.086 39.852-41.086 39.852l354.262-.645 2.465-36.045 15.794-161.555z" fill="#D58F45"/><path d="M266.603 213.513c1.358 0 3.17 0 5.03.09 1.861.091 3.833.323 5.735.595 5.362.785 11.297 1.58 16.66 2.407.553.09.291-.06.331-.635.212-2.447.463-4.895.604-7.352a9.87 9.87 0 0 0-.332-2.377.867.867 0 0 1 .362-.947c.308-.397.446-.9.383-1.4 0-.211-.614-.533-.956-.543a537.24 537.24 0 0 0-10.654-.282h-6.881a5.722 5.722 0 0 1-4.216-2.015 26.507 26.507 0 0 0-9.567-6.324 50.288 50.288 0 0 1-5.704-3.334c-.392-.232-1.097-.504-1.318-.332-.359.37-.545.875-.513 1.39a3.807 3.807 0 0 0 1.841 2.78c1.237.906 2.545 1.721 3.793 2.618.281.201.664.695.583.876a1.64 1.64 0 0 1-.915.675 2.593 2.593 0 0 1-1.077.09 46.543 46.543 0 0 1-12.012-2.094 12.311 12.311 0 0 0-5.281-.726c-.845.08-1.72 0-2.566.08-.845.082-.945.535-.483 1.19a9.393 9.393 0 0 0 1.72 1.933c1.58 1.249 3.25 2.367 4.86 3.575a9.5 9.5 0 0 1 1.65 1.531 7.295 7.295 0 0 0 3.018 2.357c.342.123.652.323.905.584a10.198 10.198 0 0 0 5.03 2.71c2.224.664 4.427 1.42 6.64 2.084.926.322 1.892.483 3.33.796z" fill="#84523D"/><path d="M322.72 179.653l22.293-4.583s-3.783 20.586-6.036 26.79c-2.254 6.204-4.457 17.816-8.129 18.32-3.672.503-27.304-2.498-37.817-3.656-7.917-.876-15.613-1.873-19.506-2.71 1.418-3.907 10.06-10.776 10.06-10.776s7.575.202 16.75 0a165.425 165.425 0 0 0 20.946-2.014l1.438-21.371z" fill="#84523D"/><path d="M324.63 158.342c1.942-1.833 3.019-5.912 5.413-7.534 8.511-5.81 13.079-6.042 13.079-6.042s16.096 21.25 19.869 45.452c2.324 14.714 4.114 38.27-4.699 62.372-8.812 24.1-20.573 40.013-38.229 42.954 0 0 1.419-10.595-5.03-28.834-4.527-12.77-17.424-15.027-16.096-18.25 1.056-2.548 7.807-18.249 7.424-35.481-.835-37.637 10.644-47.406 18.27-54.637z" fill="#E2E0D6"/><path d="M342.126 144.776a76.626 76.626 0 0 1 .332-19.136c1.317-9.96-4.8-23.637-14.779-28.844-8.048-4.19-22.666-7.534-36.891 5.267a42.773 42.773 0 0 0-10.412 14.845v.06l20.432 13.516 26.277 10.626 8.612 2.699 6.429.967z" fill="#2C2E47"/><path d="M280.345 116.949s-3.732 6.284-1.006 15.741c1.68 5.73 2.948 8.58 8.049 11.129 5.1 2.548 5.764 5.811 4.899 8.651-.865 2.84-1.378 4.19-.352 5.429a3.237 3.237 0 0 0 3.521.926c1.207-.252 1.881 1.803 2.384 2.558 1.288 1.924 2.012-.513 2.918 0 .905.514.18 1.894.603 2.548.423.655 1.61-.08 3.32.846 1.71.927 2.063 2.8 4.085 3.384 2.022.585 4.024 1.138 6.559-2.205 2.535-3.344 4.96-13.536 9.99-16.739 5.03-3.203 11.116-3.444 16.76-4.482 0 0-9.054-4.512-10.06-7.17-1.006-2.66-2.294-9.84-3.38-12.277-1.449-3.263-5.191-4.432-7.183-3.495-1.992.937-2.123 2.679-2.676 3.928-.554 1.249-2.203 5.871-6.288 3.907-4.084-1.964-4.125-2.93-6.167-3.837-2.042-.906-4.95-1.249-6.8-2.226-1.852-.976-2.335-1.661-4.548-3.585a17.722 17.722 0 0 0-6.81-3.968c-2.928-.977-7.818.937-7.818.937z" fill="#84523D"/><path d="M316.904 163.388s2.455-4.371 3.743-1.008c7.837-2.88 21.529-17.604 21.529-17.604l-19.416-5.53-5.856 24.142z" fill="#84523D"/><path d="M201.543 283.005l2.012 13.465-44.597 4.583c-.02-.896.14-1.787.473-2.619.574-1.611 7.213-2.115 12.394-7.17a74.774 74.774 0 0 1 12.475-9.306s10.07 8.48 17.243 1.047z" fill="#5E90AD"/><path fill="#E2E0D6" d="M203.596 296.42l.392 3.354-44.768 4.31-.302-3.031z"/><path d="M251.774 249.347l-10.694-11.945-38.601 39.278-13.893-2.226 36.217-61.797a6.033 6.033 0 0 1 7.827-2.428l34.808 16.376-15.664 22.742z" fill="#724433"/><path fill="#E2E0D6" d="M195.417 262.822l13.722 6.164-20.553 5.499z"/><path d="M256.07 261.382s-40.19 5.126-52.313 6.043c-12.123.916-31.5 7.05-38.45 8.379-11.067 2.085-14.75 9.668-6.63 13.657 4.95 2.427 11.066 2.205 17.977 2.205 6.912 0 23.561.444 30.584-.886 7.022-1.33 60.25 8.722 60.25 8.722l-11.418-38.12z" fill="#84523D"/><path fill="#C14F3D" d="M249.722 250.152l16.016-28.109 31.096 16.185 6.61 15.016-40.704 9.367z"/><path d="M279.54 208.225l-8.168 19.7a2.879 2.879 0 0 1-3.763 1.56l-44.185-18.37a2.879 2.879 0 0 1-1.559-3.766l8.17-19.7a2.879 2.879 0 0 1 3.762-1.56l44.194 18.36a2.879 2.879 0 0 1 1.55 3.766v.01z" fill="#2C2E47"/><path d="M273.897 217.43a2.534 2.534 0 0 1-3.315 1.364 2.539 2.539 0 0 1-1.365-3.317 2.534 2.534 0 0 1 4.685.007 2.54 2.54 0 0 1-.005 1.946zM229.078 198.798l-1.297 3.123a.845.845 0 1 1-1.56-.645l1.298-3.122a.845.845 0 1 1 1.56.644zM230.386 195.666l-.322.786a.845.845 0 1 1-1.56-.645l.323-.785a.845.845 0 0 1 1.56.644z" fill="#424A60"/><path d="M224.974 211.861a.151.151 0 0 0 .07.191l40.13 16.709a.15.15 0 0 0 .182-.09l10.452-25.18a.151.151 0 0 0-.07-.19l-40.13-16.709a.15.15 0 0 0-.182.09l-10.452 25.179z" fill="#4E1D4E"/><path d="M231.392 214.721s10.634-6.264 15.423-10.333a51.19 51.19 0 0 0 8.903-9.397l-17.042-7.05-10.574 25.45 3.29 1.33z" fill="#451746"/><path d="M228.374 213.432s10.634-6.264 15.423-10.333a51.19 51.19 0 0 0 8.903-9.397l-17.042-7.05-10.574 25.45 3.29 1.33z" fill="#36133E"/><path d="M225.074 212.072s10.634-6.264 15.423-10.333a51.189 51.189 0 0 0 8.903-9.376l-13.913-5.791-10.574 25.45.161.05z" fill="#2A133E"/><path fill="#FF0F1D" d="M235.574 191.077l1.103 1.718-1.72 1.104-1.103-1.718z"/><path fill="#E824A9" d="M251.234 197.252l1.533 1.349-1.35 1.534-1.533-1.348z"/><path fill="#D6CC31" d="M256.575 217.037l1.067 2.586-2.589 1.068-1.067-2.586z"/><path fill="#FF5E4B" d="M235.567 216.443l-2.203-.916.966-1.974 2.163 1.047z"/><path fill="#43C67E" d="M272.119 202.158l.955 2.315-2.318.957-.956-2.316z"/><path fill="#00A1FB" d="M268.424 221.298l-.805-1.722 2.042-1.26z"/><path fill="#EEB51E" d="M259.865 203.065l.594 1.441-1.443.596-.594-1.441z"/><path fill="#4E1D4E" d="M242.876 198.689l.381.924-.924.382-.381-.925z"/><path fill="#FF852E" d="M264.91 224.128l.381.924-.924.382-.382-.925z"/><path fill="#561162" d="M229.61 207.542l.382.924-.924.381-.382-.924z"/><path d="M238.455 202.414l2.122.876" stroke="#FF0063" stroke-width=".69" fill="#FFF" stroke-linecap="round" stroke-linejoin="round"/><path fill="#EEB500" d="M236.422 201.568l-1.388-2.8-1.57 3.787z"/><path fill="#EEB500" d="M233.485 202.535l-.694-1.39-.785 1.883zM234.27 200.652l-.695-1.39-.784 1.883zM235.054 198.768l-.694-1.4-.785 1.894z"/><path d="M242.871 204.247l2.123.886M247.277 206.09l2.133.876M251.694 207.923l2.133.886M256.11 209.766l2.123.876M260.527 211.6l2.122.885M264.943 213.442l2.123.876M269.36 215.275l2.122.886" stroke="#FF0063" stroke-width=".69" fill="#FFF" stroke-linecap="round" stroke-linejoin="round"/><path d="M311.633 218.548l-2.143 8.581a4.105 4.105 0 0 1-4.265 3.102c-9.175-.644-32.888-1.752-42.807-3.837-4.094-.866-6.67-.524-7.696-4.34-.402-1.522-1.73-4.03-3.964-8.108-1.368-2.528-.925-7.05-3.31-5.318-2.384 1.732-.674 5.318-.674 5.318l.302.342c-2.525-2.397-5.03-4.562-6.308-5.6-1.58-1.279-4.024-4.542-5.15-3.091-1.268 1.702 4.376 6.445 4.889 7.986v.07h-.292a2.111 2.111 0 0 0-2.193 2.196c.07.605.201 1.007-.342 1.007a2.295 2.295 0 0 0-2.274 2.015c-.09 1.259.523 1.46 0 1.58a2.012 2.012 0 0 0-1.64 2.73c.946 3.304 4.025 5.781 7.586 7.715 19.114 10.393 48.56 15.57 74.285 21.15a8.428 8.428 0 0 0 9.577-5.036l10.805-26.518-24.386-1.944z" fill="#84523D"/><path d="M335.556 173.962c-3.611-1.661-8.33-3.665-15.905-.1-6.851 3.233-7.334 12.64-8.46 21.462-1.178 9.225-1.741 22.157-1.741 22.157l31.398 5.811s12.273-41.283-5.292-49.33z" fill="#E2E0D6"/><path d="M253.525 261.04l49.919-7.796 50.764 9.367s-2.616 29.368-20.292 34.242c-17.675 4.875-72.594 9.236-72.594 9.236s-11.6-26.73-7.797-45.05z" fill="#D3553B"/><path fill="#E2E0D6" d="M151.081 278.17l20.201-4.078 3.934 17.957-19.87 1.41-1.8-6.546z"/><path d="M158.908 294.255l-12.575 5.207-15.09-42.3a6.613 6.613 0 0 1 2.655-.161c1.7.171 3.773 6.506 9.91 10.343a74.786 74.786 0 0 1 11.991 9.91s-5.895 11.794 3.109 17z" fill="#5E90AD"/><path fill="#E2E0D6" d="M146.333 299.452l-3.15 1.178-14.848-42.501 2.877-1.017z"/><path d="M416.21 324.58h-18.25V134.07c0-8.577 6.945-15.53 15.513-15.53h2.736v206.04z" fill="#AA7E45"/><path fill="#CAC5CD" opacity=".3" style="mix-blend-mode:multiply" d="M295.832 10.414L.462 234.32 1.047 9.034zM231.463 339.959c7.776-.554 184.736-165.04 184.736-165.04v165.04H231.463z"/></g><path d="M67.59 445.248l-45.82 36.523a11.621 11.621 0 0 0-.27 11.875c2.092 3.714 6.051 6.015 10.347 6.013h788.235l.333-54.51-752.826.1zM132.706-25L21.77 74.674a11.887 11.887 0 0 0-.27 12.02 11.837 11.837 0 0 0 10.348 6.086h786.32L818.47-25H132.706z" fill="#2C2E47" fill-rule="nonzero"/><path fill="#2C2E47" fill-rule="nonzero" d="M67.655 92.78h23.341v354.315H67.655zM67.655 499.659h23.342v303.698H67.655V679.651zM479.047 499.659h23.341v302.725h-23.341z"/><path d="M220.347 390.781l6.35 19.325a61.873 61.873 0 0 1 15.751-3.094c7.728-.576 8.255-.223 8.255-.223s-3.251-4.56 3.92-10.112c3.92-3.034 6.31-9.375 5.409-15.513-1.013-6.948-4.872-6.31-3.039-17.313 1.833-11.003-8.103-15.068-8.103-15.068l-28.543 41.998z" fill="#7C4B39" fill-rule="nonzero"/><path d="M258.358 352.209c-4.31-9.369-22.47-17.181-42.65-8.267l-.807.364c-17.908 8.246-21.471 32.239-6.935 45.58 7.793 7.144 16.484 15.017 17.312 15.32.828.304 5.512-1.536 9.7-3.314a17.727 17.727 0 0 0 9.57-9.864l.05-.132c.51-1.299.51-2.743 0-4.042a28.211 28.211 0 0 1-1.009-3.285c-1.706-6.74-2.443-10.015 1.191-12.208 2.474-1.496 4.392 1.91 5.482 3.85a.545.545 0 0 0 .828.142l.484-.435a10.715 10.715 0 0 0 2.847-4.73l1.08-4.507c.727-3.133 5.754-8.186 2.857-14.472z" fill="#2C2E47" fill-rule="nonzero"/><path d="M193.115 445.149s3.213-29.39 31.129-36.31c37.916-9.395 52.559 7.277 62.237 36.29l-93.366.02z" fill="#F49088" fill-rule="nonzero"/><g transform="translate(491.69 498.685)"><path fill="#251F2B" fill-rule="nonzero" d="M1.218.816h363.311v302.628H1.218z"/><ellipse fill="#BE1E2D" fill-rule="nonzero" transform="rotate(-77.09 229.812 174.302)" cx="229.812" cy="174.302" rx="4.299" ry="4.3"/><path d="M146.482 180.273c2.497-1.39 39.266-12.085 41.773-13.404 1.43-.756 6.635-2.68 8.055-3.394 1.749-.97 3.566-1.81 5.437-2.518 2.859-.937 3.654-.776 5.779 2.145a10.22 10.22 0 0 0 3.856 3.404 26.72 26.72 0 0 1 3.715 2.619c.644.406 1.253.864 1.822 1.37 1.289 1.309 2.517 2.678 3.746 4.028a9.213 9.213 0 0 0 3.383 2.86c1.087.423 1.48.151 1.64-1.007.323-2.397-.845-4.16-2.416-5.75-.825-.837-1.721-1.612-2.517-2.468-.503-.544-1.198-1.189-.775-2.014.423-.826.544-2.176 1.903-2.417 7.863.19 12.082 10.504 12.625 10.514.947 0 1.178-.453.886-1.33-.684-2.074-1.278-4.18-1.933-6.274a3.082 3.082 0 0 0-.493-1.208c-1.36-1.43-2.779-2.79-4.158-4.19a5.61 5.61 0 0 1-1.279-1.51 5.397 5.397 0 0 0-3.926-3.022c-3.122-.866-6.263-1.672-9.384-2.558-1.067-.302-2.074-.806-3.141-1.108-2.225-.624-4.46-1.229-6.726-1.702a5.496 5.496 0 0 0-2.316.282c-2.315.584-4.59 1.33-6.916 1.833-3.383.735-6.796 1.33-10.2 1.934-1.399.251-19.975 2.679-21.394 2.85-46.646 2.9-97.712 41.614-17.046 22.035z" fill="#7C4B39" fill-rule="nonzero"/><g fill-rule="nonzero"><path fill="#603813" d="M92.355 224.193h101.67v128.78H92.354z"/><path fill="#3B2314" d="M189.03 224.193h96.675v128.78H189.03zM158.554 251.778a4.028 4.028 0 0 1-4.027 4.029h-27.668a4.027 4.027 0 0 1-4.011-6.174 4.027 4.027 0 0 1 4.011-1.782h27.728a4.028 4.028 0 0 1 4.027 4.028"/><path fill="#603813" d="M214.352 273.904h46.032v54.183h-46.032z"/><path d="M219.275 251.778a4.028 4.028 0 0 1-4.027 4.029h-.916a4.027 4.027 0 0 1-4.012-6.174 4.027 4.027 0 0 1 4.012-1.782h.916a4.028 4.028 0 0 1 4.027 4.028v-.1zm18.123-3.927h-.926a4.027 4.027 0 0 0-4.012 6.173 4.027 4.027 0 0 0 4.012 1.783h.926a4.027 4.027 0 0 0 4.011-6.174 4.027 4.027 0 0 0-4.011-1.782zm23.016 0h-.926a4.027 4.027 0 0 0-4.012 6.173 4.027 4.027 0 0 0 4.012 1.783h.926a4.027 4.027 0 0 0 4.011-6.174 4.027 4.027 0 0 0-4.011-1.782z" fill="#161914"/><path d="M237.368 224.194c-14.126-.034-25.574-11.471-25.624-25.601V191.1v-1.47h51.167V198.592c-.05 14.13-11.498 25.567-25.624 25.6" fill="#999885"/><path d="M211.744 191.11v-1.47h27.084V198.603a25.662 25.662 0 0 1-13.592 22.58 25.662 25.662 0 0 1-13.582-22.58v-7.493" fill="#FFF" style="mix-blend-mode:soft-light"/><path d="M77.606 227.608a4.028 4.028 0 0 1 4.027-4.029h214.765a4.027 4.027 0 0 1 4.011 6.174 4.027 4.027 0 0 1-4.011 1.782H81.552a4.028 4.028 0 0 1-4.027-4.028l.08.1zm218.68 117.268H81.553a4.027 4.027 0 0 0-4.011 6.174 4.027 4.027 0 0 0 4.011 1.782h214.765a4.027 4.027 0 0 0 4.012-6.173 4.027 4.027 0 0 0-4.012-1.783h-.03z" fill="#000"/></g><path d="M95.567 125.275c6.313-8.178 14.62-16.346 14.82-24.09.202-7.745-4.67-18.602-4.41-24.644.263-6.043.635-23.95 18.315-27.444 17.68-3.495 36.527 9.295 38.017 23.868 0 0 4.894 4.472 2.608 13.808-2.285 9.336-5.91 7.392-4.943 12.931.966 5.54 4.42 6.154 4.44 7.977.02 1.822-2.94 3.333-6.253 2.215 0 0-2.013.101-1.168 2.206 1.058 2.659-1.006 2.73-1.107 2.83a4.882 4.882 0 0 1-1.299-.121c-.574-.161-1.007-.514-1.077-.242-.07.272 1.62.836 1.52 1.884-.211 2.235-2.678 1.772-2.678 1.772s-1.631.625-1.007 3.021c.624 2.397-2.89 5.71-9.343 2.246-6.454-3.464-8.397-4.924-10.834-4.028-2.436.896-9.433 3.847-9.182 13.173a7.233 7.233 0 0 0 .725 3.837 77.45 77.45 0 0 1 4.853 12.267c1.37 4.743 10.37 15.831 13.3 18.289.634.534 1.46 1.32 2.386 2.256-3.02 1.38-5.92 2.91-8.88 4.33-2.658 1.28-5.507 2.88-8.407 3.505-2.446.524-4.923.11-7.38-.12a131.93 131.93 0 0 0-5.316-.404l-33.124-9.416c.262-3.021.624-5.992 1.127-8.752a75.353 75.353 0 0 1 14.297-33.154z" fill="#7C4B39" fill-rule="nonzero"/><path d="M162.3 72.945s3.292-12.287.593-19.195c-4.621-11.834-54.469-12.247-60.801-3.394-8.055 11.24-3.172 20.535 6.866 42.298 0 0 32.752 3.022 53.341-19.709zM53.714 304.088c-4.128-41.241 11.87-63.871 15.827-68.665 7.753-9.406 9.504-56.106 10.652-68.826l.504-3.404c21.999 11.078 58.949 2.729 58.949 2.729l.201.13c.383.384.725.706 1.007.938 2.93 2.467 10.129 10.312 10.944 13.817.816 3.505-2.607 16.85-13.088 17.876l-.836 3.576s.181 53.206 1.802 102.373l-85.962-.544z" fill="#EEB51E" fill-rule="nonzero"/><path d="M116.036 153.222l-25.352.484s10.19 40.053 13.34 47.395c3.152 7.341 6.766 21.21 11.257 21.542 4.49.332 32.862-5.127 45.498-7.352 9.525-1.672 18.757-3.475 23.399-4.784-2.014-4.623-12.968-12.257-12.968-12.257s-9.162.826-20.278 1.26c-8.513.255-17.035-.03-25.512-.857l-9.384-45.43z" fill="#7C4B39" fill-rule="nonzero"/><path d="M127.473 95.585a6.97 6.97 0 0 0-4.927 11.897 6.966 6.966 0 0 0 11.895-4.928 6.97 6.97 0 0 0-6.968-6.969zm0 11.491a4.511 4.511 0 1 1 .002-9.022 4.511 4.511 0 0 1-.002 9.022z" fill="#F45E5D" fill-rule="nonzero"/><path fill="#7C4B39" fill-rule="nonzero" d="M125.943 95.041h2.527v3.898h-2.527z"/><path d="M105.374 112.918s2.547 21.522 18.988 21.149c0 0 1.853 14.311 6.847 21.34 6.776 9.538-28.815-21.954-57.389 76.3-5.034 17.282-12.827 18.34-12.827 18.34s14.307-32.53 20.288-91.648c2.104-20.908 24.093-45.481 24.093-45.481z" fill="#F45E5D" fill-rule="nonzero"/><path fill="#B1B3B6" fill-rule="nonzero" style="mix-blend-mode:multiply" d="M153.117.967l211.855 164.945V.967zM220.775 303.594C211.493 300.574.594 108.688.594 108.688v194.906h220.181z"/><g style="mix-blend-mode:multiply" fill-rule="nonzero"><path d="M304.966 96.844c0-12.737-10.323-23.063-23.057-23.063-12.733 0-23.056 10.326-23.056 23.063 0 12.737 10.323 23.063 23.056 23.063 6.115 0 11.98-2.43 16.304-6.755a23.066 23.066 0 0 0 6.753-16.308" fill="#D6D7DD"/><path d="M296.005 96.874c0 7.787-6.31 14.1-14.096 14.1-7.784 0-14.095-6.313-14.095-14.1s6.31-14.1 14.095-14.1c7.76.061 14.036 6.338 14.096 14.1" fill="#90A6AB"/></g><g style="mix-blend-mode:multiply" fill-rule="nonzero"><path d="M304.966 96.844c0-12.737-10.323-23.063-23.057-23.063-12.733 0-23.056 10.326-23.056 23.063 0 12.737 10.323 23.063 23.056 23.063 6.115 0 11.98-2.43 16.304-6.755a23.066 23.066 0 0 0 6.753-16.308" fill="#D6D7DD"/><path d="M296.005 96.874c0 7.787-6.31 14.1-14.096 14.1-7.784 0-14.095-6.313-14.095-14.1s6.31-14.1 14.095-14.1c7.76.061 14.036 6.338 14.096 14.1" fill="#90A6AB"/></g><path d="M329.23 120.33c4.43-1.843 7.158-4.905 7.27-9.84.11-4.934-2.377-8.258-6.847-10.262.956-1.53 2.819-1.903 3.594-3.565h-10.853c-1.459.01-2.911.185-4.33.523.615 1.45 2.215 1.914 3.02 3.153-.26.171-.392.272-.533.352a8.942 8.942 0 0 0-4.218 4.029c-.484 1.007-.846 2.084-1.249 3.132a8.06 8.06 0 0 0-.191 4.844 9.909 9.909 0 0 0 6.605 7.16c.39.184.763.4 1.117.645h6.645l-.03-.171z" fill="#B1B3B6" fill-rule="nonzero" style="mix-blend-mode:multiply"/><path d="M326.602 96.683c0-1.199-.06-2.457 0-3.495.06-1.037.141-1.108 1.239-1.289a4.913 4.913 0 0 0 3.171-1.581 7.937 7.937 0 0 0 1.178-3.021c.151-.464-.352-.746-.795-.786a3.775 3.775 0 0 0-2.336.272c-.564.332-1.158.604-1.913 1.007a17.62 17.62 0 0 1 0-2.165c.136-1.453.382-2.894.735-4.31a7.503 7.503 0 0 1 2.698-3.717 5.728 5.728 0 0 1 2.87-1.43c.292.494.523.937.795 1.35a2.648 2.648 0 0 0 2.557 1.248c.504 0 .796-.282.765-.795a2.962 2.962 0 0 0-.231-1.088c-.262-.554-.624-1.057-1.007-1.631.137-.107.286-.198.443-.272 1.681-.564 2.265-2.015 2.759-3.495.241-.725.06-1.249-.504-1.31-1.45-.16-2.91-.18-3.956 1.068a9.064 9.064 0 0 0-1.32 2.095 1.843 1.843 0 0 1-1.157 1.007c-.779.285-1.53.639-2.245 1.058-.876.533-1.672 1.188-2.679 1.913a6.216 6.216 0 0 1 .091-1.41c.322-.96.322-2 0-2.96-.322-1.008-.12-1.35.906-1.844.262-.13.554-.201.816-.332a3.485 3.485 0 0 0 1.812-2.961c0-.413-.141-.786-.604-.816a4.026 4.026 0 0 0-2.316.322c-.856.454-1.097 1.32-1.721 2.015a2.014 2.014 0 0 1-.383-.363 9.797 9.797 0 0 0-4.027-3.716 7.389 7.389 0 0 0-2.336-.836c-2.427-.342-4.621 1.712-5.034 4.22-.151.836.14 1.138 1.007 1.208a4.309 4.309 0 0 0 4.43-2.618 4.28 4.28 0 0 1 .312-.494 8.218 8.218 0 0 1 5.336 7.685c0 1.302-.02 2.605-.06 3.907 0 .776-.152 1.541-.222 2.317l-.322.07-.655-.544a4.218 4.218 0 0 0-3.1-1.108.886.886 0 0 0-1.008.907 4.37 4.37 0 0 0 3.414 4.602c.865.08 1.288.443 1.288 1.108a24.177 24.177 0 0 1-.231 2.458c-.725-.373-1.259-.675-1.813-.927-1.43-.634-2.194-.141-2.114 1.4.052.448.17.886.353 1.3.342.916 1.167 1.228 2.013 1.56 1.229.483 1.259.564 1.249 1.853 0 .715 0 2.659-.101 3.374l1.953-.01z" fill="#3D421C" fill-rule="nonzero"/><path fill="#000" fill-rule="nonzero" d="M254.363 119.595h90.03v6.385h-90.03z"/><path fill="#000" fill-rule="nonzero" d="M268.862 125.65v14.156h-6.385V125.65z"/><path d="M251.212 185.732a1.139 1.139 0 1 0 1.61-1.611 3.022 3.022 0 0 1 0-4.2 5.248 5.248 0 0 0 0-7.423 1.139 1.139 0 1 0-1.61 1.612 2.961 2.961 0 0 1 0 4.2 5.258 5.258 0 0 0 0 7.422zM258.028 172.519a1.139 1.139 0 1 0 1.61-1.612 3.022 3.022 0 0 1 0-4.2 5.238 5.238 0 0 0 0-7.422 1.139 1.139 0 1 0-1.61 1.612c.552.561.862 1.317.866 2.104a2.941 2.941 0 0 1-.866 2.095 5.258 5.258 0 0 0 0 7.423zM244.375 177.101c.214.213.504.333.806.332.302.003.593-.117.805-.332a1.128 1.128 0 0 0 0-1.611 3.022 3.022 0 0 1 0-4.2 5.238 5.238 0 0 0 0-7.422 1.139 1.139 0 1 0-1.61 1.61 2.972 2.972 0 0 1 0 4.2 5.258 5.258 0 0 0 0 7.423z" fill="#4F4345" fill-rule="nonzero"/><path d="M192.615 209.63c-1.641.132-3.846.212-6.041.494a88.92 88.92 0 0 0-6.897 1.168c-6.434 1.37-13.552 2.78-19.985 4.2-.665.151-.353 0-.453-.735-.443-2.95-.937-5.892-1.3-8.853-.043-.968.032-1.94.222-2.89a1.007 1.007 0 0 0-.503-1.118 2.287 2.287 0 0 1-.574-1.662c0-.261.695-.684 1.107-.725 4.29-.423 8.579-.826 12.878-1.158 2.768-.221 5.557-.312 8.326-.493a6.947 6.947 0 0 0 4.944-2.72 32.159 32.159 0 0 1 11.075-8.389c2.376-1.158 4.42-3.021 6.655-4.471.463-.313 1.288-.695 1.57-.504.463.417.73 1.009.735 1.632a4.613 4.613 0 0 1-2.013 3.504c-1.43 1.199-2.95 2.286-4.39 3.465-.322.272-.745.886-.634 1.097.289.38.702.643 1.168.746a3.15 3.15 0 0 0 1.308 0 56.5 56.5 0 0 0 14.267-3.525 14.937 14.937 0 0 1 6.343-1.28c1.007 0 2.084-.18 3.111-.1 1.027.08 1.188.574.675 1.4a11.39 11.39 0 0 1-1.933 2.478c-1.813 1.631-3.756 3.111-5.608 4.703a11.52 11.52 0 0 0-1.873 2.014 8.85 8.85 0 0 1-3.443 3.082 2.89 2.89 0 0 0-1.007.775c-1.52 1.944-3.665 2.84-5.88 3.656-2.638 1.007-5.246 2.014-7.883 3.021-1.118.403-2.266.675-3.967 1.189z" fill="#7C4B39" fill-rule="nonzero"/><path d="M227.42 183.839l-30.083-11.29a.715.715 0 0 0-.504 0l-21.203 8.057a.715.715 0 0 0 0 1.32l31.966 13.525c.194.092.42.092.614 0l19.331-10.313a.715.715 0 0 0-.12-1.3z" fill="#000" fill-rule="nonzero"/><path d="M222.326 183.073l-24.99-9.366a.594.594 0 0 0-.412 0l-17.61 6.687a.594.594 0 0 0 0 1.098l26.54 11.23c.16.074.344.074.504 0l16.109-8.541a.594.594 0 0 0-.141-1.108z" fill="#BBBDBF" fill-rule="nonzero"/><path d="M202.763 178.763l13.633 5.247M200.246 180.203l13.37 5.469M197.165 181.693l13.391 5.68M194.699 183.093l13.693 5.993M191.769 184.604l14.236 5.902" stroke="#404041" stroke-width="1.41" fill="#251F20" fill-rule="nonzero" stroke-linecap="round" stroke-linejoin="round"/><path d="M199.22 192.752a5.115 5.115 0 0 1-1.843-1.3c-.11-.211.312-.836.634-1.097 1.44-1.189 2.96-2.266 4.39-3.465a4.613 4.613 0 0 0 2.014-3.505 2.226 2.226 0 0 0-.735-1.631c-.282-.192-1.108.201-1.571.503-2.225 1.48-4.269 3.314-6.655 4.472a40.048 40.048 0 0 0-4.49 2.538s8.658 3.615 8.255 3.485z" fill="#7C4B39" fill-rule="nonzero"/><ellipse fill="#BE1E2D" fill-rule="nonzero" transform="rotate(-25.08 192.68 178.836)" cx="192.681" cy="178.836" rx="5.195" ry="1.863"/><path fill="#231F20" fill-rule="nonzero" d="M123.517 43.407h19.442v33.487h-19.442z"/><path fill="#F45E5D" fill-rule="nonzero" d="M123.517 60.86V95.04L98.749 97.57l-9.887-21.864zM123.517 41.936v11.491l18.555-10.514z"/><path fill="#008C47" fill-rule="nonzero" d="M123.517 76.893h37.212l-13.35 14.926-23.862-5.59z"/><path d="M142.566 55.804l27.254-9.376-27.748-3.515"/></g></g></g></svg>