<?xml version="1.0" encoding="UTF-8"?>
<svg width="889px" height="897px" viewBox="0 0 889 897" version="1.1" xmlns="http://www.w3.org/2000/svg" xmlns:xlink="http://www.w3.org/1999/xlink">
    <!-- Generator: Sketch 48.2 (47327) - http://www.bohemiancoding.com/sketch -->
    <title>Page 1</title>
    <desc>Created with Sketch.</desc>
    <defs>
        <polygon id="path-1" points="0.528041992 0.156613727 2.12783834 0.156613727 2.12783834 1.81292702 0.528041992 1.81292702"></polygon>
        <polygon id="path-3" points="0.893992484 0.700036531 2.49384799 0.700036531 2.49384799 2.35623201 0.893992484 2.35623201"></polygon>
    </defs>
    <g id="Streamcast-Copy" stroke="none" stroke-width="1" fill="none" fill-rule="evenodd" transform="translate(-8.000000, -102.000000)">
        <g id="Header-#1" transform="translate(0.000000, 100.000000)">
            <g id="Image">
                <g id="Asset-1">
                    <g transform="translate(-168.000000, 1.000000)" id="Page-1">
                        <g transform="translate(0.000000, 1.000000)">
                            <path d="M607.936963,124.839105 C612.200887,124.839105 612.207956,118.214558 607.936963,118.214558 C603.674217,118.214558 603.667148,124.839105 607.936963,124.839105" id="Fill-1" fill="#A3ABFF"></path>
                            <path d="M885.421575,76.0542634 C889.684321,76.0542634 889.692568,69.4297171 885.421575,69.4297171 C881.158829,69.4297171 881.151759,76.0542634 885.421575,76.0542634" id="Fill-3" fill="#A3ABFF"></path>
                            <path d="M781.745774,187.213043 C783.878325,187.213043 783.880681,183.900181 781.745774,183.900181 C779.614401,183.900181 779.610866,187.213043 781.745774,187.213043" id="Fill-5" fill="#A3ABFF"></path>
                            <path d="M699.415278,655.242128 C701.547829,655.242128 701.550186,651.929266 699.415278,651.929266 C697.283905,651.929266 697.280371,655.242128 699.415278,655.242128" id="Fill-7" fill="#A3ABFF"></path>
                            <path d="M931.161027,856.610782 C935.423773,856.610782 935.430842,849.986236 931.161027,849.986236 C926.897103,849.986236 926.890033,856.610782 931.161027,856.610782" id="Fill-9" fill="#A3ABFF"></path>
                            <path d="M662.824235,855.0863 C667.086981,855.0863 667.095228,848.460575 662.824235,848.460575 C658.561489,848.460575 658.553242,855.0863 662.824235,855.0863" id="Fill-11" fill="#A3ABFF"></path>
                            <path d="M707.038501,402.170911 C709.169874,402.170911 709.173408,398.858049 707.038501,398.858049 C704.907128,398.858049 704.903593,402.170911 707.038501,402.170911" id="Fill-13" fill="#A3ABFF"></path>
                            <path d="M604.887886,579.147144 C609.150632,579.147144 609.157701,572.522598 604.887886,572.522598 C600.62514,572.522598 600.616893,579.147144 604.887886,579.147144" id="Fill-15" fill="#A3ABFF"></path>
                            <path d="M266.417967,669.094181 C270.680713,669.094181 270.687782,662.469634 266.417967,662.469634 C262.155221,662.469634 262.146974,669.094181 266.417967,669.094181" id="Fill-17" fill="#A3ABFF"></path>
                            <path d="M441.751375,862.709064 C446.014121,862.709064 446.022368,856.083339 441.751375,856.083339 C437.488629,856.083339 437.48156,862.709064 441.751375,862.709064" id="Fill-19" fill="#A3ABFF"></path>
                            <path d="M793.943259,740.746961 C798.206005,740.746961 798.213075,734.122414 793.943259,734.122414 C789.680514,734.122414 789.672266,740.746961 793.943259,740.746961" id="Fill-21" fill="#A3ABFF"></path>
                            <path d="M441.751375,50.1374784 C446.014121,50.1374784 446.022368,43.5129321 441.751375,43.5129321 C437.488629,43.5129321 437.48156,50.1374784 441.751375,50.1374784" id="Fill-23" fill="#A3ABFF"></path>
                            <path d="M461.572083,208.556028 C463.703456,208.556028 463.706991,205.243166 461.572083,205.243166 C459.439532,205.243166 459.437175,208.556028 461.572083,208.556028" id="Fill-25" fill="#A3ABFF"></path>
                            <path d="M263.368419,152.280254 C267.632343,152.280254 267.639412,145.655708 263.368419,145.655708 C259.105673,145.655708 259.098604,152.280254 263.368419,152.280254" id="Fill-27" fill="#A3ABFF"></path>
                            <path d="M721.833929,110.152357 C722.899026,110.152357 722.901382,108.495926 721.833929,108.495926 C720.767653,108.495926 720.766475,110.152357 721.833929,110.152357" id="Fill-29" fill="#A3ABFF"></path>
                            <path d="M846.150115,155.487321 C847.215212,155.487321 847.217569,153.83089 846.150115,153.83089 C845.083839,153.83089 845.082661,155.487321 846.150115,155.487321" id="Fill-31" fill="#A3ABFF"></path>
                            <path d="M947.065617,187.661198 C948.130714,187.661198 948.133071,186.004767 947.065617,186.004767 C945.999341,186.004767 945.998163,187.661198 947.065617,187.661198" id="Fill-33" fill="#A3ABFF"></path>
                            <path d="M1014.34242,99.9151181 C1015.4087,99.9151181 1015.40988,98.258687 1014.34242,98.258687 C1013.27732,98.258687 1013.27497,99.9151181 1014.34242,99.9151181" id="Fill-35" fill="#A3ABFF"></path>
                            <path d="M1021.65495,197.89773 C1022.72123,197.89773 1022.72241,196.241299 1021.65495,196.241299 C1020.58985,196.241299 1020.5875,197.89773 1021.65495,197.89773" id="Fill-37" fill="#A3ABFF"></path>
                            <path d="M954.378147,102.839673 C955.444422,102.839673 955.4456,101.183242 954.378147,101.183242 C953.311871,101.183242 953.310693,102.839673 954.378147,102.839673" id="Fill-39" fill="#A3ABFF"></path>
                            <path d="M773.022579,38.4932154 C774.088855,38.4932154 774.090033,36.8367843 773.022579,36.8367843 C771.957482,36.8367843 771.955125,38.4932154 773.022579,38.4932154" id="Fill-41" fill="#A3ABFF"></path>
                            <path d="M815.436312,679.03854 C816.502587,679.03854 816.503766,677.382109 815.436312,677.382109 C814.371214,677.382109 814.368858,679.03854 815.436312,679.03854" id="Fill-43" fill="#A3ABFF"></path>
                            <path d="M695.507879,728.761044 C696.574155,728.761044 696.575333,727.104613 695.507879,727.104613 C694.442782,727.104613 694.440425,728.761044 695.507879,728.761044" id="Fill-45" fill="#A3ABFF"></path>
                            <path d="M623.843321,812.119584 C624.909596,812.119584 624.910774,810.463153 623.843321,810.463153 C622.778223,810.463153 622.775867,812.119584 623.843321,812.119584" id="Fill-47" fill="#A3ABFF"></path>
                            <path d="M569.729305,730.223321 C570.79558,730.223321 570.796758,728.56689 569.729305,728.56689 C568.663029,728.56689 568.661851,730.223321 569.729305,730.223321" id="Fill-49" fill="#A3ABFF"></path>
                            <path d="M604.83039,643.940108 C605.895487,643.940108 605.897844,642.283677 604.83039,642.283677 C603.764114,642.283677 603.762936,643.940108 604.83039,643.940108" id="Fill-51" fill="#A3ABFF"></path>
                            <path d="M297.696248,731.686188 C298.762524,731.686188 298.763702,730.029757 297.696248,730.029757 C296.629972,730.029757 296.628794,731.686188 297.696248,731.686188" id="Fill-53" fill="#A3ABFF"></path>
                            <path d="M454.188154,832.593945 C455.25443,832.593945 455.255608,830.937514 454.188154,830.937514 C453.123057,830.937514 453.1207,832.593945 454.188154,832.593945" id="Fill-55" fill="#A3ABFF"></path>
                            <path d="M433.712835,747.772537 C434.779111,747.772537 434.780289,746.116106 433.712835,746.116106 C432.64656,746.116106 432.645381,747.772537 433.712835,747.772537" id="Fill-57" fill="#A3ABFF"></path>
                            <path d="M277.220929,797.49563 C278.286027,797.49563 278.288383,795.839199 277.220929,795.839199 C276.154654,795.839199 276.153475,797.49563 277.220929,797.49563" id="Fill-59" fill="#A3ABFF"></path>
                            <path d="M837.374608,741.922838 C838.440883,741.922838 838.442062,740.266407 837.374608,740.266407 C836.30951,740.266407 836.307154,741.922838 837.374608,741.922838" id="Fill-61" fill="#A3ABFF"></path>
                            <path d="M841.762361,872.079327 C842.828637,872.079327 842.829815,870.422896 841.762361,870.422896 C840.696086,870.422896 840.694908,872.079327 841.762361,872.079327" id="Fill-63" fill="#A3ABFF"></path>
                            <path d="M775.947944,797.49563 C777.013042,797.49563 777.015398,795.839199 775.947944,795.839199 C774.881669,795.839199 774.880491,797.49563 775.947944,797.49563" id="Fill-65" fill="#A3ABFF"></path>
                            <path d="M1052.36887,790.183536 C1053.43397,790.183536 1053.43633,788.527104 1052.36887,788.527104 C1051.3026,788.527104 1051.30142,790.183536 1052.36887,790.183536" id="Fill-67" fill="#A3ABFF"></path>
                            <path d="M887.101342,787.258391 C888.166439,787.258391 888.168795,785.60196 887.101342,785.60196 C886.035066,785.60196 886.033888,787.258391 887.101342,787.258391" id="Fill-69" fill="#A3ABFF"></path>
                            <g id="Group-73" transform="translate(1062.740965, 0.118990)">
                                <mask id="mask-2" fill="white">
                                    <use xlink:href="#path-1"></use>
                                </mask>
                                <g id="Clip-72"></g>
                                <path d="M1.32819057,1.81292702 C2.39328794,1.81292702 2.39564435,0.156495915 1.32819057,0.156495915 C0.261914985,0.156495915 0.26073678,1.81292702 1.32819057,1.81292702" id="Fill-71" fill="#A3ABFF" mask="url(#mask-2)"></path>
                            </g>
                            <path d="M938.289992,54.5795648 C939.356268,54.5795648 939.357446,52.9231337 938.289992,52.9231337 C937.224895,52.9231337 937.222538,54.5795648 938.289992,54.5795648" id="Fill-74" fill="#A3ABFF"></path>
                            <path d="M1005.56739,38.4932154 C1006.63248,38.4932154 1006.63484,36.8367843 1005.56739,36.8367843 C1004.50111,36.8367843 1004.49993,38.4932154 1005.56739,38.4932154" id="Fill-76" fill="#A3ABFF"></path>
                            <g id="Group-80" transform="translate(1052.137119, 894.584642)">
                                <mask id="mask-4" fill="white">
                                    <use xlink:href="#path-3"></use>
                                </mask>
                                <g id="Clip-79"></g>
                                <path d="M1.69414106,2.35646764 C2.75923843,2.35646764 2.76159484,0.700036531 1.69414106,0.700036531 C0.627865477,0.700036531 0.626687272,2.35646764 1.69414106,2.35646764" id="Fill-78" fill="#A3ABFF" mask="url(#mask-4)"></path>
                            </g>
                            <path d="M1034.81833,842.830595 C1035.88343,842.830595 1035.88578,841.174164 1034.81833,841.174164 C1033.75205,841.174164 1033.75088,842.830595 1034.81833,842.830595" id="Fill-81" fill="#A3ABFF"></path>
                            <path d="M461.501273,116.002057 C462.56637,116.002057 462.568727,114.345625 461.501273,114.345625 C460.434997,114.345625 460.433819,116.002057 461.501273,116.002057" id="Fill-83" fill="#A3ABFF"></path>
                            <path d="M325.484803,130.626128 C326.549901,130.626128 326.552257,128.969697 325.484803,128.969697 C324.418528,128.969697 324.41735,130.626128 325.484803,130.626128" id="Fill-85" fill="#A3ABFF"></path>
                            <path d="M354.735629,190.585753 C355.800727,190.585753 355.803083,188.929322 354.735629,188.929322 C353.669354,188.929322 353.668175,190.585753 354.735629,190.585753" id="Fill-87" fill="#A3ABFF"></path>
                            <path d="M503.914888,38.4932154 C504.979985,38.4932154 504.982342,36.8367843 503.914888,36.8367843 C502.848612,36.8367843 502.847434,38.4932154 503.914888,38.4932154" id="Fill-89" fill="#A3ABFF"></path>
                            <path d="M607.755166,9.24448279 C608.821442,9.24448279 608.82262,7.58805168 607.755166,7.58805168 C606.690069,7.58805168 606.687712,9.24448279 607.755166,9.24448279" id="Fill-91" fill="#A3ABFF"></path>
                            <path d="M582.892094,61.8915418 C583.958369,61.8915418 583.959548,60.2351107 582.892094,60.2351107 C581.826996,60.2351107 581.82464,61.8915418 582.892094,61.8915418" id="Fill-93" fill="#A3ABFF"></path>
                            <path d="M522.927936,88.2156015 C523.994212,88.2156015 523.99539,86.5591704 522.927936,86.5591704 C521.862839,86.5591704 521.860483,88.2156015 522.927936,88.2156015" id="Fill-95" fill="#A3ABFF"></path>
                            <path d="M565.341551,192.048031 C566.407827,192.048031 566.409005,190.3916 565.341551,190.3916 C564.276454,190.3916 564.274097,192.048031 565.341551,192.048031" id="Fill-97" fill="#A3ABFF"></path>
                            <path d="M359.122911,29.718254 C360.189187,29.718254 360.190365,28.0618229 359.122911,28.0618229 C358.057814,28.0618229 358.055458,29.718254 359.122911,29.718254" id="Fill-99" fill="#A3ABFF"></path>
                            <path d="M228.956466,801.883052 C230.022741,801.883052 230.02392,800.226621 228.956466,800.226621 C227.891368,800.226621 227.889012,801.883052 228.956466,801.883052" id="Fill-109" fill="#A3ABFF"></path>
                            <path d="M177.767815,39.955493 C178.832913,39.955493 178.835269,38.2990619 177.767815,38.2990619 C176.70154,38.2990619 176.700361,39.955493 177.767815,39.955493" id="Fill-118" fill="#A3ABFF"></path>
                            <path d="M607.755166,494.772125 C608.821442,494.772125 608.82262,493.115694 607.755166,493.115694 C606.690069,493.115694 606.687712,494.772125 607.755166,494.772125" id="Fill-120" fill="#A3ABFF"></path>
                        </g>
                    </g>
                </g>
            </g>
        </g>
    </g>
</svg>