<?xml version="1.0" encoding="UTF-8"?>
<svg width="355px" height="663px" viewBox="0 0 355 663" version="1.1" xmlns="http://www.w3.org/2000/svg" xmlns:xlink="http://www.w3.org/1999/xlink">
    <!-- Generator: Sketch 48.2 (47327) - http://www.bohemiancoding.com/sketch -->
    <title>bg-fourth</title>
    <desc>Created with Sketch.</desc>
    <defs>
        <polygon id="path-1" points="0 0 355 0 355 108.231566 355 221.875 0 221.875"></polygon>
        <linearGradient x1="97.6625895%" y1="100%" x2="2.29787932%" y2="100%" id="linearGradient-3">
            <stop stop-color="#FF42D2" offset="0%"></stop>
            <stop stop-color="#FFD451" offset="100%"></stop>
        </linearGradient>
        <polygon id="path-4" points="0 0 355 0 355 108.231566 355 221.875 0 221.875"></polygon>
        <linearGradient x1="97.6625895%" y1="100%" x2="2.29787932%" y2="100%" id="linearGradient-6">
            <stop stop-color="#FF0089" offset="0%"></stop>
            <stop stop-color="#FFD451" offset="100%"></stop>
        </linearGradient>
        <linearGradient x1="100%" y1="100%" x2="0%" y2="100%" id="linearGradient-7">
            <stop stop-color="#FF0089" offset="0%"></stop>
            <stop stop-color="#FFD451" offset="100%"></stop>
        </linearGradient>
        <linearGradient x1="2.29787938%" y1="0%" x2="152.685547%" y2="154.557292%" id="linearGradient-8">
            <stop stop-color="#FF42D2" offset="0%"></stop>
            <stop stop-color="#FFD451" offset="100%"></stop>
        </linearGradient>
    </defs>
    <g id="Desktop-HD" stroke="none" stroke-width="1" fill="none" fill-rule="evenodd" transform="translate(-365.000000, -877.000000)">
        <g id="bg-fourth" transform="translate(365.000000, 877.000000)">
            <g id="Path-2">
                <g id="Path-3">
                    <g id="Path-2">
                        <g id="Group">
                            <g id="Mask" fill="#FFFFFF" fill-rule="nonzero">
                                <polygon id="path-1" points="0 0 355 0 355 108.231566 355 221.875 0 221.875"></polygon>
                            </g>
                            <g id="Clipped">
                                <mask id="mask-2" fill="white">
                                    <use xlink:href="#path-1"></use>
                                </mask>
                                <g id="path-1"></g>
                                <path d="M-4.00775416,215.789738 C-22.8393776,216.288205 -24.9015625,216.288205 -10.1943088,215.789738 C11.8665718,215.042037 46.643826,218.011447 73.7772895,210.228488 C79.6766935,208.536304 108.417627,193.43171 120.978247,187.212203 C137.940318,178.813276 150.316972,183.802225 161.907177,183.135931 C182.080069,181.976238 197.589533,148.696696 225.216607,148.696696 C252.843681,148.696696 255.620415,163.183092 287.383978,158.320909 C319.147542,153.458727 340.503925,65.9778426 355,64.9119194 C369.496075,63.8459964 361.233152,128.230775 367.714192,125.212145 C372.034887,123.199726 369.698267,156.341078 360.704335,224.636204 L-4.00775416,231.365585 L-4.00775416,215.789738 Z" id="Shape" fill-opacity="0.15" fill="url(#linearGradient-3)" fill-rule="nonzero" mask="url(#mask-2)"></path>
                            </g>
                            <g id="Clipped">
                                <mask id="mask-5" fill="white">
                                    <use xlink:href="#path-4"></use>
                                </mask>
                                <g id="path-1"></g>
                                <path d="M-13.6360677,219.73329 C34.9045533,222.203531 67.3244826,219.875224 83.6237206,212.748371 C108.072578,202.058091 110.394368,199.032661 122.265259,199.032661 C134.136149,199.032661 137.289112,206.370492 157.462004,205.210799 C177.634896,204.051106 189.914405,183.82498 217.541479,183.82498 C245.168553,183.82498 264.164143,202.647759 294.903076,195.546604 C325.642008,188.445448 348.51896,129.127218 355,126.108588 C359.320695,124.096169 359.435372,156.975497 355.344032,224.746573 L-9.36805556,231.475954 L-13.6360677,219.73329 Z" id="Shape" fill="url(#linearGradient-6)" fill-rule="nonzero" mask="url(#mask-5)"></path>
                            </g>
                        </g>
                    </g>
                </g>
            </g>
            <path d="M292.7,198.508618 L292.7,181.008332" id="Line-Copy-3" stroke="#FF0189" stroke-linecap="round" stroke-linejoin="round"></path>
            <path d="M337.2,157.500286 L337.2,140" id="Line-Copy-3" stroke="#FF0189" stroke-linecap="round" stroke-linejoin="round"></path>
            <rect id="Rectangle-Copy-2" fill="url(#linearGradient-7)" fill-rule="nonzero" x="0" y="221.628472" width="355" height="441.371528"></rect>
            <circle id="Oval-2-Copy-2" stroke="url(#linearGradient-8)" stroke-width="0.986111111" fill="#FFFFFF" fill-rule="nonzero" cx="292.628472" cy="196.482639" r="1.47916667"></circle>
            <circle id="Oval-2-Copy" stroke="url(#linearGradient-8)" stroke-width="0.986111111" fill="#FFFFFF" fill-rule="nonzero" cx="337.25" cy="154.572917" r="1.47916667"></circle>
            <g id="2021" transform="translate(332.565972, 131.399306)" fill="#000000" font-family="RobotoSlab-Regular, Roboto Slab" font-size="4.4375" font-weight="normal">
                <text>
                    <tspan x="0" y="5">2021</tspan>
                </text>
            </g>
            <g id="2018" transform="translate(287.944444, 172.569444)" fill="#000000" font-family="RobotoSlab-Regular, Roboto Slab" font-size="4.4375" font-weight="normal">
                <text>
                    <tspan x="0" y="5">2018</tspan>
                </text>
            </g>
            <g id="CDN-Traffic" transform="translate(327.881944, 211.520833)" fill="#FFFFFF">
                <path d="M1.28752984,3.05729845 C0.957219486,3.05729845 0.695727711,2.94326444 0.503046672,2.71519301 C0.310365632,2.48712157 0.214026557,2.17703895 0.214026557,1.78493585 C0.214026557,1.39170923 0.31008476,1.08106487 0.502204047,0.852993435 C0.694323335,0.624922001 0.955534237,0.510887994 1.28584459,0.510887994 C1.54200364,0.510887994 1.76108375,0.583914698 1.9430915,0.729970296 C2.12509924,0.876025895 2.23407756,1.06645707 2.2700297,1.30126953 L1.96162923,1.30126953 C1.92118307,1.14397889 1.84029195,1.01955262 1.71895345,0.927986993 C1.59761495,0.836421367 1.45324678,0.790639242 1.28584459,0.790639242 C1.05215563,0.790639242 0.867061026,0.879956518 0.730555216,1.05859375 C0.594049407,1.23723098 0.525797526,1.47934259 0.525797526,1.78493585 C0.525797526,2.08940559 0.594330279,2.33095546 0.731397841,2.50959269 C0.868465402,2.68822992 1.05384088,2.7775472 1.28752984,2.7775472 C1.45717903,2.7775472 1.60238983,2.73682077 1.72316657,2.65536669 C1.84394332,2.5739126 1.92343008,2.46296819 1.96162923,2.32253011 L2.2700297,2.32253011 C2.22958354,2.54610753 2.12032435,2.72446121 1.94224887,2.8575965 C1.76417339,2.9907318 1.5459359,3.05729845 1.28752984,3.05729845 Z M2.91716512,0.568186442 L3.75136312,0.568186442 C4.1120081,0.568186442 4.39344178,0.674917779 4.59567261,0.888383653 C4.79790344,1.10184953 4.89901733,1.40013553 4.89901733,1.7832506 C4.89901733,2.16636567 4.79818431,2.46493254 4.59651523,2.67896016 C4.39484616,2.89298779 4.1131316,3 3.75136312,3 L2.91716512,3 L2.91716512,0.568186442 Z M3.22050985,0.841196696 L3.22050985,2.72698975 L3.73114014,2.72698975 C4.00302825,2.72698975 4.21396308,2.6444134 4.36395094,2.47925822 C4.51393881,2.31410304 4.58893161,2.08322631 4.58893161,1.78662109 C4.58893161,1.48889237 4.51337706,1.25689215 4.36226569,1.09061347 C4.21115432,0.92433479 4.00078124,0.841196696 3.73114014,0.841196696 L3.22050985,0.841196696 Z M5.86129422,3 L5.56131999,3 L5.56131999,0.568186442 L5.85623847,0.568186442 L7.17578803,2.46072049 L7.20275201,2.46072049 L7.20275201,0.568186442 L7.50272624,0.568186442 L7.50272624,3 L7.20780775,3 L5.88825819,1.11420695 L5.86129422,1.11420695 L5.86129422,3 Z M10.308665,3 L10.0053202,3 L10.0053202,0.841196696 L9.22167969,0.841196696 L9.22167969,0.568186442 L11.0923055,0.568186442 L11.0923055,0.841196696 L10.308665,0.841196696 L10.308665,3 Z M11.4091322,3 L11.4091322,1.18330214 L11.685513,1.18330214 L11.685513,1.45294189 L11.7124769,1.45294189 C11.7394411,1.36418503 11.8001094,1.29172007 11.8944838,1.23554484 C11.9888582,1.17936961 12.0961512,1.15128242 12.2163662,1.15128242 C12.2399598,1.15128242 12.2655192,1.15212503 12.293045,1.15381029 C12.3205709,1.15549555 12.3433215,1.15746165 12.3612976,1.15970866 L12.3612976,1.4495714 C12.3500626,1.44620088 12.3236606,1.44254955 12.2820909,1.43861728 C12.2405213,1.43468502 12.2051314,1.43271891 12.1759203,1.43271891 C12.0377292,1.43271891 11.9236952,1.47428796 11.8338148,1.5574273 C11.7439345,1.64056664 11.698995,1.74617449 11.698995,1.87425401 L11.698995,3 L11.4091322,3 Z M13.4213189,2.7775472 C13.570745,2.7775472 13.6946095,2.73401205 13.7929162,2.64694044 C13.8912228,2.55986884 13.9403754,2.45173314 13.9403754,2.32253011 L13.9403754,2.15569051 L13.4516534,2.18771023 C13.1865063,2.20568631 13.0539347,2.30455323 13.0539347,2.48431396 C13.0539347,2.57644134 13.0887629,2.64834456 13.1584201,2.70002577 C13.2280774,2.75170698 13.3157095,2.7775472 13.4213189,2.7775472 Z M13.367391,3.03201972 C13.1910007,3.03201972 13.0446664,2.98342888 12.9283837,2.88624573 C12.812101,2.78906258 12.7539605,2.65733364 12.7539605,2.49105496 C12.7539605,2.1584976 12.9747258,1.9793013 13.4162632,1.95346069 L13.9403754,1.92144097 L13.9403754,1.75628662 C13.9403754,1.52484467 13.8033099,1.40912543 13.5291748,1.40912543 C13.4201949,1.40912543 13.3297541,1.42878647 13.2578498,1.46810913 C13.1859455,1.50743179 13.1398825,1.56304444 13.1196594,1.63494873 L12.8264262,1.63494873 C12.8455258,1.48889313 12.9207994,1.37176953 13.0522495,1.28357442 C13.1836995,1.19537931 13.3460435,1.15128242 13.5392863,1.15128242 C13.7606167,1.15128242 13.931106,1.20492896 14.0507592,1.31222365 C14.1704124,1.41951834 14.2302382,1.56753785 14.2302382,1.75628662 L14.2302382,3 L13.9538574,3 L13.9538574,2.73204549 L13.9268934,2.73204549 C13.8684712,2.82866689 13.7909506,2.90281708 13.6943292,2.95449829 C13.5977078,3.0061795 13.4887294,3.03201972 13.367391,3.03201972 Z M15.0256755,3 L15.0256755,1.42597792 L14.724016,1.42597792 L14.724016,1.18330214 L15.0256755,1.18330214 L15.0256755,0.98107232 C15.0256755,0.800188079 15.0703341,0.66565042 15.1596527,0.577455309 C15.2489713,0.489260197 15.3801385,0.445163303 15.5531582,0.445163303 C15.5891104,0.445163303 15.6230959,0.446567663 15.6551158,0.449376424 C15.6871356,0.452185186 15.7183124,0.456398265 15.7486471,0.462015788 L15.7486471,0.697950575 C15.730671,0.694580061 15.7098865,0.692333086 15.6862929,0.691209581 C15.6626993,0.690086077 15.6379825,0.689524333 15.6121419,0.689524333 C15.507656,0.689524333 15.4321014,0.714521935 15.385476,0.76451789 C15.3388506,0.814513845 15.3155382,0.889506652 15.3155382,0.989498562 L15.3155382,1.18330214 L15.7317946,1.18330214 L15.7317946,1.42597792 L15.3155382,1.42597792 L15.3155382,3 L15.0256755,3 Z M16.412635,3 L16.412635,1.42597792 L16.1109755,1.42597792 L16.1109755,1.18330214 L16.412635,1.18330214 L16.412635,0.98107232 C16.412635,0.800188079 16.4572936,0.66565042 16.5466122,0.577455309 C16.6359308,0.489260197 16.767098,0.445163303 16.9401177,0.445163303 C16.9760699,0.445163303 17.0100554,0.446567663 17.0420753,0.449376424 C17.0740951,0.452185186 17.1052719,0.456398265 17.1356066,0.462015788 L17.1356066,0.697950575 C17.1176305,0.694580061 17.096846,0.692333086 17.0732524,0.691209581 C17.0496588,0.690086077 17.024942,0.689524333 16.9991014,0.689524333 C16.8946155,0.689524333 16.8190609,0.714521935 16.7724355,0.76451789 C16.7258101,0.814513845 16.7024977,0.889506652 16.7024977,0.989498562 L16.7024977,1.18330214 L17.1187541,1.18330214 L17.1187541,1.42597792 L16.7024977,1.42597792 L16.7024977,3 L16.412635,3 Z M17.6849976,3 L17.6849976,1.18330214 L17.9748603,1.18330214 L17.9748603,3 L17.6849976,3 Z M17.8299289,0.81423272 C17.7748772,0.81423272 17.7274098,0.794290813 17.6875254,0.754406399 C17.647641,0.714521986 17.6276991,0.667054628 17.6276991,0.612002903 C17.6276991,0.555827672 17.647641,0.508079443 17.6875254,0.468756782 C17.7274098,0.429434121 17.7748772,0.409773085 17.8299289,0.409773085 C17.8861042,0.409773085 17.9338524,0.429434121 17.973175,0.468756782 C18.0124977,0.508079443 18.0321587,0.555827672 18.0321587,0.612002903 C18.0321587,0.667054628 18.0124977,0.714521986 17.973175,0.754406399 C17.9338524,0.794290813 17.8861042,0.81423272 17.8299289,0.81423272 Z M20.1690538,1.73943414 L19.8758206,1.73943414 C19.852227,1.64955377 19.8008274,1.57259486 19.7216203,1.50855509 C19.6424133,1.44451533 19.537648,1.41249593 19.4073215,1.41249593 C19.2444133,1.41249593 19.1149314,1.47316427 19.0188717,1.59450277 C18.9228121,1.71584126 18.874783,1.87930873 18.874783,2.08491007 C18.874783,2.29500544 18.923093,2.46184337 19.0197144,2.58542887 C19.1163358,2.70901438 19.2455368,2.77080621 19.4073215,2.77080621 C19.5297835,2.77080621 19.63174,2.74328076 19.7131941,2.68822903 C19.7946482,2.63317731 19.8488565,2.55453316 19.8758206,2.45229424 L20.1690538,2.45229424 C20.1432132,2.61857293 20.0645691,2.75676192 19.933119,2.86686537 C19.801669,2.97696882 19.6269666,3.03201972 19.4090068,3.03201972 C19.1550947,3.03201972 18.952586,2.94635378 18.8014747,2.77501933 C18.6503633,2.60368488 18.5748088,2.37365076 18.5748088,2.08491007 C18.5748088,1.80178691 18.6500824,1.57540413 18.8006321,1.40575494 C18.9511817,1.23610574 19.1534095,1.15128242 19.4073215,1.15128242 C19.6286519,1.15128242 19.8047586,1.20886116 19.9356469,1.32402039 C20.0665352,1.43917961 20.1443367,1.57764947 20.1690538,1.73943414 Z"></path>
            </g>
            <g id="NON-CDN-Traffic" transform="translate(212.559028, 138.836806)" fill="#D5C6D0">
                <path d="M0.608374702,3 L0.308400472,3 L0.308400472,0.568186442 L0.603318956,0.568186442 L1.92286852,2.46072049 L1.94983249,2.46072049 L1.94983249,0.568186442 L2.24980672,0.568186442 L2.24980672,3 L1.95488824,3 L0.635338677,1.11420695 L0.608374702,1.11420695 L0.608374702,3 Z M4.03111437,0.510887994 C4.37715378,0.510887994 4.64903782,0.625483744 4.84677463,0.854678684 C5.04451144,1.08387362 5.14337836,1.3933945 5.14337836,1.7832506 C5.14337836,2.17198319 5.04479231,2.48150407 4.84761726,2.71182251 C4.6504422,2.94214095 4.37827729,3.05729845 4.03111437,3.05729845 C3.68282794,3.05729845 3.40953954,2.94214095 3.21124098,2.71182251 C3.01294242,2.48150407 2.91379462,2.17198319 2.91379462,1.7832506 C2.91379462,1.39227099 3.01406591,1.08246925 3.21461148,0.85383606 C3.41515705,0.625202873 3.68732196,0.510887994 4.03111437,0.510887994 Z M4.03111437,0.790639242 C3.78394335,0.790639242 3.58789474,0.879956518 3.44296265,1.05859375 C3.29803055,1.23723098 3.22556559,1.47878085 3.22556559,1.7832506 C3.22556559,2.08434983 3.29662619,2.32533795 3.43874953,2.5062222 C3.58087286,2.68710644 3.77832583,2.7775472 4.03111437,2.7775472 C4.28053239,2.7775472 4.47630013,2.68710644 4.61842346,2.5062222 C4.76054679,2.32533795 4.83160739,2.08434983 4.83160739,1.7832506 C4.83160739,1.47878085 4.76026592,1.23723098 4.61758084,1.05859375 C4.47489575,0.879956518 4.27940888,0.790639242 4.03111437,0.790639242 Z M6.10734049,3 L5.80736627,3 L5.80736627,0.568186442 L6.10228475,0.568186442 L7.42183431,2.46072049 L7.44879829,2.46072049 L7.44879829,0.568186442 L7.74877252,0.568186442 L7.74877252,3 L7.45385403,3 L6.13430447,1.11420695 L6.10734049,1.11420695 L6.10734049,3 Z M9.56378513,2.15906101 L8.45826213,2.15906101 L8.45826213,1.88436551 L9.56378513,1.88436551 L9.56378513,2.15906101 Z M11.2524041,3.05729845 C10.9220938,3.05729845 10.660602,2.94326444 10.4679209,2.71519301 C10.2752399,2.48712157 10.1789008,2.17703895 10.1789008,1.78493585 C10.1789008,1.39170923 10.274959,1.08106487 10.4670783,0.852993435 C10.6591976,0.624922001 10.9204085,0.510887994 11.2507189,0.510887994 C11.5068779,0.510887994 11.725958,0.583914698 11.9079658,0.729970296 C12.0899735,0.876025895 12.1989518,1.06645707 12.234904,1.30126953 L11.9265035,1.30126953 C11.8860573,1.14397889 11.8051662,1.01955262 11.6838277,0.927986993 C11.5624892,0.836421367 11.418121,0.790639242 11.2507189,0.790639242 C11.0170299,0.790639242 10.8319353,0.879956518 10.6954295,1.05859375 C10.5589237,1.23723098 10.4906718,1.47934259 10.4906718,1.78493585 C10.4906718,2.08940559 10.5592045,2.33095546 10.6962721,2.50959269 C10.8333397,2.68822992 11.0187151,2.7775472 11.2524041,2.7775472 C11.4220533,2.7775472 11.5672641,2.73682077 11.6880408,2.65536669 C11.8088176,2.5739126 11.8883043,2.46296819 11.9265035,2.32253011 L12.234904,2.32253011 C12.1944578,2.54610753 12.0851986,2.72446121 11.9071231,2.8575965 C11.7290477,2.9907318 11.5108102,3.05729845 11.2524041,3.05729845 Z M12.8820394,0.568186442 L13.7162374,0.568186442 C14.0768824,0.568186442 14.358316,0.674917779 14.5605469,0.888383653 C14.7627777,1.10184953 14.8638916,1.40013553 14.8638916,1.7832506 C14.8638916,2.16636567 14.7630586,2.46493254 14.5613895,2.67896016 C14.3597204,2.89298779 14.0780059,3 13.7162374,3 L12.8820394,3 L12.8820394,0.568186442 Z M13.1853841,0.841196696 L13.1853841,2.72698975 L13.6960144,2.72698975 C13.9679025,2.72698975 14.1788373,2.6444134 14.3288252,2.47925822 C14.4788131,2.31410304 14.5538059,2.08322631 14.5538059,1.78662109 C14.5538059,1.48889237 14.4782513,1.25689215 14.32714,1.09061347 C14.1760286,0.92433479 13.9656555,0.841196696 13.6960144,0.841196696 L13.1853841,0.841196696 Z M15.8261685,3 L15.5261943,3 L15.5261943,0.568186442 L15.8211127,0.568186442 L17.1406623,2.46072049 L17.1676263,2.46072049 L17.1676263,0.568186442 L17.4676005,0.568186442 L17.4676005,3 L17.172682,3 L15.8531325,1.11420695 L15.8261685,1.11420695 L15.8261685,3 Z M20.2735392,3 L19.9701945,3 L19.9701945,0.841196696 L19.186554,0.841196696 L19.186554,0.568186442 L21.0571798,0.568186442 L21.0571798,0.841196696 L20.2735392,0.841196696 L20.2735392,3 Z M21.3740065,3 L21.3740065,1.18330214 L21.6503872,1.18330214 L21.6503872,1.45294189 L21.6773512,1.45294189 C21.7043153,1.36418503 21.7649837,1.29172007 21.859358,1.23554484 C21.9537324,1.17936961 22.0610255,1.15128242 22.1812405,1.15128242 C22.2048341,1.15128242 22.2303934,1.15212503 22.2579193,1.15381029 C22.2854452,1.15549555 22.3081958,1.15746165 22.3261719,1.15970866 L22.3261719,1.4495714 C22.3149368,1.44620088 22.2885349,1.44254955 22.2469652,1.43861728 C22.2053955,1.43468502 22.1700057,1.43271891 22.1407945,1.43271891 C22.0026035,1.43271891 21.8885695,1.47428796 21.7986891,1.5574273 C21.7088087,1.64056664 21.6638692,1.74617449 21.6638692,1.87425401 L21.6638692,3 L21.3740065,3 Z M23.3861932,2.7775472 C23.5356193,2.7775472 23.6594838,2.73401205 23.7577905,2.64694044 C23.8560971,2.55986884 23.9052497,2.45173314 23.9052497,2.32253011 L23.9052497,2.15569051 L23.4165276,2.18771023 C23.1513806,2.20568631 23.018809,2.30455323 23.018809,2.48431396 C23.018809,2.57644134 23.0536371,2.64834456 23.1232944,2.70002577 C23.1929517,2.75170698 23.2805837,2.7775472 23.3861932,2.7775472 Z M23.3322652,3.03201972 C23.155875,3.03201972 23.0095407,2.98342888 22.893258,2.88624573 C22.7769753,2.78906258 22.7188348,2.65733364 22.7188348,2.49105496 C22.7188348,2.1584976 22.9396001,1.9793013 23.3811374,1.95346069 L23.9052497,1.92144097 L23.9052497,1.75628662 C23.9052497,1.52484467 23.7681842,1.40912543 23.4940491,1.40912543 C23.3850691,1.40912543 23.2946284,1.42878647 23.2227241,1.46810913 C23.1508198,1.50743179 23.1047568,1.56304444 23.0845337,1.63494873 L22.7913005,1.63494873 C22.8104,1.48889313 22.8856737,1.37176953 23.0171238,1.28357442 C23.1485738,1.19537931 23.3109178,1.15128242 23.5041606,1.15128242 C23.725491,1.15128242 23.8959802,1.20492896 24.0156335,1.31222365 C24.1352867,1.41951834 24.1951124,1.56753785 24.1951124,1.75628662 L24.1951124,3 L23.9187317,3 L23.9187317,2.73204549 L23.8917677,2.73204549 C23.8333455,2.82866689 23.7558248,2.90281708 23.6592034,2.95449829 C23.562582,3.0061795 23.4536037,3.03201972 23.3322652,3.03201972 Z M24.9905497,3 L24.9905497,1.42597792 L24.6888902,1.42597792 L24.6888902,1.18330214 L24.9905497,1.18330214 L24.9905497,0.98107232 C24.9905497,0.800188079 25.0352084,0.66565042 25.124527,0.577455309 C25.2138456,0.489260197 25.3450128,0.445163303 25.5180325,0.445163303 C25.5539846,0.445163303 25.5879701,0.446567663 25.61999,0.449376424 C25.6520099,0.452185186 25.6831867,0.456398265 25.7135213,0.462015788 L25.7135213,0.697950575 C25.6955452,0.694580061 25.6747607,0.692333086 25.6511671,0.691209581 C25.6275735,0.690086077 25.6028568,0.689524333 25.5770162,0.689524333 C25.4725303,0.689524333 25.3969757,0.714521935 25.3503503,0.76451789 C25.3037248,0.814513845 25.2804125,0.889506652 25.2804125,0.989498562 L25.2804125,1.18330214 L25.6966688,1.18330214 L25.6966688,1.42597792 L25.2804125,1.42597792 L25.2804125,3 L24.9905497,3 Z M26.3775092,3 L26.3775092,1.42597792 L26.0758497,1.42597792 L26.0758497,1.18330214 L26.3775092,1.18330214 L26.3775092,0.98107232 C26.3775092,0.800188079 26.4221679,0.66565042 26.5114865,0.577455309 C26.6008051,0.489260197 26.7319723,0.445163303 26.904992,0.445163303 C26.9409441,0.445163303 26.9749296,0.446567663 27.0069495,0.449376424 C27.0389694,0.452185186 27.0701462,0.456398265 27.1004808,0.462015788 L27.1004808,0.697950575 C27.0825047,0.694580061 27.0617202,0.692333086 27.0381266,0.691209581 C27.014533,0.690086077 26.9898163,0.689524333 26.9639757,0.689524333 C26.8594898,0.689524333 26.7839352,0.714521935 26.7373098,0.76451789 C26.6906843,0.814513845 26.667372,0.889506652 26.667372,0.989498562 L26.667372,1.18330214 L27.0836283,1.18330214 L27.0836283,1.42597792 L26.667372,1.42597792 L26.667372,3 L26.3775092,3 Z M27.6498718,3 L27.6498718,1.18330214 L27.9397346,1.18330214 L27.9397346,3 L27.6498718,3 Z M27.7948032,0.81423272 C27.7397515,0.81423272 27.6922841,0.794290813 27.6523997,0.754406399 C27.6125153,0.714521986 27.5925734,0.667054628 27.5925734,0.612002903 C27.5925734,0.555827672 27.6125153,0.508079443 27.6523997,0.468756782 C27.6922841,0.429434121 27.7397515,0.409773085 27.7948032,0.409773085 C27.8509784,0.409773085 27.8987267,0.429434121 27.9380493,0.468756782 C27.977372,0.508079443 27.997033,0.555827672 27.997033,0.612002903 C27.997033,0.667054628 27.977372,0.714521986 27.9380493,0.754406399 C27.8987267,0.794290813 27.8509784,0.81423272 27.7948032,0.81423272 Z M30.1339281,1.73943414 L29.8406949,1.73943414 C29.8171013,1.64955377 29.7657017,1.57259486 29.6864946,1.50855509 C29.6072875,1.44451533 29.5025223,1.41249593 29.3721958,1.41249593 C29.2092876,1.41249593 29.0798056,1.47316427 28.983746,1.59450277 C28.8876864,1.71584126 28.8396573,1.87930873 28.8396573,2.08491007 C28.8396573,2.29500544 28.8879672,2.46184337 28.9845886,2.58542887 C29.08121,2.70901438 29.2104111,2.77080621 29.3721958,2.77080621 C29.4946578,2.77080621 29.5966143,2.74328076 29.6780684,2.68822903 C29.7595225,2.63317731 29.8137307,2.55453316 29.8406949,2.45229424 L30.1339281,2.45229424 C30.1080875,2.61857293 30.0294433,2.75676192 29.8979933,2.86686537 C29.7665433,2.97696882 29.5918409,3.03201972 29.373881,3.03201972 C29.119969,3.03201972 28.9174603,2.94635378 28.7663489,2.77501933 C28.6152376,2.60368488 28.539683,2.37365076 28.539683,2.08491007 C28.539683,1.80178691 28.6149567,1.57540413 28.7655063,1.40575494 C28.9160559,1.23610574 29.1182837,1.15128242 29.3721958,1.15128242 C29.5935262,1.15128242 29.7696329,1.20886116 29.9005212,1.32402039 C30.0314095,1.43917961 30.109211,1.57764947 30.1339281,1.73943414 Z"></path>
            </g>
        </g>
    </g>
</svg>